<?xml version="1.0" standalone="no"?>
<!DOCTYPE svg PUBLIC "-//W3C//DTD SVG 1.1//EN" "http://www.w3.org/Graphics/SVG/1.1/DTD/svg11.dtd" >
<svg xmlns="http://www.w3.org/2000/svg">
<metadata>
This is a custom SVG webfont generated by Font Squirrel.
Copyright   : Copyright c 2011 TypeSETit LLC typesetitattnetwith Reserved Font Name Italianno
Designer    : Robert E Leuschke
Foundry     : Robert E Leuschke
</metadata>
<defs>
<font id="ItaliannoRegular" horiz-adv-x="602" >
<font-face units-per-em="2048" ascent="1638" descent="-410" />
<missing-glyph horiz-adv-x="346" />
<glyph unicode="&#x9;" horiz-adv-x="0" />
<glyph unicode=" "  horiz-adv-x="346" />
<glyph unicode="&#x09;" horiz-adv-x="346" />
<glyph unicode="&#xa0;" horiz-adv-x="346" />
<glyph unicode="!" horiz-adv-x="604" d="M207 33q-2 2 15.5 16t39 26.5t23.5 10.5q47 -29 67 -25q18 4 19 -5q1 -8 -15 -21q-59 -49 -75 -47q-39 2 -74 45zM344 260q8 20 60.5 157.5t120 311.5t104.5 268q37 102 39 109q106 25 161 70q4 2 10.5 -6.5t8.5 -17.5t-2 -13q-12 -8 -82 -131q-307 -598 -365 -725 q-10 -21 -43 -28q-13 -3 -12 5z" />
<glyph unicode="&#x22;" horiz-adv-x="344" d="M219 899q33 86 76 275q-2 24 79 61q60 27 58 10q-23 -68 -164 -334q-20 -37 -42 -34q-14 2 -7 22zM434 899q33 86 76 275q-2 25 83 63q57 25 54 8q-27 -84 -164 -334q-18 -37 -42 -34q-15 2 -7 22z" />
<glyph unicode="#" horiz-adv-x="1185" d="M27 389q-13 0 28 45q30 32 43 29q25 -4 224 -8q47 80 118 188q-201 0 -280 -6q-15 -2 26 43q29 32 43 31q57 -8 250 -9q160 242 246 322q9 9 73 -17l7 -3q-82 -76 -238 -304h88q115 0 195 2q154 233 246 322q11 8 75 -17l7 -3q-86 -80 -238 -302q218 5 238 5 q13 0 -29 -44q-30 -31 -43 -30q-59 4 -209 8l-121 -184q203 0 268 4q13 0 -28 -44q-30 -31 -43 -30q-25 2 -236 6q-125 -197 -186 -301q-9 -16 -41 -8q-14 3 -10 10q29 80 157 301q-59 2 -139 2h-151q-53 -86 -189 -305q-4 -6 -17.5 -9t-24.5 1t-9 10q31 82 160 303 q-211 -4 -260 -8zM403 455h291q64 106 117 188q-41 0 -96.5 1t-63.5 1h-123q-43 -63 -125 -190z" />
<glyph unicode="$" horiz-adv-x="641" d="M102 301q0 111 80 160q14 8 20 -5q2 -5 -1 -7q-14 -18 -25 -46q-23 -70 10 -131q33 -66 99 -92q55 150 133 344q-43 49 -65.5 102.5t-12.5 119t66 120.5q78 78 174 78h4q25 56 43 103q7 17 37 20q9 -2 10 -6l-47 -119q109 -10 108 -104q0 -57 -37 -136q-15 -27 -35 -26 q-9 1 -6 14q18 86 2 133q-18 45 -55 60l-96 -265q6 -6 30.5 -34.5t34.5 -40.5q55 -74 56 -150q0 -111 -91.5 -187.5t-205.5 -78.5q-43 -121 -66 -197l-68 -29q-13 -4 -12 -1q23 72 80 231q-74 12 -119 54t-45 116zM344 166q37 0 55 4q51 10 91 56t40 110q1 73 -73 147z M422 739q8 -33 49 -80q20 51 56 141.5t36 92.5q-59 4 -106 -42t-35 -112z" />
<glyph unicode="%" horiz-adv-x="1294" d="M147 -51q242 305 575 660.5t564 516.5q-311 -47 -530 0q100 -33 -13 -217q-35 -59 -104.5 -138t-140.5 -128q-68 -47 -125 -47q-47 0 -69.5 26.5t-21.5 65.5t10 76t23 65q18 39 52 91q27 43 94 123.5t96 80.5q35 0 33 -22q0 -8 -29 -45t-77 -99.5t-78 -107.5 q-135 -231 -29 -232q33 0 82 39q84 63 157.5 177t83.5 202q10 98 -65 125q29 29 55 21q145 -43 420 -27q172 10 369 64q43 -4 7 -59q-34 -51 -73 -58q-229 -158 -593.5 -521.5t-606.5 -637.5q-16 -18 -54 -11q-21 5 -12 17zM769 72q1 39 10 75.5t24 65.5q18 39 51 90 q27 43 94.5 124t95.5 81q37 0 35 -23q0 -8 -28.5 -46t-76.5 -99t-79 -107q-12 -18 -27.5 -47.5t-35 -76t-13.5 -77t45 -30.5q33 0 82 39q84 61 158 176t84 203q10 96 -64 125q-10 2 -11 7t3 9t8 4q61 0 115.5 -36t48.5 -95q-8 -59 -57 -143q-35 -57 -104.5 -136t-139.5 -128 q-70 -47 -127 -47q-45 0 -68.5 26.5t-22.5 65.5z" />
<glyph unicode="&#x26;" horiz-adv-x="1245" d="M229 184q16 115 131 215q51 45 110.5 82t150 86t118.5 66l2 2q-35 113 -14 213q25 110 122 136q82 22 130 -30q34 -37 20 -94q-25 -94 -188 -209q25 -61 109 -229h274q84 0 102 14q4 4 8.5 1.5t0.5 -9.5l-37 -55q-8 -12 -17.5 -14.5t-42.5 1.5l-108 13q-18 -84 -68 -158 q84 -145 141.5 -221t113.5 -110t98 -36t87.5 27t74 59.5t67.5 79.5q15 21 21 1q3 -11 -7 -25q-92 -127 -173 -181.5t-177 -24.5t-195 167q-41 57 -114 188q-68 -70 -152 -123q-180 -104 -319.5 -100t-214.5 90q-70 76 -54 178zM352.5 218q-12.5 -75 36.5 -140 q59 -59 190.5 -61.5t215.5 36.5q79 31 155 121q-80 156 -108 213q-51 -2 -97.5 -13.5t-86.5 -43t-35 -80.5q0 -31 16 -64l-16 -12q-61 104 -64 123q-6 63 29 92q51 45 235 35q-57 135 -75 186l-19 -12q-78 -47 -117 -72.5t-99 -75t-97 -94.5q-51 -63 -63.5 -138zM786 854 q-16 -70 17 -180q145 102 170 198q15 65 -41 87q-59 23 -109 -30q-27 -29 -37 -75zM938 387l72 -133q32 49 61 123q-84 8 -133 10z" />
<glyph unicode="'" horiz-adv-x="217" d="M219 899q33 86 76 275q-2 24 79 61q60 27 58 10q-23 -68 -164 -334q-20 -37 -42 -34q-14 2 -7 22z" />
<glyph unicode="(" horiz-adv-x="548" d="M100 160q-2 262 142 520q106 188 316 354t433 244q121 43 228 51q13 2 19 -18q4 -14 -5 -15q-178 -31 -359.5 -133t-326 -248.5t-233.5 -340t-85 -386.5q2 -100 51.5 -179t149.5 -68l37 8q12 1 13 -8q-3 -21 -34 -33q-150 -49 -247 20.5t-99 231.5z" />
<glyph unicode=")" horiz-adv-x="1038" d="M-88 -77.5q-7 16.5 2 18.5q178 29 359.5 131t325.5 248.5t234.5 340t86.5 388.5q-2 100 -51.5 178t-149.5 69l-39 -8q-13 -1 -13 8q-1 18 28 30q4 2 7 3q147 47 244.5 -21.5t100.5 -230.5q6 -264 -142 -520q-106 -190 -315 -355t-434 -243q-117 -43 -228 -51 q-9 -2 -16 14.5z" />
<glyph unicode="*" horiz-adv-x="1038" d="M143 725l377 135v4l-293 137l97 105l231 -203l8 4l64 340h127l-146 -340l6 -4l357 205l33 -104l-377 -140l-2 -4l295 -135l-99 -104l-231 200l-8 -4l-62 -338h-127l144 338l-7 4l-354 -200z" />
<glyph unicode="+" horiz-adv-x="667" d="M176 395q-13 0 29 45q30 32 43 29q47 -8 268 -8q68 170 86 233q4 10 34 22.5t56.5 18.5t24.5 0q-78 -162 -127 -274q180 0 328 6q13 0 -29 -44q-30 -31 -43 -30q-160 8 -281 10l-2 -8q-92 -219 -102 -268q-6 -23 -90 -43q-24 -5 -23 0q35 66 146 319q-227 0 -318 -8z" />
<glyph unicode="," horiz-adv-x="264" d="M74 -164q4 12 16 23q70 59 74 125q4 59 -51 71l8 23q27 4 55 26q4 4 11.5 10.5t12.5 10.5t7 4q57 -8 39 -86q-25 -123 -146 -207q-32 -20 -26 0z" />
<glyph unicode="-" horiz-adv-x="509" d="M156 297q-11 -3 20 35q17 21 25 20q18 -4 133 -8q51 0 162 6q4 0 -4.5 -14t-21.5 -27.5t-19 -13.5q-10 0 -32 3t-43.5 4t-45.5 1q-113 0 -174 -6z" />
<glyph unicode="." horiz-adv-x="305" d="M68 33q-2 2 5 8t19 14t23.5 15.5t20.5 12.5t11 3q47 -29 68 -25q16 4 17 -5q1 -8 -13 -21q-59 -49 -78 -47q-41 2 -73 45z" />
<glyph unicode="/" horiz-adv-x="772" d="M0 -51q227 317 553 727.5t475 572.5q10 13 119 5q25 -2 22 -5q-139 -147 -544.5 -634.5t-536.5 -667.5q-12 -19 -66 -12q-21 7 -22 14z" />
<glyph unicode="0" horiz-adv-x="753" d="M132 169q-15 176 94 391q59 116 128 179q25 23 77 66t71 57q51 43 151 43q135 0 164 -147.5t-34.5 -327.5t-168.5 -276q-20 -18 -66 -53t-71 -60q-59 -57 -164 -57q-165 0 -181 185zM244.5 183q19.5 -83 83.5 -113q86 -43 169.5 18t149.5 211q78 160 78 316.5t-102 199.5 q-92 37 -173 -31.5t-139 -205.5q-47 -109 -66.5 -210.5t0 -184.5z" />
<glyph unicode="1" horiz-adv-x="497" d="M16 -4l19 27q35 -8 97.5 8t86.5 59q29 53 113 316l69 215q20 66 25.5 98.5t1.5 40.5t-16 14q-16 10 -93 -49q-12 -8 -26 -20.5t-24.5 -20.5t-16.5 -10l16 55q16 10 69.5 41t88.5 53q35 25 154 97q20 12 24 3.5t-6 -26.5q-61 -123 -145 -393l-31 -101q-76 -225 -88 -313 q-6 -43 46 -57.5t91 -12.5l-22 -24q-41 12 -193 16q-53 -2 -240 -16z" />
<glyph unicode="2" horiz-adv-x="677" d="M43 -10q160 137 328 299q4 4 32.5 31.5t40 38t41 38t44 43t41 43t42 46t36 45t32.5 46t23.5 42t17.5 40.5q23 70 -15 115t-122 43q-74 0 -127 -33q-55 -37 -76 -106q-20 -68 -16 -82l-43 -23q41 135 47 215q0 25 37 41q53 20 155 25l45 2q96 4 150 -20q112 -49 63 -199 q-20 -68 -94 -150q-41 -45 -113.5 -106.5t-123 -101t-147.5 -114.5t-114 -87q-55 -41 -24 -46q1 0 10 -1q274 -20 352 24q29 16 70 61.5t53 69.5l19 -6q-49 -66 -82 -137q-23 -47 -49.5 -67.5t-73.5 -18.5q-162 10 -242 4q-70 -4 -217 -14z" />
<glyph unicode="3" horiz-adv-x="643" d="M72 53q20 41 53 166l45 19q-4 -6 -27 -80q-14 -68 25 -105q37 -37 123 -33q117 4 192.5 77t106.5 175q18 39 13 70t-12 52.5t-31.5 35.5t-46 22.5t-56.5 13.5t-61.5 6t-63.5 1l26 33l37 6q248 51 291 190q23 70 -14 115t-123 43q-76 0 -125 -33q-23 -14 -46.5 -45.5 t-31.5 -60.5q-20 -68 -16 -82l-43 -23q41 135 47 215q0 25 37 41q53 20 155 25l45 2q96 4 150 -20q51 -23 65 -71t-2 -91q-43 -137 -237 -203q-31 -14 -29 -16t28 -7q7 -1 9 -2q111 -10 139 -81q23 -51 -9 -142.5t-73 -140.5q-104 -127 -293 -141q-164 -10 -231 28 q-29 16 -16 41z" />
<glyph unicode="4" horiz-adv-x="825" d="M96 254q-4 4 1 8t20 14q20 12 48 39t73 76t55 60l239 251q31 31 65 73t52.5 61.5t32.5 23.5q20 6 67 28q85 38 84 19q0 -4 -4 -10q-55 -106 -147 -393l-31 -101l-22 -67q82 6 104 22q33 16 77 60.5t56 68.5l21 -6q-61 -82 -86 -135q-47 -94 -133 -86q-8 0 -29 1t-31 1 q-37 -131 -45 -172q-2 -23 14.5 -39t42 -21t47 -7.5t35.5 -2.5l-24 -24q-37 10 -193 16q-53 -2 -237 -16l18 27q33 -8 95.5 8t87.5 59q20 35 67 174h-117q-127 -4 -274 -12q-25 -2 -29 2zM262 371q-31 -33 10 -37q143 -10 265 -4q23 70 24 76l70 215q48 149 28 163 q-39 -25 -397 -413z" />
<glyph unicode="5" horiz-adv-x="677" d="M72 53q20 41 53 166l45 19q-4 -6 -27 -80q-14 -68 25 -105q37 -37 123 -33q106 4 186 76t111 170q37 121 -10 176q-41 49 -127 50q-102 0 -193 -31q-20 -7 -21 -3q-1 3 19 40q31 63 104 241l52 131q6 16 13 19.5t23.5 0.5t24.5 -3q279 4 385 4q24 -1 -24 -84 q-16 -27 -21 -39q-29 -74 -47 -109l-29 7l47 92q35 59 -57 59q-193 0 -235 -4q-39 -4 -54 -29q-74 -143 -135 -278q74 39 186 39q293 0 209 -262q-43 -135 -142 -212t-237 -87q-160 -10 -231 28q-29 16 -16 41z" />
<glyph unicode="6" horiz-adv-x="688" d="M131 142.5q-8 68.5 4 140t41 153.5q72 199 208 338t321 139q84 0 131 -24q28 -10 14 -33q-23 -41 -49 -147l-37 -17q4 8 24 70q14 57 -18 90q-27 25 -82 25q-100 0 -197.5 -85t-148.5 -194q-41 -82 -55 -141q25 18 68.5 41.5t56.5 31.5q45 27 137 27q96 0 144 -55.5 t44 -131t-44 -153.5t-103 -121q-16 -10 -56 -31.5t-63 -37.5q-49 -35 -145 -35q-88 0 -137.5 41t-57.5 109.5zM232.5 171q13.5 -91 103.5 -118q80 -25 153 15q86 47 119 140t15 173q-14 72 -76 102.5t-148 -2.5q-88 -39 -129 -129q-51 -90 -37.5 -181z" />
<glyph unicode="7" horiz-adv-x="634" d="M102 4q2 18 312.5 379.5t314.5 400.5q2 12 -7 19.5t-28 9.5q-41 4 -237 4q-88 0 -115 -51q-35 -55 -45 -92l-37 -6l55 100q6 10 21.5 47t29 56.5t29.5 19.5q147 0 426 -4q11 0 39 6q39 8 39 1q0 -4 -6 -11q-168 -188 -414 -496.5t-256 -386.5q-25 6 -56.5 5t-43.5 -3 t-21 2z" />
<glyph unicode="8" horiz-adv-x="718" d="M90 164q47 147 283 278q-43 29 -64.5 56.5t-31 71.5t11.5 100q31 104 130 177t199 73q92 0 136.5 -48.5t15.5 -140.5q-39 -117 -246 -242q76 -57 107 -109t2 -140q-37 -117 -142.5 -187.5t-224.5 -70.5q-92 0 -147.5 47t-28.5 135zM178 180q-23 -72 1 -116t93 -44 q80 0 144.5 46t91.5 124q25 82 -4 131.5t-101 100.5q-186 -119 -225 -242zM388 662.5q5 -29.5 11.5 -48t24.5 -40t33.5 -35t38.5 -29.5q68 43 131.5 107.5t81.5 121.5q20 66 -9.5 107t-93.5 41q-72 0 -129 -46t-80 -120q-14 -29 -9 -58.5z" />
<glyph unicode="9" horiz-adv-x="688" d="M92 51q29 63 49 146l37 16q-6 -6 -24 -70q-14 -55 18 -88q27 -25 82 -24q100 0 196.5 85t149.5 193q47 102 55 140q-25 -18 -69.5 -42t-55.5 -30q-45 -27 -139 -27q-127 0 -168 90t0 200t129 169q20 14 59.5 35.5t57.5 34.5q51 35 147 34q88 0 137.5 -39.5t56.5 -108.5 t-5 -140.5t-41 -153.5q-70 -199 -206 -339t-322 -140q-82 0 -132 24q-23 16 -12 35zM304 531.5q15 -91.5 112 -115.5q76 -20 146.5 19.5t109.5 117.5q51 92 37.5 182t-103.5 117q-80 25 -149.5 -11t-114.5 -124q-53 -94 -38 -185.5z" />
<glyph unicode=":" horiz-adv-x="315" d="M121 35q-2 2 15.5 16.5t39 26.5t23.5 12q47 -29 67 -24q16 2 18.5 -5.5t-14.5 -21.5q-53 -49 -75 -49q-35 2 -74 45zM268 547q-2 2 15.5 16.5t39 26.5t23.5 12q47 -29 68 -24q18 4 18 -6q1 -8 -14 -21q-59 -49 -78 -47q-33 0 -72 43z" />
<glyph unicode=";" horiz-adv-x="315" d="M76 -238l4 17q4 12 16 22q78 66 94 150q4 25 -10 45t-41 27l8 22q20 2 56 27l30 24q57 -8 39 -86q-31 -137 -168 -231q-29 -16 -28 -17zM295 547q-2 2 16.5 16.5t39 26.5t24.5 12q47 -29 67 -24q16 4 17 -6q1 -8 -13 -21q-59 -49 -77 -47q-35 0 -74 43z" />
<glyph unicode="&#x3c;" horiz-adv-x="600" d="M180 410l10 34q222 122 478 312q0 -27 -13 -47q-31 -39 -151.5 -124t-186.5 -124q-12 -8 -4 -17q104 -72 168 -137q106 -106 76 -139l-28 -27q-28 -27 -31 -35h-13q2 23 -26 62q-49 70 -128 137.5t-151 104.5z" />
<glyph unicode="=" horiz-adv-x="704" d="M125 256q-13 0 28 45q30 32 44 29q63 -8 229 -8q127 0 305 6q13 0 -28 -44q-30 -31 -44 -30q-127 10 -237 10q-201 0 -297 -8zM176 504q-13 -2 26 41q32 36 46 33q29 -4 229 -11q67 0 305 8q13 0 -28 -43q-30 -31 -43 -30q-129 10 -238 10q-201 0 -297 -8z" />
<glyph unicode="&#x3e;" horiz-adv-x="600" d="M129 168q-4 8 0 18.5t15.5 22.5t22.5 22.5t28.5 24.5t27.5 21.5t27 18.5l16 11q86 63 226 137q12 8 2 17q-49 39 -133.5 124t-98.5 124q-2 20 8 47q164 -183 344 -312l-4 -34q-209 -90 -381 -242q-45 -37 -53 -62h-12q0 8 -35 62z" />
<glyph unicode="?" horiz-adv-x="888" d="M207 33q-2 2 15.5 16t39 26.5t23.5 10.5q47 -29 67 -25q18 4 19 -5q1 -8 -15 -21q-59 -49 -75 -47q-39 2 -74 45zM317 360q-2 53 31 105.5t82 91.5l340 270q82 66 82 155t-78 122q-47 23 -120.5 12.5t-123.5 -45.5q-29 -20 -64.5 -80.5t-47.5 -111.5q0 -21 -25 -30 q-15 -5 -16 7v4q39 170 37 213q0 31 45 53q57 29 190 37l58 4q315 27 272 -215q-14 -76 -62.5 -133t-115 -92t-134 -66.5t-134 -76.5t-103.5 -101q-98 -150 -39 -217l-22 -30q-45 47 -52 124z" />
<glyph unicode="@" horiz-adv-x="1421" d="M37 381q2 160 71.5 296t184.5 225t260 137t301 46q150 -2 270.5 -39.5t199.5 -127t71 -216.5q-16 -231 -203.5 -344.5t-470.5 -113.5q-49 0 -49 41q0 66 80 196q-76 -82 -152 -143q-102 -90 -184 -90q-37 0 -37 43v16q14 115 95 245t179 206q74 53 154 53l235 -2 q10 0 11 -8q0 -16 -19 -17q-29 0 -73 -65q-53 -86 -117 -210t-66 -177q-3 -47 90 -40q137 11 259 113q151 126 151 314q0 164 -124 242.5t-304 76.5q-176 0 -337 -84t-263.5 -237.5t-104.5 -335.5q0 -166 115 -271.5t287 -105.5q340 0 543 217q41 42 55 13q16 -31 -24 -72 q-3 -3 -7 -6q-119 -106 -249 -144.5t-318 -38.5q-100 0 -187.5 22.5t-162 69t-117.5 127t-43 189.5zM481 340q0 -25 19 -25q59 0 211.5 182t152.5 248q0 39 -49 39q-53 0 -129 -71q-53 -49 -129 -181.5t-76 -191.5z" />
<glyph unicode="A" horiz-adv-x="1572" d="M43 96q2 37 39 115q14 28 24 29q5 1 5.5 -4.5t-2.5 -12.5q-27 -59 -26 -100q-1 -25 9 -42q26 -46 105 -46q244 0 718 442q-39 2 -136 7t-136 5q-156 0 -207 -51q-20 -20 -32 -59q-6 -21 -6 -39q0 -16 5 -31l-15 3q-15 3 -26.5 9.5t-15.5 20.5q2 16 -2 25.5t5 21.5 t12.5 19.5t16.5 16.5t20.5 14t22.5 13.5t23.5 11.5t24.5 10t23 9q152 66 284 66q84 0 209 -6q135 131 311 317q156 164 318 207h-113q-326 0 -436 -94q-49 -43 -61 -101q-3 -15 -3 -27q0 -35 25 -48q11 -7 -15 -17q-12 -5 -18 -2q-19 14 -35 58q-12 35 -13 59q0 6 1 12 q8 51 40 89t91.5 59.5t108.5 35t129 18.5t114.5 6t100.5 1h223q4 0 2 -2q150 68 205 68q24 0 32 -15q1 -2 1 -3q0 -6 -11 -9q-10 -2 -28.5 -2t-28.5 -2t-29.5 -13.5t-42.5 -35.5q-68 -68 -213 -323t-235 -455q-74 -174 -73 -248q0 -54 39 -54q7 0 15 2q10 2 21 7 q49 20 111 78q70 66 135 157q11 16 19.5 8t-3.5 -24l-14 -20q-14 -19 -22.5 -29.5t-27 -34t-32.5 -38.5t-35.5 -36.5t-40 -37t-41 -30t-43.5 -24.5q-33 -19 -71 -19q-20 -1 -40 5q-60 16 -73 82q-3 18 -3 39q0 93 66 237q86 182 216 419.5t194 321.5q-51 -2 -148.5 -57 t-173.5 -133q-47 -49 -161.5 -176t-163.5 -180q123 -4 188 -4h5q82 0 143 30q-4 -10 -11.5 -23.5t-38 -39t-67.5 -27.5q-76 -5 -158 -5q-61 0 -125 3q-508 -524 -813 -524q-66 0 -104 38q-32 31 -32 86q0 11 1 23z" />
<glyph unicode="B" horiz-adv-x="1150" d="M-3 -29q-1 1 -1 3q0 3 4 6q84 14 131 98q98 166 164 291l197 362q37 63 84 160.5t55 114.5q27 49 121 81q-30 2 -61 2q-121 1 -259 -25q-174 -32 -211 -101q-20 -34 -20 -70q1 -5 1 -11q4 -42 31 -61q9 -4 -3 -12q-9 -6 -15 -2q-18 10 -45 50t-33 67q-7 26 -7 49 q0 35 18 61q28 42 96.5 57t113.5 19t114 4h7q41 0 148.5 1t156.5 1q32 -1 65.5 -1t69.5 1h11q66 0 134 -22q74 -24 107 -72q26 -54 27 -107q0 -21 -5 -43q-15 -74 -65 -139q-41 -51 -98 -88q-68 -47 -151 -65q-4 0 -4.5 -6.5t4 -6.5t19.5 -2t32.5 -5t30.5 -5 q76 -16 121.5 -63.5t45.5 -120.5q0 -125 -92 -223.5t-221 -145.5q-98 -37 -225 -37q-186 0 -307 64q-31 17 -63 17q-29 0 -58 -15q-8 -4 -52 -31t-75 -37q-10 -2 -17 -2q-16 0 -21 10zM311 170q-11 -23 -11 -44q0 -45 50 -83q83 -48 175 -48h11q98 3 191 38q121 47 202 144 t81 224q0 80 -64 117q-55 32 -119 32q-10 0 -21 -1q-77 -6 -140 -14q-57 -10 -103 -23q-3 1 -3 4q0 12 56 56q3 2 5 3q23 23 38 23q88 0 141.5 6t110 27.5t94 67.5t64.5 122q22 51 22 100q1 35 -11 68q-26 80 -113 92q-18 2 -38 2q-33 0 -69 -6q-58 -10 -86 -43 q-37 -47 -77 -115.5t-66.5 -118.5t-68.5 -135t-58 -118q-127 -246 -193 -377z" />
<glyph unicode="C" horiz-adv-x="1079" d="M78 276q0 193 106.5 376.5t274.5 310.5q214 161 462 161h3q113 0 188 -37q90 -42 90 -108q0 -10 -2 -21q-6 -23 -40 -78t-44 -83q-4 -13 -31 -16q-7 2 -8 5q29 47 34 120q1 12 1 23q0 58 -22 99q-39 66 -153 66t-179 -33q-119 -43 -228 -135q-145 -129 -238 -308.5 t-93 -336.5q0 -123 64.5 -194t164.5 -85q54 -8 108 -8q46 0 94 6q102 12 197 49q223 86 359 254q16 19 20 5q1 -2 1 -4q0 -14 -17 -38q-129 -172 -346 -262q-80 -33 -178 -50q-72 -13 -147 -13q-27 0 -55 2q-104 6 -190 37.5t-141 107.5t-55 188z" />
<glyph unicode="D" horiz-adv-x="1282" d="M-4 -27l4 7q13 4 13 3t14 3q66 23 104 92q59 98 361 653l92 178q29 66 47 97q31 51 121 81h-50q-135 0 -289.5 -27.5t-191.5 -96.5q-20 -37 -20 -72q0 -25 9 -41t18.5 -23.5t9.5 -9.5q0 -12 -16.5 -12t-47.5 48t-37 70.5t-6 45.5q0 145 336 145q70 0 205 5t202 5 q84 0 153 -8t141.5 -31.5t121.5 -61.5t80 -105.5t31 -157.5q0 -209 -139 -418q-250 -375 -701 -375q-158 0 -278 62q-37 18 -62 18q-37 0 -104.5 -43t-96.5 -43q-25 0 -24 12zM299 123q0 -37 51 -80q61 -47 187 -47q227 0 408 130t269 343q62 156 62 279q0 158 -96.5 245.5 t-255.5 87.5q-109 0 -150 -47q-33 -37 -96 -147q-29 -49 -57.5 -105.5t-63.5 -128t-53 -106.5l-133 -260q-41 -78 -60 -117q-12 -29 -12 -47z" />
<glyph unicode="E" horiz-adv-x="978" d="M80 43q-11 16 -11 39q0 39 31 100q59 106 170 299t152 264q88 160 141 242q49 78 125 96q-263 -14 -358 -53q-65 -27 -86 -67q-20 -34 -20 -71v-10q3 -42 32 -61q8 -4 -4 -12q-8 -6 -14 -2q-18 10 -45 50t-33 67q-7 27 -7 50q1 36 17 60q28 42 97 57t114 19t114 4h7 q25 0 299 6q103 2 170 2q113 0 129 -6q52 -2 74 -22q18 -16 18 -38q0 -4 -1 -10q-5 -30 -18.5 -62t-32.5 -64q-8 -15 -12 -21q-15 -27 -35 -25q-9 1 -6 13q12 48 12 85q0 86 -65 105q-29 9 -110 9q-46 0 -109 -3q-82 -6 -110 -43q-63 -90 -250 -411q-8 -23 16 -23 q31 0 143 -2q56 -1 95 -1t63 1q121 10 154 27q19 12 17 -4q-3 -32 -46 -64q-27 -20 -53 -20q-66 0 -192 5q-70 3 -131 3q-49 0 -91 -2q-20 -2 -29 -17q-10 -20 -33.5 -64t-39.5 -75q-100 -195 -101 -264q0 -109 205 -113q428 0 629 256q9 13 14 -6q3 -12 -2 -18 q-8 -10 -47 -60.5t-53.5 -66t-44 -47t-52 -47t-45.5 -21.5q-74 -23 -253 -29q-43 -1 -86 -1q-137 0 -279 14q-104 10 -133 53z" />
<glyph unicode="F" horiz-adv-x="1191" d="M66 184v14v19q0 6 1 15.5t6 13.5t11 4q4 0 4 -4q0 -8 -1 -24.5t-1 -24.5q0 -94 46 -145.5t122 -51.5q127 0 264 147q49 53 121 183.5t179.5 352.5t123.5 255q51 98 182 152q-86 0 -239 -11q-319 -20 -387 -121q-19 -30 -19 -61q1 -16 5 -32q14 -48 57 -68q13 -7 -9 -17 q-11 -5 -18 -2q-27 14 -62.5 57.5t-45.5 71.5q-10 29 -10 53q0 39 26 69q43 48 144.5 66.5t168 22.5t160.5 4q520 0 618 -6q43 -2 65 -18q20 -15 26 -32q2 -6 2 -13q0 -15 -6 -36q-10 -32 -20.5 -51.5t-29.5 -51.5q-6 -11 -8 -15q-10 -23 -32 -25q-12 -1 -9 13q13 50 13 88 q0 82 -64 102q-39 16 -104 16q-29 1 -64 -3q-111 -10 -162 -50q-18 -14 -36.5 -35.5t-39 -54t-36 -58.5t-37 -70t-31.5 -66.5t-32.5 -69.5t-26.5 -57q-8 -23 16.5 -23t134 -1t154.5 -1q66 0 87 -12t1 -53q-10 -20 -31.5 -54t-28.5 -51q-5 -15 -26 -17q-3 3 -4 5q27 62 27 94 q0 33 -29 33h-320q-18 0 -28 -17q-8 -16 -47 -95t-56.5 -111.5t-51.5 -94t-65.5 -104.5t-66.5 -80q-119 -125 -258 -125q-68 0 -124 38t-83 108q-16 39 -16 116z" />
<glyph unicode="G" horiz-adv-x="1179" d="M66 -423q0 7 2 12t4 10.5t7 7.5t11 2q4 0 4 -4q0 -8 -2 -24.5t-2 -26.5q0 -92 58.5 -142.5t152.5 -50.5q246 0 434 238q41 51 78 106t61.5 98t53 107.5t42 98.5t43 112t42.5 106q-82 -121 -244 -207t-313 -86h-8q-171 0 -290 88q-122 89 -122 254q0 193 106.5 376.5 t274.5 310.5q214 161 462 161h3q113 0 188 -37q90 -42 90 -108q0 -10 -2 -21q-6 -23 -40 -78t-44 -83q-4 -13 -31 -16q-7 2 -8 5q29 47 34 120q1 12 1 23q0 58 -22 99q-39 66 -153 66t-179 -33q-119 -43 -228 -135q-145 -129 -238 -308.5t-93 -336.5q0 -154 85 -231t214 -77 h6q232 0 394 154q165 156 245 393h-211q-262 0 -262 -120v-9q0 -25 10 -45l-18 -12q-55 92 -56 104q-1 9 -1 17q0 48 30 73q23 18 69 27.5t84.5 9.5t95 -3t68.5 -3h389l-22 -24q-84 0 -121 -48q-12 -16 -22.5 -33.5t-20.5 -39t-17.5 -35.5t-16.5 -43t-12 -40t-14.5 -45 t-13.5 -44q-12 -43 -38.5 -142.5t-41 -146.5t-45 -130t-60.5 -136t-78 -115.5t-107 -114.5q-68 -57 -166.5 -96t-179.5 -39q-86 0 -166 36t-113 106q-20 39 -20 114v9v13v12z" />
<glyph unicode="H" horiz-adv-x="1576" d="M10 221v15v18q0 6 1 15.5t6.5 13.5t11.5 4q4 0 4 -4q0 -8 -1 -24.5t-1 -25.5q0 -94 46 -144t122 -50q129 0 264 145q68 74 188 310q-178 -4 -268 -19q-19 -3 -8 13q27 37 90 68q17 8 29 9l190 -6q35 66 166 326q33 68 93.5 127t123.5 71q-35 -2 -108.5 -3t-118.5 -3 t-106.5 -9t-110.5 -21q-109 -29 -138 -84q-17 -34 -17 -68q0 -7 1 -14q4 -41 29 -60q7 -5 -4 -13q-8 -5 -15 -1q-18 10 -44.5 50t-33.5 67t-7 50q0 36 16 60q28 42 98 57t115 19t113 4h7q385 0 437 8q18 4 21 -3t-4 -16t-13 -9q-123 -12 -219 -183q-72 -129 -189 -356 q20 0 44 -1t36 -2t14 -1h301q90 0 146 24q217 414 299 519q12 4 71.5 32.5t100.5 42t74 13.5q24 0 32 -15q1 -2 1 -4q0 -6 -11 -8q-10 -2 -28.5 -2t-28.5 -2t-30.5 -13.5t-43.5 -35.5q-88 -88 -281.5 -447.5t-224.5 -486.5q-8 -36 -8 -63q0 -85 78 -85q53 0 127 39 q96 55 229 232q14 19 15 -4q1 -14 -7 -25q-125 -180 -249 -248q-57 -31 -144 -34h-9q-78 0 -123 66q-29 42 -29 91q0 32 12 66q37 96 155 329q-49 -45 -94 -45h-4q-84 8 -352 9h-99q-160 -319 -245 -412q-119 -125 -267 -125q-66 0 -123 38t-83 107q-16 39 -17 117z" />
<glyph unicode="I" horiz-adv-x="747" d="M20 240q0 27 10 29q8 1 12 -11q1 -3 1 -6q0 -94 46 -144.5t122 -50.5q129 0 264 146q35 37 66.5 79t54 71.5t54.5 85t44.5 76t46 89t38.5 78.5t43 92t40 86q66 137 164 203h-61q-45 0 -88 -4t-104.5 -17.5t-96.5 -49.5q-31 -32 -32 -77q0 -5 1 -10q4 -35 25 -78l-21 -16 q-80 139 -82 154q-1 9 -1 18q0 60 36 92q27 23 83 33q51 9 96 9h9q48 -1 115.5 -4t83.5 -3l328 2l-27 -31q-63 0 -137 -14q-53 -8 -115.5 -56t-105.5 -120l-19 -31q-14 -33 -67 -162t-90 -213t-102.5 -194.5t-129.5 -177.5q-51 -57 -130 -95t-148 -38q-68 0 -124 37.5 t-83 107.5q-18 45 -19 115z" />
<glyph unicode="J" horiz-adv-x="415" d="M-455 -80q0 30 10.5 29t10.5 -17q0 -94 47 -144t123 -50q127 0 262 145q174 190 317 516q8 18 77 188.5t110 256.5q56 124 83 155q40 44 138 82q-23 -2 -59.5 -5t-47.5 -3q-319 -8 -383 -100q-18 -28 -18 -61q0 -19 6 -40q17 -55 60 -75q14 -6 -5 -16q-11 -6 -20 -3 q-27 14 -64.5 58.5t-46.5 70.5q-10 29 -10 53q0 39 25 67q39 46 136 63.5t160.5 21.5t161.5 4h9h221h2q4 0 4 -2q0 -4 -15 -17q-13 -11 -18 -12q-119 -6 -229 -231q-53 -104 -205 -455q-8 -20 -36.5 -87.5t-38 -88t-35 -76t-39 -80t-38 -69.5t-45 -72.5t-48 -63.5t-58.5 -69 q-53 -57 -132 -96t-148 -39q-66 0 -122.5 38t-84.5 109q-16 39 -17 115z" />
<glyph unicode="K" horiz-adv-x="1146" d="M-2 -33q80 66 143 168l29 49q137 229 389 686q98 172 240 211q-178 -4 -282.5 -27.5t-141.5 -90.5q-15 -34 -15 -68q0 -8 1 -15q4 -42 28 -59q7 -5 -4 -13q-8 -5 -14 -1q-18 10 -45 50t-33 67q-7 27 -7 50q0 36 16 60q28 42 97.5 57t114.5 19t114 4h7q201 0 252 8 q5 1 10 1q19 0 22 -20q0 -22 -18 -22q-13 3 -26 3q-90 0 -185 -164q-131 -221 -203 -355q-147 -274 -245 -471q-4 -8 -15.5 -36.5t-21.5 -41t-23 -10.5q-21 5 -41 5q-15 0 -30 -3q-43 -8 -91 -49q-4 -4 -9 -4t-12 5q-3 2 -3 4t2 3zM467 520q176 162 479 350 q18 12 103.5 65.5t145.5 87.5t118 58q68 29 131 29t112 -20q24 -8 48 -28q22 -18 22 -38q0 -12 -8 -12q-4 0 -29.5 24.5t-64.5 24.5q-63 0 -195 -53q-219 -94 -342 -162q-172 -94 -440 -289q25 -68 84 -176.5t143 -208.5q52 -66 108 -90q44 -19 80 -20q10 0 19 2 q43 6 93 43.5t83 74.5t76 94q16 23 21 7q4 -12 -9 -29q-106 -147 -190 -216q-70 -58 -147 -58q-14 0 -30 2q-94 14 -186 135q-59 78 -106 163t-82 160.5t-37 79.5z" />
<glyph unicode="L" horiz-adv-x="1120" d="M7 -7q-2 7 -2 14q0 22 22 33q6 3 14 3q80 4 151.5 71.5t102.5 141.5l188 471q35 88 66 145.5t80 120t116.5 94t155.5 31.5q91 0 157 -34q53 -28 53 -80q0 -13 -3 -27q-4 -20 -37 -67.5t-45 -80.5q-6 -20 -22 -13q-9 4 -3 18q29 43 35 103q1 11 1 21q-1 48 -23 88 q-28 50 -86 50q-131 0 -205 -138l-379 -698q-88 -160 -170 -192h383h54h57h56q34 0 54.5 1t48 3t46 4t36 6t28.5 10t15 12q22 32 22 61q0 10 -3 19q-10 37 -53 58q-14 7 -2 16q6 4 14 0q25 -12 67.5 -64.5t53.5 -80.5q7 -20 7 -37q0 -31 -24 -52q-37 -32 -123 -32 q-135 0 -413.5 19.5t-331.5 21.5q-9 1 -18 1q-80 0 -132 -48q-2 -2 -3 -2q-4 0 -6 9z" />
<glyph unicode="M" horiz-adv-x="1699" d="M12 240q0 27 10 29q8 1 12 -11q1 -3 1 -6q0 -94 46 -144.5t122 -50.5q131 0 262 146q31 33 58.5 66.5t54 72.5t45 66.5t45 74.5t39 68.5t39 77t34.5 73t38 81t36 77.5q76 164 213 205l2 2h-113q-326 0 -389 -94q-18 -29 -19 -62q0 -19 6 -39q16 -56 60 -75q14 -6 -4 -16 q-11 -6 -20 -3q-27 14 -65 58.5t-46 70.5q-10 29 -10 54q0 38 24 66q39 46 136.5 63.5t161 21.5t160.5 4h10h221q16 2 -9 -19q-13 -11 -18 -12q-98 -22 -98 -176v-18q10 -430 16 -600v-12l711 749q82 86 144 129q55 38 112 38q8 0 16 -1q5 0 5 -3q0 -4 -10 -14 q-9 -9 -17 -10h-2q-85 0 -174 -143q-121 -199 -266 -518q-143 -316 -143 -425q0 -58 41 -59q4 0 8 1q12 2 26 8q63 27 118 78q25 23 51.5 53.5t43 50.5t32 40.5t17.5 22.5q12 17 17 2q4 -13 -7 -28q-4 -4 -22.5 -28.5t-34 -43t-41 -48.5t-49 -52.5t-53 -44t-58.5 -33.5 q-33 -19 -72 -19q-20 -1 -42 5q-64 16 -78 82q-3 17 -3 37.5t3 42.5q6 45 30.5 107t37.5 95t49 106.5t38 78.5q102 217 162 315l-590 -623q-6 -39 -53 -57q-20 -8 -72 -70q-2 -2 -8 -2t-11 4t-3 7q53 68 55 186l2 49q10 229 10 547q0 90 49 149q-82 -61 -122 -145 q-16 -33 -89 -214t-150 -327.5t-165 -240.5q-51 -55 -131 -94t-147.5 -39t-124 37.5t-82.5 107.5q-18 45 -19 115z" />
<glyph unicode="N" horiz-adv-x="1476" d="M12 240q0 30 10.5 29t10.5 -17q0 -96 52 -159.5t128 -63.5q147 0 272 131q53 57 97.5 120.5t85.5 147.5t62.5 132t66.5 158.5t57 141.5q33 80 88 137.5t127 69.5h-113q-326 0 -391 -94q-18 -28 -18 -60q1 -19 7 -41q18 -56 60 -75q12 -6 -5 -16q-11 -6 -19 -3 q-27 14 -65 58.5t-46 70.5q-10 29 -10 54q0 38 24 66q39 46 136.5 63.5t160 21.5t159.5 4h9h248q18 2 -16 -40q-18 -23 -27 -21h-9q-22 1 -54 -7q-40 -10 -58 -22q12 -150 83 -394.5t155 -455.5q25 61 121 325.5t180 451t156 253.5q31 28 78 42q24 7 45 7q18 1 36 -5 q34 -12 33 -50l-2 -74l-18 -5q2 24 -18.5 37t-39.5 13h-3q-46 -1 -104 -71q-60 -72 -127 -208t-112 -239.5t-105.5 -258t-68.5 -173.5q-20 -46 -20 -84q0 -13 2 -24q0 -6 4 -19.5t4 -19.5q6 -23 -14 -39q-20 -14 -45 -25q-14 -6 -39 -30.5t-33 -36.5q-4 -5 -9 -5t-12 6 q-3 3 -2 5q23 31 41 84q-18 100 -53 229t-61.5 219t-76.5 246t-69 215q-20 -14 -51 -106q-2 -6 -27.5 -75t-35 -91.5t-37 -90t-43 -101.5t-45 -94t-54 -100t-56.5 -87t-62 -84q-45 -55 -136.5 -94t-162.5 -39q-66 0 -123.5 36.5t-85.5 108.5q-16 47 -17 115z" />
<glyph unicode="O" horiz-adv-x="1216" d="M14 299q0 88 33 194.5t103.5 220t167 207t237.5 154t301 60.5q244 0 357.5 -79t113.5 -245q0 -213 -114.5 -406.5t-312.5 -311.5t-425 -118q-461 0 -461 324zM123 281q0 -274 336 -275q201 0 378 127t275 316.5t98 379.5q0 274 -350 275q-174 0 -349 -139.5t-281.5 -332 t-106.5 -351.5z" />
<glyph unicode="P" horiz-adv-x="1107" d="M3 -29q-1 1 -1 3q0 3 4 6q84 14 131 98q92 156 166 291q63 121 195 362q29 49 57.5 106.5t51 105.5t30.5 63q27 49 121 81q-30 2 -61 2q-121 1 -259 -25q-174 -32 -211 -101q-20 -34 -20 -70q1 -5 1 -11q4 -42 32 -61q11 -4 -5 -13q-7 -4 -12 -1q-18 10 -44.5 50 t-35.5 67q-7 26 -7 49q0 35 18 61q28 42 96.5 57t115 19t114.5 4h7q41 0 147.5 1t156.5 1q32 -1 65.5 -1t69.5 1h11q66 0 134 -22q74 -24 107 -72q44 -68 44 -135q0 -35 -12 -69q-36 -100 -117 -175.5t-178 -112.5q-81 -31 -193 -41q-62 -6 -111 -6q-39 0 -68 4q-16 2 13 28 q16 14 26 13q27 -5 59 -5q34 -1 73 5q77 10 147.5 32t134 83.5t96.5 153.5q19 50 19 98q0 45 -17 87q-35 87 -121 99q-18 2 -38 2q-33 0 -69 -6q-58 -10 -86 -43q-37 -47 -76.5 -115.5t-66.5 -118.5t-69 -135t-58 -118q-4 -8 -24.5 -46t-41 -75t-47 -88t-47 -96t-39 -87 t-25.5 -74t-1 -44q9 -19 -25 -6q-4 0 -12 3t-13.5 4t-14.5 2t-16 1t-16.5 -3t-19.5 -7q-8 -4 -51 -31t-76 -37q-10 -2 -17 -2q-16 0 -21 10z" />
<glyph unicode="Q" horiz-adv-x="1226" d="M14 299q0 88 33 194.5t103.5 220t167 207t237.5 154t301 60.5q244 0 357.5 -79t113.5 -245q0 -276 -187.5 -508.5t-467.5 -302.5q57 -119 266 -408q47 -63 114 -76q20 -3 39 -3q46 0 89 20q63 29 107 59.5t67 55.5q6 6 12 5t8 -7v-4q0 -5 -4 -11q-35 -41 -99.5 -85 t-142.5 -76q-55 -23 -110 -23q-24 0 -48 4q-79 14 -124 88q-170 274 -262 443q-51 -6 -109 -7q-461 0 -461 324zM123 281q0 -274 336 -275q201 0 378 127t275 316.5t98 379.5q0 274 -350 275q-174 0 -349 -139.5t-281.5 -332t-106.5 -351.5z" />
<glyph unicode="R" horiz-adv-x="1232" d="M3 -29q-1 1 -1 3q0 3 4 6q84 14 131 98q92 156 166 291q63 121 195 362q29 49 57.5 106.5t51 105.5t30.5 63q27 49 121 81q-30 2 -61 2q-121 1 -259 -25q-174 -32 -211 -101q-20 -34 -20 -70q1 -5 1 -11q4 -42 32 -61q11 -4 -5 -13q-7 -4 -12 -1q-18 10 -44.5 50 t-35.5 67q-7 26 -7 49q0 35 18 61q28 42 96.5 57t115 19t114.5 4h7q41 0 147.5 1t156.5 1q32 -1 65.5 -1t69.5 1h11q66 0 134 -22q74 -24 107 -72q33 -57 33 -129q1 -17 -1 -35q-10 -94 -57 -156q-43 -55 -102 -98q-74 -53 -193 -81.5t-231 -35.5q84 -186 213 -346 q77 -94 168 -93q139 0 307 222q16 24 16 -2q0 -16 -12 -32q-80 -111 -146.5 -175.5t-136.5 -95.5q-35 -15 -69.5 -15t-69.5 15q-70 31 -139 121q-59 80 -106.5 164t-82 159.5t-37.5 79.5q39 53 62 54h27q91 0 134.5 2t107 14t97 38t70.5 76t62 124q19 50 19 98q0 45 -17 87 q-35 87 -121 99q-18 2 -38 2q-33 0 -69 -6q-58 -10 -86 -43q-37 -47 -76.5 -115.5t-66.5 -118.5t-69 -135t-58 -118q-4 -8 -24.5 -46t-41 -75t-47 -88t-47 -96t-39 -87t-25.5 -74t-1 -44q9 -19 -25 -6q-4 0 -12 3t-13.5 4t-14.5 2t-16 1t-16.5 -3t-19.5 -7q-8 -4 -51 -31 t-76 -37q-10 -2 -17 -2q-16 0 -21 10z" />
<glyph unicode="S" horiz-adv-x="923" d="M82 154q-5 23 -5 47q-1 49 19 99q28 76 80 114q2 2 8 -3t7.5 -10.5t-3.5 -9.5q-39 -45 -39 -102q-1 -9 1 -19q8 -68 47 -127q47 -66 131 -108.5t170 -46.5q11 -1 21 -1q145 -1 213 107q41 64 41 141q0 60 -25 127q-25 70 -102 198t-85 142q-41 78 -41 151q0 81 51 153 q45 63 121 102t158 43h16q126 0 207 -88q10 -17 10 -45v-10q-2 -35 -14 -56q-53 -78 -68 -129q-29 -18 -38 -6q36 72 36 134v9v8v14v14q0 10 -2 16t-5 14t-8 14.5t-13 12.5q-59 55 -158 55q-135 0 -197 -94q-36 -55 -36 -112q0 -40 18 -81q29 -70 138.5 -205t142.5 -217 q21 -57 21 -109q0 -40 -12 -77q-28 -86 -95.5 -148.5t-158.5 -98.5t-181 -36q-127 0 -235.5 55.5t-135.5 168.5z" />
<glyph unicode="T" horiz-adv-x="884" d="M37 905q-13 34 -13 62q0 38 22 67q38 51 112.5 68.5t158.5 25.5q37 4 69 4q42 0 79 -6q29 -2 128 -8t155 -10l325 -27q143 -13 242 -13q182 0 217 44q2 4 7 4t8 -3q2 -2 2 -4q0 -1 -1 -3q-6 -25 -16 -37q-10 -20 -17.5 -31.5t-23.5 -27t-39 -19.5q-15 -3 -45 -3 q-77 0 -252 22q-43 -8 -81 -35t-69.5 -77t-48 -78.5t-43.5 -88.5q-31 -66 -75.5 -173t-71.5 -165q-117 -254 -205 -350q-117 -123 -258 -123q-68 0 -124 38t-83 108q-18 45 -18 114q0 68 20 68q4 0 4 -4q0 -8 -1 -25.5t-1 -25.5q0 -94 46.5 -144.5t121.5 -50.5 q129 0 264 145q53 59 110.5 164t93.5 189t88.5 216t72.5 179q37 84 184 127l-53 6l-289 29q-85 4 -201 9q-18 1 -37 1q-99 -1 -206 -23q-127 -26 -168 -88q-17 -27 -18 -57q1 -17 7 -35q16 -49 60 -72q12 -8 -5 -16q-11 -5 -19 0q-27 14 -66 59.5t-49 73.5z" />
<glyph unicode="U" horiz-adv-x="1251" d="M16 965q-2 13 -2 25q0 54 37 85q27 23 83 33q51 9 95 9h9q48 -1 115 -4t85 -3q289 2 471 2l-26 -31q-100 0 -146 -57q-115 -150 -261 -461t-165 -465q-1 -6 0 -11q-1 -47 47 -57q14 -3 28 -3q40 0 79 24q111 55 230.5 180t213.5 256q166 238 291 512q4 6 15.5 36 t21.5 42.5t25 9.5q20 -5 40 -5q15 0 31 3q41 6 88 50q5 4 10 4q7 0 14 -6q3 -2 3 -4t-2 -3q-72 -57 -143 -168q-305 -463 -377 -686q-29 -93 -30 -153q0 -107 95 -106q18 0 39 3q68 10 184 127q63 57 146 162q4 -8 4 -16q-2 -25 -27 -53q-41 -53 -106 -123 q-59 -59 -143 -115q-78 -52 -141 -51h-9q-74 4 -104 48q-22 33 -22 82q0 17 3 35q10 72 29.5 135.5t51.5 141.5q1 7 3 8q-57 -68 -184 -190q-141 -137 -203 -182q-112 -78 -214 -78h-5q-63 -1 -89 27q-23 25 -23 55v7q3 34 24 85q45 113 119 254q6 12 40.5 78.5t51 100.5 t49.5 101.5t50 112.5t38.5 103.5t31 105.5t9.5 86h-180q-45 0 -88 -4t-104.5 -17.5t-97.5 -49.5q-32 -32 -33 -77q0 -5 1 -10q4 -49 27 -78l-23 -16q-2 4 -28.5 47t-39 67.5t-12.5 39.5z" />
<glyph unicode="V" horiz-adv-x="1101" d="M29 965q-1 10 -1 19q0 61 35 91q27 23 83 33q51 9 95 9h9q47 -1 114.5 -4t86.5 -3q289 2 471 2l-43 -53h-144q50 -94 50 -360q0 -61 -3 -132q-10 -223 -84 -487q92 131 153.5 214t177.5 227.5t244 275.5t263 243q78 66 190 124q100 51 180 50h19q33 -2 54.5 -12t27.5 -28 q7 -21 7 -38q0 -16 -7 -40q-8 -26 -15 -43t-19.5 -41.5t-16.5 -34.5q-6 -12 -27 -8q-5 4 -6 6q16 55 16 94q0 75 -61 84q-10 1 -20 1q-107 0 -291 -150q-303 -242 -623 -648q-184 -231 -272 -383q-2 -4 -6 -18t-9 -18q-8 -8 -43.5 -22.5t-46.5 -14.5q-18 0 -27.5 5t-7.5 21 q0 8 15 37l35 115q70 268 92 448q31 261 31 405q0 85 -11 130q-45 0 -135 1t-133 1q-45 0 -88 -4t-104.5 -17.5t-97.5 -49.5q-32 -32 -33 -77q0 -5 1 -10q4 -49 27 -78l-22 -16q-2 4 -29 47t-39 67.5t-12 39.5z" />
<glyph unicode="W" horiz-adv-x="1826" d="M29 965q-1 10 -1 19q0 61 35 91q27 23 83 33q51 9 95 9h9q47 -1 114.5 -4t86.5 -3q289 2 471 2l-43 -53q-41 0 -122 1t-122 1q75 -51 113 -153q35 -94 36 -174q0 -6 -1 -13q-2 -52 -2 -97q0 -30 1 -57q-10 -223 -84 -487q23 33 138.5 205t221 312t220.5 261 q76 80 117 119t121 82q70 38 136 38q9 0 19 -1q53 -4 80 -21l-12 -22q-17 4 -35 4q-44 0 -97 -24q-75 -34 -122 -81q-72 -72 -113 -195.5t-50 -235t-20.5 -244t-29.5 -197.5q444 629 842 960q80 68 190 124q97 50 176 50h19q33 -2 54 -12t27 -28q8 -20 8 -38q0 -16 -8 -40 q-8 -26 -15 -43t-19.5 -41.5t-16.5 -34.5q-6 -12 -27 -8q-5 4 -5 6q16 55 16 93q0 75 -62 85q-11 1 -23 1q-52 0 -108 -28q-70 -36 -174 -122q-319 -254 -628 -648q-184 -231 -273 -383q-2 -4 -6 -18t-8 -18q-8 -8 -44 -22.5t-46 -14.5q-18 0 -27.5 5t-7.5 21q0 8 14 37 l35 115q25 88 40 246.5t43 289.5t87 222q-12 -6 -26.5 -19.5t-33 -34t-36 -41t-45 -54.5t-47 -58.5t-55 -69.5t-58.5 -74q-139 -178 -332 -512q-2 -4 -6 -18t-8 -18q-6 -6 -53 -21.5t-58 -15.5q-18 0 -27.5 5t-7.5 21q0 8 15 37l35 115q70 268 92 448q4 74 8 165q1 12 1 25 q-1 82 -23 176q-26 110 -78 171h-156q-45 0 -88 -4t-104.5 -17.5t-97.5 -49.5q-32 -32 -33 -77q0 -5 1 -10q4 -49 27 -78l-22 -16q-2 4 -29 47t-39 67.5t-12 39.5z" />
<glyph unicode="X" horiz-adv-x="1110" d="M-227 0q2 43 37 123q15 36 24 33q7 -2 2 -17q-22 -59 -22 -97q0 -28 12 -45q21 -29 66 -29q18 0 40 5q129 27 294 166.5t374 364.5q-4 23 -22 135q-19 145 -19 244q0 129 33 178q-55 2 -166 2q-45 0 -88 -4t-104.5 -17.5t-97.5 -49.5q-32 -32 -33 -77q0 -5 1 -10 q4 -49 27 -78l-22 -16q-2 4 -29 47t-39 67.5t-12 39.5q-1 10 -1 19q0 61 35 91q27 23 83 33q51 9 95 9h9q47 -1 114.5 -4t86.5 -3q289 2 471 2l-43 -53q-43 0 -130 1t-131 1q-2 -25 -1 -52q0 -161 59 -421q414 420 600 522q94 49 171 49q16 0 30 -2q39 -6 59 -22.5t26 -34.5 q3 -9 4 -20q0 -12 -4 -26q-6 -28 -13 -46.5t-22.5 -48t-19.5 -39.5q-5 -11 -23 -9q-8 1 -5 7q13 51 13 88q0 80 -62 90q-11 1 -22 1q-54 0 -116 -32q-160 -78 -602 -508l-6 -12q23 -86 78 -234.5t102 -214.5q23 -31 50.5 -40t59.5 7.5t57.5 34t62 58.5t54 62.5t50.5 62.5 q19 23 20 3q1 -25 -22 -53q-53 -68 -108 -119q-54 -52 -116 -90q-54 -33 -104 -33q-8 0 -15 1q-56 6 -97 61q-82 113 -146 410q-27 -29 -99.5 -108t-104 -112.5t-95 -97t-103.5 -95.5t-93.5 -71.5t-101.5 -61t-95 -32.5q-20 -4 -38 -4q-42 1 -70 21q-38 27 -37 93v7z" />
<glyph unicode="Y" horiz-adv-x="925" d="M16 182q0 30 10.5 29t10.5 -18q0 -92 47 -143.5t123 -51.5q209 0 430 317q-25 -14 -41 -14q-10 0 -16.5 3t-4.5 13q0 2 2.5 6.5t4.5 9.5t2 7l22 70q27 100 42 212q7 59 7 125q0 57 -5 118q-13 132 -70 198h-50q-45 0 -88 -4t-104.5 -17.5t-95.5 -49.5q-31 -32 -31 -77 v-10q4 -35 25 -78l-21 -16q-80 139 -82 154q-1 9 -1 18q0 61 36 92q27 23 83 33q51 9 95 9h9q48 -1 116 -4t84 -3q145 2 328 2l-43 -53q-72 0 -224 4q84 -55 111 -184q18 -88 18 -170q0 -38 -3 -74q-13 -115 -44 -221q14 20 154.5 231t226.5 309q53 61 87 96t102 80 q63 41 116 41h7q54 -4 79 -55q8 -16 10 -34q1 -7 1 -13q0 -12 -3 -25q-5 -18 -8.5 -28t-11.5 -28l-8 -17q-4 -11 -13 -7q-4 2 -3 7q5 19 5 38q0 29 -13 55q-19 42 -64 44h-2q-98 0 -256 -182q-100 -117 -189.5 -246t-132.5 -200.5t-151 -260.5q-78 -137 -171 -218t-220 -81 q-66 0 -122.5 37t-84.5 109q-16 39 -17 116z" />
<glyph unicode="Z" horiz-adv-x="927" d="M-52 -21q3 8 9 17q186 299 1135 1063q-258 4 -387 4q-45 0 -88.5 -4t-104.5 -17.5t-96 -49.5q-31 -32 -32 -77q0 -5 1 -10q4 -35 25 -78l-21 -16q-2 4 -28.5 47t-39 67.5t-12.5 39.5q-2 13 -2 25q0 54 37 85q27 23 84 34t107.5 11t118 -2t85.5 -2h478q2 -2 2 -9 t-4.5 -18.5t-8.5 -13.5q-528 -381 -989 -878q88 45 167 55q32 4 61 4q41 0 77 -8q60 -14 128.5 -67.5t118.5 -107t128 -149.5q135 -162 260 -266q123 -102 202 -102h3q102 2 122 80q5 20 6 41q0 58 -42 120q-23 35 -55 70q-2 4 10 13t16 7q51 -32 80 -69q43 -59 43 -119 q0 -53 -32 -105q-70 -112 -199 -114q-53 0 -110.5 24.5t-102.5 56t-104.5 89t-91.5 93.5t-86 100.5t-71 82.5q-12 14 -44.5 53t-46 53.5t-42 45.5t-44 44t-43 32.5t-48 27.5t-48.5 14.5t-56 6.5q-98 0 -184.5 -57.5t-112.5 -147.5q-16 -68 -33 -88q-17 -23 -40 -23 q-14 0 -31 9q-32 17 -32 49q0 15 8 34z" />
<glyph unicode="[" horiz-adv-x="741" d="M18 -213q20 43 260 571.5t361 774.5l117 75q53 10 110.5 11.5t143.5 -3t139 -4.5l-96 -73q-104 25 -203 16q-27 -2 -56.5 -19.5t-41.5 -41.5q-78 -139 -218.5 -420t-268.5 -542t-136 -279q369 -6 492 6l-111 -64q-84 -8 -492 -8z" />
<glyph unicode="\" horiz-adv-x="1019" d="M2 1221q-5 5 61 21q60 14 66 7q63 -76 156.5 -202.5t218.5 -306t196.5 -286t206.5 -305t135 -200.5q7 -10 -13 -15q-39 -8 -54 9q-53 68 -436 582.5t-537 695.5z" />
<glyph unicode="]" horiz-adv-x="813" d="M-113 -213l99 74q104 -23 202 -17q25 2 54.5 19.5t44.5 42.5q100 178 620 1241q-422 0 -489 -6l108 63q84 8 492 8q-18 -41 -259 -571t-362 -774l-116 -76q-53 -10 -110.5 -11t-143.5 3t-140 4z" />
<glyph unicode="^" horiz-adv-x="641" d="M174 532q2 14 117 94.5t137 84.5l10 -4q57 -63 197 -170l8 -15l-10 -12q-35 2 -121 55t-115 84q-193 -133 -213 -133q-4 0 -8 6t-2 10z" />
<glyph unicode="_" horiz-adv-x="1732" />
<glyph unicode="`" horiz-adv-x="456" d="M101.5 880.5q-1.5 28.5 4.5 28.5q18 0 111 -80q84 -74 158 -129q-1 -1 2 -14q-25 4 -141.5 73t-126.5 87q-6 6 -7.5 34.5z" />
<glyph unicode="a" d="M6 41q0 10 2 14q14 117 94 246t179 205q70 53 153 53h236q10 0 10 -8q0 -16 -18 -16q-29 0 -72 -68q-43 -66 -113.5 -204t-70.5 -181q0 -29 28 -29q12 0 27.5 6.5t34 18.5t32.5 24t36 34l34 34q12 12 34.5 39t30 35t27.5 34l21 25q4 -4 4 -10q0 -18 -29 -57 q-182 -242 -338 -242q-49 0 -49 39q0 72 80 196q-72 -76 -150 -143q-106 -90 -186 -90q-37 0 -37 45zM111 90q0 -24 15 -24h1q59 0 212 181t153 247q0 38 -46 38h-2q-57 0 -131 -69q-53 -49 -127.5 -181t-74.5 -192z" />
<glyph unicode="b" horiz-adv-x="550" d="M55 37q0 25 19 65q33 90 90 222q-18 -20 -48 -53t-36 -42q-13 -19 -14.5 0.5t10.5 32.5q20 27 67 82t70 82q201 422 432 649q182 178 318 178q33 0 57 -17t27 -50v-60q0 -8 -13 -8q-6 0 -6 4q0 55 -86 56q-78 0 -148.5 -30t-129 -87t-104.5 -118.5t-91 -151t-73.5 -153 t-66.5 -154.5t-57 -132q-2 -8 2 -8l22 22q22 22 56.5 53.5t74.5 63t84 53t77 21.5q35 0 35 -49v-19q-25 -170 -165.5 -338.5t-301.5 -168.5q-100 0 -101 55zM143 57q0 -41 45 -41q57 0 129 72q53 49 129 180.5t76 192.5q0 26 -17 26h-1q-31 0 -100.5 -65.5t-112.5 -116.5 q-147 -168 -148 -248z" />
<glyph unicode="c" horiz-adv-x="487" d="M22 118q16 62 44 115.5t65 106.5q72 102 174 162q107 67 182 67h2q41 0 62.5 -17t21.5 -45t-6 -55.5t-20 -54.5q-10 -22 -27 -20q-6 1 -4 10q4 16 4 32q0 31 -12 65q-18 52 -57 51q-33 0 -76 -24t-64 -46q-125 -129 -176 -293q-13 -53 -13 -85q0 -36 28 -45q26 -9 56 -5 t73 18q82 27 175 103.5t140 142.5q4 -4 4 -10q0 -15 -20 -47q-70 -96 -190 -177t-226 -83h-9q-81 0 -113 36q-23 25 -23 61q0 17 5 37z" />
<glyph unicode="d" d="M6 41q0 10 2 14q14 115 95 246t178 205q20 16 41.5 26.5t36 15.5t43 8t38.5 3h46h46q33 55 105 191.5t102 187.5q186 315 412 315q29 0 50.5 -16t19.5 -45l-4 -74q0 -8 -11 -8q-2 0 -6 4q-8 48 -62 68q-25 9 -52 10q-31 0 -64 -12q-98 -35 -219 -248q-117 -209 -244 -490 q-2 -2 -49 -100t-75.5 -167t-28.5 -93q0 -29 24 -29q45 0 140.5 93.5t140.5 156.5q4 -4 4 -12q0 -19 -29 -55q-182 -242 -338 -242q-49 0 -49 39q0 72 80 196q-72 -76 -150 -143q-111 -90 -186 -90q-37 0 -37 45zM111 90q0 -24 15 -24h1q59 0 212 181t153 247q0 38 -46 38 h-2q-57 0 -131 -69q-53 -49 -127.5 -181t-74.5 -192z" />
<glyph unicode="e" horiz-adv-x="509" d="M129 338q53 84 151.5 156.5t184.5 72.5q94 0 94 -84q0 -13 -2 -28q-10 -72 -74.5 -114t-160.5 -73q-79 -24 -145 -24h-5q-16 -43 -23.5 -78t-7.5 -69t17.5 -49t52.5 -20q6 -1 14 -1q32 0 80 18q80 27 166 102.5t141 147.5q5 -5 5 -14q0 -13 -13 -33q-76 -104 -188.5 -184 t-229.5 -80q-152 0 -152 110q0 88 95 244zM188 285q13 -1 25 -1q55 0 102 15q117 35 152 131q10 28 10 49q0 32 -23 47q-9 6 -22 6q-133 -2 -244 -247z" />
<glyph unicode="f" horiz-adv-x="372" d="M-615 -342v7q0 8 1 17q2 13 4 22t8 27.5t8 25.5t11.5 30t11.5 29q4 10 11 12t11 -4t0 -17q-15 -33 -15 -64q0 -26 11 -50q23 -53 73 -79t116 -31q8 -1 17 -1q56 0 107 29q139 72 267 309q43 80 81.5 178.5t83 219t70.5 188.5h-47q-2 0 -45 -6l-4 2q4 20 39 38.5t57 18.5 h25q215 500 393 619q103 73 228 73h3q27 0 49.5 -16t20.5 -45l-6 -74q0 -4 -6 -6t-8 2q-8 49 -61 68q-32 12 -68 12q-26 0 -54 -6q-106 -23 -217 -225q-29 -51 -180 -402h147q41 0 60 4q0 -14 -31 -26q-57 -31 -172 -31h-27q-121 -303 -172 -412q-35 -78 -73.5 -147.5 t-97 -147.5t-119 -133t-140.5 -92t-162 -37q-170 0 -206 103q-2 8 -3 18z" />
<glyph unicode="g" horiz-adv-x="542" d="M-578 -423q0 7 2.5 12t5.5 10.5t8 7.5t11 2q4 0 4 -4q0 -8 -2 -24.5t-2 -26.5q0 -92 58.5 -142.5t152.5 -50.5q72 0 147 31q57 25 108.5 57.5t98.5 83.5t82 89t77 111.5t63.5 108.5t60.5 125t50 116t50 124t43 110q-68 -111 -209 -231q-106 -90 -184 -90q-37 0 -37 45v14 q14 115 96 247t179 204q70 53 153 53h236q10 0 10 -8q0 -16 -18 -16q-45 0 -74 -54q-55 -88 -275 -598q-57 -135 -112 -232t-146.5 -193.5t-201.5 -143.5q-70 -31 -154 -31q-82 0 -152.5 37t-105.5 109q-23 43 -23 114v9v13v12zM113 90q0 -24 17 -24h1q59 0 211 181t152 247 q0 38 -46 38h-2q-55 0 -129 -69q-53 -49 -128.5 -181t-75.5 -192z" />
<glyph unicode="h" d="M-10 16q16 39 89 217.5t122 282.5q184 410 393 594q170 150 364 150q113 -1 121 -89q1 -11 2 -21q0 -27 -8 -54q-2 -8 -16 -9h-4q-2 0 0 3q2 10 2 18q0 36 -28 56q-34 24 -93 24q-184 0 -340 -135q-188 -166 -334 -551q-20 -55 -57 -155.5t-51 -137.5q195 258 325 336 q54 30 89 29q13 0 24 -4q17 -7 18 -27q0 -27 -28 -76q-45 -72 -114 -207t-69 -178q0 -20 12.5 -27.5t29 -3.5t31.5 11.5t26 15.5q86 66 198 205l3 -10q-3 -30 -17 -46q-41 -55 -92 -112q-111 -127 -215 -127q-79 0 -79 55q0 19 9 43q4 14 166 352q13 25 13 36q0 9 -9 9 q-8 0 -24 -8q-29 -16 -70 -51q-92 -86 -175 -193.5t-118 -205.5q-7 -23 -62 -29q-36 -4 -36 13q0 5 2 7z" />
<glyph unicode="i" horiz-adv-x="393" d="M65 234q0 17 11 28q145 180 223 293q102 14 127 35q16 16 18 -1q1 -8 -6 -16q-12 -14 -37.5 -60t-76 -141.5t-56.5 -109.5q-69 -129 -69 -179v-1q0 -29 28 -29q63 0 230 197l45 51q4 -4 4 -14q-4 -18 -27 -51q-57 -72 -97 -115t-108.5 -85t-134.5 -42q-47 0 -47 39 q0 18 10.5 50t20.5 54.5t27.5 60.5t21.5 44l104 221q-109 -117 -196 -234q-15 -21 -15 5zM450 842q7 24 27 39q24 15 44 16q24 0 40 -23q8 -11 7 -25q0 -9 -2 -17q-8 -24 -30 -38q-20 -13 -40 -12h-6q-24 2 -35 19q-8 11 -8 25q0 7 3 16z" />
<glyph unicode="j" horiz-adv-x="276" d="M-858 -423q0 7 2 12t4 10.5t7 7.5t11.5 2t6.5 -4q0 -8 -3.5 -24.5t-3.5 -26.5q0 -92 58.5 -142.5t152.5 -50.5q72 0 150 31q174 76 296 240.5t224 402.5q41 98 79 209.5t57.5 175t23.5 67.5q27 29 76 51.5t80.5 24.5t37.5 -12q0 -16 -18 -16q-43 0 -70 -39 q-49 -70 -276 -613q-57 -133 -112.5 -231t-147.5 -194.5t-203 -143.5q-70 -31 -154 -31q-82 0 -152.5 37t-105.5 109q-20 43 -20 114v9v13v12zM353 842q7 24 30 38q20 13 40 13q3 0 7 -1q23 -2 35 -18q8 -11 8 -25q0 -8 -3 -17q-7 -23 -30 -38q-19 -12 -40 -12h-6 q-23 2 -36 19q-8 11 -8 25q0 8 3 16z" />
<glyph unicode="k" horiz-adv-x="663" d="M18 16q14 31 59.5 134.5t63 141.5t56.5 125t66.5 140t66.5 128t78 144q96 174 231 299t266 125q33 0 58.5 -17t25.5 -50v-60q0 -8 -12 -8q-6 0 -6 4q0 55 -84 56q-72 0 -146 -29q-51 -20 -98 -61t-74.5 -78t-66.5 -99q-135 -209 -320 -702q47 63 88 110q-1 5 -1 10 q0 30 22 56q10 14 28.5 33.5t24.5 27.5l6 -34q90 92 158 133q52 30 89 30q14 -1 26 -5q20 -7 20 -29q0 -26 -27 -74q-6 -10 -11 -19.5t-9 -13.5q-2 -4 -8 -1t-6 7q0 39 -54 39q-74 0 -172 -102q43 -236 84 -299q16 -27 60 -27q78 2 270 250q8 -10 4 -20q-2 -16 -29 -50 q-100 -127 -188 -196q-45 -37 -103 -44q-8 -1 -16 -1q-47 0 -80 35q-35 47 -82 262q-125 -158 -159 -262q-9 -24 -66 -29q-34 -3 -34 13q0 5 1 7z" />
<glyph unicode="l" horiz-adv-x="438" d="M65 234q0 17 11 28q20 27 67 82t70 82q29 53 117 231.5t158.5 306.5t119.5 193q23 8 89.5 53t107.5 45q39 0 49 -41q3 -11 3 -25q0 -107 -179 -349q-152 -211 -422 -455q-25 -45 -45.5 -97t-34.5 -114q-5 -23 -5 -42q1 -32 15 -54q18 -27 60 -27q12 0 26 2q78 14 232 197 l43 53q4 -4 4 -12q0 -20 -31 -60q-76 -92 -102 -118q-117 -117 -211 -117h-12q-94 5 -94 103q0 81 65 225l-86 -95q-15 -21 -15 5zM291 467q202 168 352 393q117 190 139 281q7 27 7 44q0 19 -9 29q-4 4 -10 5q-19 0 -59 -39q-39 -43 -101.5 -142.5t-104.5 -175.5t-122 -223 t-92 -172z" />
<glyph unicode="m" horiz-adv-x="962" d="M65 234q0 17 11 28q145 180 223 293q102 14 127 35q8 8 12 8q5 0 6 -9q1 -8 -6 -16q-20 -23 -168 -297q12 14 109 123q47 49 119.5 103.5t119.5 60.5q15 3 26 3q34 0 38 -22q1 -5 1 -11q0 -26 -21 -58l-93 -172l97 96q47 49 119.5 103.5t119.5 60.5q15 3 28 3 q35 0 41 -22q2 -6 2 -13q0 -26 -26 -64q-43 -66 -113.5 -204t-70.5 -181q0 -29 29 -29q37 0 103.5 60.5t127.5 134.5q37 41 43 53q4 -5 4 -12q0 -19 -26 -53q-172 -231 -326 -244q-25 -2 -43.5 9t-18.5 32q0 18 10.5 50t20.5 54.5t27.5 60.5t21.5 44q72 135 111 225 q20 44 -28 15q-68 -42 -136 -109q-68 -70 -138.5 -167t-90.5 -171q-29 -25 -50.5 -16.5t-21.5 32.5q0 43 68 191q72 135 110 225q20 44 -28 15q-68 -42 -136 -109q-119 -121 -161 -219q-18 -43 -66 -158q-11 -1 -77 -24q-7 -2 -11 -2q-7 0 -6 6q1 4 4 12q10 20 39 90 q23 53 59.5 146t63 159t32.5 80q-109 -117 -196 -234q-15 -21 -15 5z" />
<glyph unicode="n" horiz-adv-x="675" d="M65 234q0 17 11 28q145 180 223 293q102 14 127 35q8 8 12 8q5 0 6 -9q1 -8 -6 -16q-20 -23 -168 -297q33 43 109 123q47 49 119.5 103.5t119.5 60.5q15 3 28 3q36 0 42 -22q2 -6 1 -14q0 -26 -25 -63q-41 -61 -109 -197.5t-68 -179.5q0 -29 29 -29q31 0 79 38t86 81 t101 121q4 -5 4 -12q0 -19 -26 -53q-104 -141 -187 -205q-61 -47 -118 -47q-66 0 -66 65q0 64 64 193q72 135 110 225q20 44 -28 15q-68 -42 -136 -109q-141 -147 -227 -377q-11 -1 -77 -24q-7 -2 -11 -2q-7 0 -6 6q1 4 4 12q10 20 39 90q23 53 59.5 146t63 159t32.5 80 q-109 -117 -196 -234q-15 -21 -15 5z" />
<glyph unicode="o" horiz-adv-x="542" d="M18 68q0 117 113 272q72 102 174 162q107 67 182 67h2q82 0 82 -80q0 -111 -110 -270q-43 -57 -78 -90q135 0 250 152q9 10 9 -6q0 -19 -7 -29q-105 -147 -239 -147q-18 0 -36 3q-115 -106 -258 -106q-84 0 -84 72zM119 59q7 -29 32 -29h7q30 4 61 22t51 38 q63 68 117 156q87 145 87 242q0 10 -1 20q-9 28 -37 28q-14 0 -30 -6q-52 -20 -87 -57q-70 -72 -116 -156q-87 -146 -87 -229q0 -15 3 -29z" />
<glyph unicode="p" horiz-adv-x="522" d="M-858 -423q0 7 2 12t4 10.5t7 7.5t11.5 2t6.5 -4q0 -8 -3.5 -24.5t-3.5 -26.5q0 -92 58.5 -142.5t152.5 -50.5q72 0 150 31q309 133 520 643q25 59 72 180t85 213t79 174q125 254 278 254q20 0 36.5 -11.5t14.5 -31.5l-4 -57q0 -6 -8 -6q-2 0 -2 2q0 43 -51 43 q-203 0 -336 -484q2 2 37 38t67.5 64.5t76.5 65.5t87 57.5t76 20.5q35 0 35 -45q0 -10 -2 -23q-23 -168 -163 -337.5t-302 -169.5q-43 0 -49 6q-182 -539 -500 -674q-70 -31 -154 -31q-82 0 -152.5 37t-105.5 109q-20 43 -20 114v9v13v12zM111 57q0 -41 43 -41q59 0 131 72 q53 49 128.5 181.5t75.5 191.5q0 26 -17 26h-1q-31 0 -103.5 -66.5t-113.5 -115.5q-143 -170 -143 -248z" />
<glyph unicode="q" horiz-adv-x="571" d="M173 -230q185 420 210 459q-61 -63 -152 -143q-102 -90 -184 -90q-37 0 -37 45v14q14 117 96 246t179 205q66 53 153 53h236q10 0 10 -8q0 -16 -18 -16q-31 0 -74 -68q-102 -160 -229 -417t-191 -435q127 211 506 686q4 -5 4 -13q0 -17 -20 -46q-152 -199 -221.5 -293 t-182.5 -277.5t-152 -308.5q-8 -23 -69 -52q-27 -13 -40 -13t-13 12q0 21 41.5 120t147.5 340zM113 90q0 -24 17 -24h1q59 0 211 181t152 247q0 38 -46 38h-2q-55 0 -129 -69q-53 -49 -128.5 -181t-75.5 -192z" />
<glyph unicode="r" horiz-adv-x="557" d="M65 234q0 17 11 28q145 180 223 293q102 14 127 35q8 8 12 8q5 0 6 -9q1 -8 -6 -16q-18 -20 -143 -249q55 84 140 165.5t151 81.5q55 0 73 -51q8 -9 8 -26q0 -8 -2 -18q-6 -30 -11 -42t-17 -35.5t-14 -25.5q-6 -11 -20 -13l-5 5q3 21 3 41q0 27 -6 52q-11 42 -54 42 q-55 0 -174 -135q-96 -113 -152 -254l-43 -115q-12 -1 -77 -23q-7 -2 -11.5 -2.5t-5.5 2.5q-2 4 4 15q10 20 39 90q23 53 59.5 146t63 159t32.5 80q-109 -117 -196 -234q-15 -21 -15 5z" />
<glyph unicode="s" horiz-adv-x="475" d="M0 76q-2 8 -2 18q0 22 10 52q14 42 37 61q11 7 15 -4q1 -3 -1 -4q-10 -18 -12 -35q-1 -9 -1 -18q0 -42 24 -76q20 -29 63 -56q25 -15 69 -15q14 0 28 1q64 6 87 35q28 35 28 75q0 63 -69 138q-59 63 -69 114q-4 16 -4 25q-25 -35 -103 -131q-17 -22 -18 -6q-2 20 16 41 q20 23 70 90q16 25 34.5 55.5t31 48t24.5 31.5q53 59 127 59h3q112 0 114 -79q0 -41 -29 -99q-9 -21 -25 -20q-7 0 -4 10q4 18 4 34q0 31 -12 60q-18 49 -63 55q-6 1 -12 0q-37 0 -67 -29q-26 -26 -26 -62q0 -10 2 -21q4 -18 24.5 -45t49.5 -56.5t39 -43.5q40 -57 40 -111 q0 -50 -34 -100q-70 -102 -196 -101q-66 0 -123.5 26.5t-69.5 82.5z" />
<glyph unicode="t" horiz-adv-x="405" d="M65 234q0 17 11 28q139 174 192 244q-8 0 -23.5 -1t-29.5 -3t-26.5 -3t-21.5 -2l-9 -1q-20 0 22 38q29 27 43 27h16q15 0 34.5 -1t27.5 -1q80 109 160 285q18 2 57 23.5t62 43.5q12 12 17 12q3 0 4 -4v-2q0 -5 -5 -12q-27 -29 -91.5 -132t-117.5 -214h166q21 0 23 -5 q3 -7 -31 -17q-25 -8 -70 -11.5t-75.5 -10.5t-43.5 -26q-29 -39 -86 -178t-63 -213q-2 -20 7 -32.5t24 -12.5q63 0 233 197l39 49q4 -6 4 -14q0 -19 -22 -49q-188 -242 -340 -242q-49 0 -50 39q0 49 80 209l111 247q-209 -254 -213 -260q-15 -21 -15 5z" />
<glyph unicode="u" horiz-adv-x="804" d="M65 234q0 17 11 28q80 109 147 184q2 2 21.5 24t24.5 28t22.5 21.5t28 21.5t28 13t33.5 9q15 3 28 3q35 0 41 -22q2 -6 2 -13q0 -26 -26 -64q-43 -66 -113.5 -204t-70.5 -181q0 -29 28 -29q39 0 123 80q129 123 266 385q18 33 27 33h28q26 0 53.5 4t47.5 14q3 1 5 1 q5 0 5 -6q1 -17 -26 -25q-61 -18 -147 -205q-72 -156 -73 -227q0 -14 3 -25q8 -29 28 -29q37 0 121 65.5t137 131.5q10 12 25.5 31.5t17.5 21.5q7 -12 7 -16q-4 -23 -29 -51q-180 -242 -338 -242q-72 0 -72 55q0 37 26.5 114t49.5 120q-76 -109 -141 -172 q-121 -117 -230 -117q-49 0 -49 39q0 49 80 209q18 37 49 100.5t37 73.5q16 31 16 42q0 7 -5 7q-4 0 -12 -4q-18 -9 -50 -37q-84 -78 -170 -195q-15 -21 -15 5z" />
<glyph unicode="v" d="M65 234q0 17 11 28q115 154 190 273q74 10 101 34q9 8 13.5 8t4.5 -8t-6 -16q-37 -55 -83 -205.5t-48 -236.5v-4q0 -61 35 -62q20 0 52 21q30 20 58 51q45 47 101.5 137t78.5 158q18 49 19.5 82.5t-3.5 44t-11 14.5q-16 7 -10 15q4 5 9 4q5 0 13 -3q18 -6 27.5 -10 t24.5 -14t20.5 -22.5t5.5 -36.5v-2q0 -23 -9 -50q-27 -72 -139 -220t-182 -191q-41 -27 -79 -34q-9 -2 -17 -2q-26 -1 -48 17q-26 21 -26 74v8q0 176 61 340q-29 -41 -88 -118t-61 -79q-15 -21 -15 5z" />
<glyph unicode="w" horiz-adv-x="1024" d="M65 234q0 17 11 28q115 154 190 273q74 10 101 34q18 16 18 0q0 -8 -6 -16q-37 -55 -83 -205.5t-48 -236.5v-6q0 -60 37 -60q76 0 217 225q31 49 80 145.5t63 119.5q72 10 103 34q16 16 17 0q1 -8 -5 -16q-37 -53 -79 -203.5t-44 -238.5v-4q0 -62 44 -61q20 0 48 12 q46 21 84 59q137 139 197 301q18 49 20 87t-7 55.5t-22 21.5q-19 7 -4 17q8 6 19 6q4 0 8 -1q81 -20 81 -91q0 -31 -15 -71q-45 -117 -142.5 -237.5t-204.5 -181.5q-45 -27 -87 -35q-11 -2 -21 -2q-29 0 -51 18q-30 24 -31 82q4 127 41 264q-10 -16 -28.5 -50t-28.5 -50 q-127 -184 -199 -227q-41 -27 -79 -34q-9 -2 -17 -2q-26 -1 -48 17q-26 21 -26 74v8q0 176 61 340q-29 -41 -88 -118t-61 -79q-15 -21 -15 5z" />
<glyph unicode="x" horiz-adv-x="612" d="M-12 25q156 123 248 198q-37 178 -37 224v8q4 33 49 59.5t82 26.5q27 0 29 -13q-7 -7 -17 -10q-35 0 -41 -59q-3 -22 -3 -48q0 -52 13 -122q57 49 299 237q12 8 29.5 12.5t30 4.5t35 -1t28.5 -1q4 -1 5 -9v-5q0 -5 -1 -10q-2 -7 -6 -7q-43 -2 -104 -33 q-102 -45 -308 -219q12 -78 52 -149q28 -55 60 -55q35 0 76 65q35 55 50 114q6 20 17 9q6 -6 4 -19q-18 -86 -67.5 -160.5t-113.5 -74.5q-20 0 -41 10q-37 16 -69.5 79.5t-44.5 115.5q-45 -39 -110.5 -110t-82.5 -87q-12 -12 -52 -4q-22 5 -22 14q0 8 13 19z" />
<glyph unicode="y" horiz-adv-x="704" d="M-420 -423q0 7 2 12t4 10.5t7.5 7.5t11.5 2q4 0 4 -4q0 -8 -2 -24.5t-2 -26.5q0 -92 58 -142.5t153 -50.5q72 0 149 31q174 76 296 240.5t224 402.5q51 121 105 284q-96 -131 -176 -208q-121 -117 -230 -117q-49 0 -49 39q0 49 80 209q18 37 49 100.5t37 73.5 q16 31 16 42q0 7 -5 7t-12 -4q-18 -9 -50 -37q-84 -78 -170 -195q-13 -19 -14.5 0.5t10.5 32.5q80 109 147 184q2 2 21.5 24t24.5 28t22.5 21.5t28 21.5t28 13t33.5 9q15 3 28 3q35 0 41 -22q2 -7 2 -13q0 -27 -26 -64q-43 -66 -113.5 -204t-70.5 -181q0 -29 28 -29 q39 0 123 80q104 100 197 260q66 109 82 117q88 45 102 47q28 7 44 7q22 0 22 -13q0 -16 -19 -16q-43 0 -69 -39q-49 -70 -277 -613q-57 -135 -112.5 -232t-147.5 -193.5t-203 -143.5q-70 -31 -153 -31q-82 0 -153 37t-105 109q-20 43 -21 114v9v13v12z" />
<glyph unicode="z" horiz-adv-x="479" d="M-25 -4q20 33 98.5 116t119.5 117q43 37 146 129.5t169 145.5q-283 0 -313 -43q-17 -23 -33 -19q-12 3 6 23q10 10 49 78q6 -4 65 -4q40 0 103 2q158 4 170 4q16 0 28.5 -23.5t14.5 -42.5q-266 -190 -324 -237q-8 -6 -174 -150q43 23 83 26q17 1 32 1q21 0 35 -2 q26 -4 65 -33t56.5 -45t66.5 -64q151 -151 227 -151h1q37 4 53 18q23 16 15.5 40t-22 42.5t-28.5 28.5q-9 9 8 15q8 3 15 -1q41 -21 54 -69q4 -15 4 -29q0 -33 -20 -64q-25 -37 -69 -55q-25 -10 -51 -10q-20 0 -39 6q-35 10 -81 55t-147 160q-6 6 -22.5 25.5t-21.5 25.5 t-19 22.5t-22.5 21.5t-21.5 15.5t-23.5 14.5t-24 7t-27.5 3q-47 0 -89 -28.5t-54 -71.5q-8 -29 -17 -43q-16 -22 -39 -3q-11 9 -11 21q0 11 9 25z" />
<glyph unicode="{" horiz-adv-x="724" d="M160 467l26 27q125 2 202 50t130 156q6 10 49 121q113 283 404 326q102 8 114 -6q14 -18 15 -27q-39 8 -94 4q-82 -6 -134.5 -34.5t-91.5 -92.5q-25 -43 -63.5 -137t-78.5 -165t-95 -111q-90 -74 -211 -103q145 -33 131 -143q-8 -74 -73.5 -208t-74.5 -208 q-4 -37 9.5 -56.5t31 -24.5t54.5 -9q47 -4 88 2q-16 -35 -37 -35q-51 0 -89 3t-89.5 13.5t-77 38t-21.5 70.5q8 76 79 215t79 215q8 59 -40 85t-142 34z" />
<glyph unicode="|" horiz-adv-x="745" d="M131 0q29 78 242.5 602.5t236.5 579.5h97q-18 -25 -129 -293t-235 -574.5t-126 -314.5h-86z" />
<glyph unicode="}" horiz-adv-x="841" d="M-72 -176q39 -8 97 -4q158 12 223 127q25 43 63.5 137t79.5 164.5t94 113.5q96 72 211 101q-145 33 -131 143q8 74 74 208t74 208q4 37 -8.5 56.5t-31 24.5t-55.5 9q-45 4 -88 -2q20 37 37 37q49 0 88 -3t90.5 -14.5t77 -39t21.5 -70.5q-10 -78 -80 -216t-78 -212 q-6 -61 42 -87t142 -34l-26 -27q-127 -2 -204 -50t-128 -156q-18 -39 -51 -121q-113 -285 -404 -324q-98 -14 -114 4q-10 12 -15 27z" />
<glyph unicode="~" horiz-adv-x="567" d="M154 686q76 63 112 64q33 0 109 -29t127 -29q14 0 28.5 4t21.5 8.5t21.5 15.5t22.5 15l12 -14q-16 -18 -53 -43t-55 -25q-47 0 -125 28t-117 28q-37 0 -88 -43z" />
<glyph horiz-adv-x="1732" />
<glyph unicode="&#xa1;" horiz-adv-x="501" d="M-78 -205q12 8 43 60.5t39 70.5q131 254 367 725q9 21 42 28q10 -1 11 -5l-283 -737q-8 -18 -22.5 -59.5t-18.5 -49.5q-106 -25 -161 -70q-4 -2 -9.5 6.5t-7.5 17.5t0 13zM399 878q-1 8 13 21q59 49 77 47q37 0 74 -45q2 -2 -5 -8t-19.5 -13.5t-23.5 -15.5t-20.5 -12 t-11.5 -4q-47 29 -67 24q-16 -4 -17 6z" />
<glyph unicode="&#xa2;" horiz-adv-x="768" d="M109.5 415q7.5 93 68 198.5t164.5 183.5q113 86 268 102l60 148q7 17 38 20q8 -2 9 -6l-62 -160q70 0 117 -22q66 -31 55 -82q-2 -12 -24.5 -47t-28.5 -54q-3 -10 -20 -10l-4 4q16 29 18 73t-14 73q-27 43 -109 38q-158 -426 -246 -679q102 -4 206 59t167 158 q10 13 17 -7q4 -12 -1 -18q-70 -111 -178 -178.5t-231 -69.5q-51 -147 -68 -209l-70 -30q-12 -4 -12 0q20 63 86 245q-2 0 -32 7q-90 23 -135.5 96.5t-38 166.5zM227.5 445.5q-34.5 -191.5 104.5 -238.5l6 -2q119 319 260 663l-43 -12q-74 -29 -137 -82 q-156 -137 -190.5 -328.5z" />
<glyph unicode="&#xa3;" horiz-adv-x="1271" d="M1 -37q-6 33 22 47q8 4 18 4q84 2 167 71t122 146l129 261q-113 0 -193 -7q-12 -2 25 38q27 29 39 26q39 -6 153 -6l90 176q45 92 83 151.5t95.5 125t132 96t167.5 28.5q96 -4 163.5 -43t42.5 -114q-6 -20 -46 -68.5t-54 -83.5q-10 -22 -25 -14q-9 5 1 18q33 45 45 108.5 t-12.5 117t-88.5 55.5q-137 4 -229 -138l-268 -417q147 0 301 6q4 0 -7.5 -16.5t-29 -33t-27.5 -16.5q-113 10 -252 11h-16l-168 -259q-109 -170 -199 -196q274 -8 408 -12q123 -8 259 -6.5t161 30.5q35 45 27.5 83t-50.5 63q-14 7 0 16q6 4 12 0q27 -12 67 -68.5t48 -87.5 q16 -61 -25.5 -94t-132.5 -31q-143 4 -433 35t-351 35q-98 6 -162 -45q-7 -6 -9 8z" />
<glyph unicode="&#xa4;" horiz-adv-x="872" d="M182 203q-11 50 3 126q5 27 14 33q27 16 172 136q-58 90 -58 196q0 109 56 193q-100 80 -170 137q-24 12 -17 135q3 32 6 31q25 -25 250 -221q104 90 240 90q137 0 242 -94q145 129 247 225q4 3 7 -12q12 -70 -5 -132q-5 -18 -12 -22q-4 -4 -65.5 -52t-106.5 -83 q57 -90 57 -195q0 -111 -57 -196q150 -123 172 -136q25 -17 22 -130q-3 -35 -8 -33l-251 223q-102 -92 -241.5 -92t-244.5 92l-248 -223q-2 -4 -4 4zM418 690.5q0 -108.5 77.5 -186.5t186.5 -78t186.5 78t77.5 186.5t-77.5 186t-186.5 77.5t-186.5 -77.5t-77.5 -186z" />
<glyph unicode="&#xa5;" horiz-adv-x="925" d="M16 182q0 30 10.5 29t10.5 -18q0 -92 47 -143.5t123 -51.5q201 0 414 293q-172 0 -240 -6q-11 -2 21 32q22 24 32 23q37 -6 148 -6q0 4 2 6l22 70q27 100 41.5 211.5t2 243.5t-69.5 198h-50q-45 0 -88 -4t-104.5 -17.5t-96 -49.5t-30.5 -87q4 -35 25 -78l-21 -16 q-80 139 -82 154q-6 74 35 110q27 23 83 33t104 9t116 -4t84 -3q145 2 328 2l-43 -53q-72 0 -224 4q84 -55 111 -184t14.5 -244t-43.5 -221q14 20 154.5 231t226.5 309q53 61 87 96t101.5 79.5t123.5 41.5q55 -4 79 -55q8 -16 10.5 -34.5t-2.5 -37t-8.5 -28.5t-11.5 -28 l-8 -17q-4 -11 -13 -7q-4 2 -3 7q12 51 -7.5 93t-64.5 44q-98 2 -258 -182q-205 -240 -410 -594q100 0 211 6q4 0 -6 -14.5t-24.5 -27.5t-22.5 -13l-180 8l-41 -72q-78 -137 -171 -218t-220 -81q-66 0 -122.5 37t-84.5 109q-16 39 -17 116z" />
<glyph unicode="&#xa6;" horiz-adv-x="763" d="M131 0q21 60 199 496l88 4l-201 -500h-86zM420 715q168 406 190 467h97q-25 -39 -201 -467h-86z" />
<glyph unicode="&#xa7;" horiz-adv-x="1110" d="M20 -113q-14 68 14.5 145t80.5 115q2 2 8 -3t7 -11t-3 -10q-45 -53 -38 -122t46 -126q47 -66 131 -108.5t170 -47.5q162 -8 234.5 108t15.5 269q-25 68 -100.5 194t-85.5 144q-86 166 10 303q53 72 139 111q0 88 49 158q45 63 121 102t158 43q137 6 221 -88 q14 -20 12 -55t-16 -56q-53 -86 -66 -129q-6 -4 -20 -7t-18 1q35 70 34 137q0 76 -26 99q-59 55 -158 55q-135 0 -196.5 -94t-18.5 -193q31 -76 153.5 -189.5t159.5 -187.5q49 -92 32 -179t-73.5 -155.5t-140.5 -115.5q-4 -2 -20 -8q-18 -137 -155.5 -229.5t-289.5 -92.5 q-127 0 -235.5 54.5t-135.5 168.5zM534.5 706.5q-32.5 -79.5 2.5 -153.5q29 -70 138 -204t142 -216q18 -49 23 -104q2 4 12 10q78 53 95.5 151.5t-36.5 202.5q-29 57 -111.5 156.5t-111.5 152.5q-31 60 -37 119q-84 -35 -116.5 -114.5z" />
<glyph unicode="&#xa8;" horiz-adv-x="509" d="M156 801q-2 2 5 8t19.5 14t23.5 15.5t20.5 12.5t11.5 3q47 -29 67 -25q16 4 17 -5q1 -8 -13 -21q-59 -49 -78 -47q-41 2 -73 45zM393 801q-2 2 5.5 8t19.5 14t23.5 15.5t20.5 12.5t11 3q47 -29 68 -25q16 4 17 -5q1 -8 -13 -21q-59 -49 -78 -47q-41 2 -74 45z" />
<glyph unicode="&#xa9;" horiz-adv-x="1464" d="M82 352q-4 86 22.5 190.5t92 211t159 191.5t233.5 133t304 36q250 -18 370 -104t130 -252q10 -158 -50.5 -304.5t-170 -252t-267 -163.5t-332.5 -44q-471 35 -491 358zM195 324q16 -272 360 -297q156 -12 295 51t233.5 172.5t145.5 251t43 282.5q-16 270 -375 299 q-133 10 -268 -62.5t-231.5 -188t-154 -254t-48.5 -254.5zM353 362.5q-7 71.5 12.5 150.5t77 160t141.5 144q59 45 146 75t163 30q72 0 119 -23q65 -31 55 -82q-2 -12 -23.5 -47t-27.5 -53q-9 -6 -25 -6q16 29 18.5 72.5t-14.5 72.5q-23 39 -92 40t-108 -19 q-78 -31 -136 -82q-158 -137 -191.5 -329t105.5 -239q115 -37 239 27.5t202 177.5q9 14 16 -7q4 -12 0 -17q-84 -135 -222 -203t-286 -33q-72 16 -117 67.5t-52 123z" />
<glyph unicode="&#xaa;" d="M6 662q0 10 2 14q14 117 94 246t179 204q70 53 153 54h236q10 0 10 -9q0 -16 -18 -16q-29 0 -72 -68q-43 -66 -113.5 -204t-70.5 -181q0 -29 28 -28q12 0 27.5 6t34 18.5t33 24.5t36 33.5t33.5 34t34.5 39t30 34.5t27.5 34l21 26q14 -14 -25 -68q-182 -242 -338 -242 q-49 0 -49 39q0 72 80 197q-72 -76 -150 -143q-106 -90 -186 -91q-37 0 -37 46zM111 711q0 -25 16 -25q59 0 212 181t153 247q0 39 -48 39q-57 0 -131 -70q-53 -49 -127.5 -181t-74.5 -191z" />
<glyph unicode="&#xab;" horiz-adv-x="727" d="M217 403q2 16 104.5 125t147.5 152q20 16 37 16q10 0 10 -8q-2 -12 -91 -110.5t-122 -131.5q4 -6 22.5 -31.5t36 -50t36 -52t28.5 -48t8 -28.5q-4 -23 -22 -23l-13 6q-12 23 -27.5 41.5t-37 38.5t-33.5 29.5t-43 34t-39 30.5q-2 4 -2 10zM461 403q2 16 104.5 125 t147.5 152q16 16 37 16q10 0 10 -8q-4 -16 -213 -242q4 -4 22.5 -30.5t35 -51t34.5 -52t29.5 -48t9.5 -28.5q-4 -23 -23 -23l-12 6q-14 23 -28.5 41.5t-38 38.5t-31.5 28.5t-43 35t-39 30.5q-4 8 -2 10z" />
<glyph unicode="&#xac;" horiz-adv-x="847" d="M125 457l25 47h286q264 0 318 4l14 -6q-57 -92 -88 -195l-86 2q4 10 84 154q-45 2 -256 1t-297 -7z" />
<glyph unicode="&#xad;" horiz-adv-x="509" d="M156 297q-11 -3 20 35q17 21 25 20q18 -4 133 -8q51 0 162 6q4 0 -4.5 -14t-21.5 -27.5t-19 -13.5q-10 0 -32 3t-43.5 4t-45.5 1q-113 0 -174 -6z" />
<glyph unicode="&#xae;" horiz-adv-x="1447" d="M82 352q-4 86 22.5 190.5t92 211t159 191.5t233.5 133t304 36q250 -18 370 -104t130 -252q20 -326 -223.5 -558.5t-596.5 -205.5q-471 35 -491 358zM195 324q6 -91 45 -154h2q59 12 90 70q61 98 117 202l135 252q70 123 92 180q18 41 0 58q-33 0 -46 16q-9 11 30 14 q9 1 20 1q41 2 127 2q43 0 93 1t102.5 -16.5t74.5 -52.5q29 -47 22 -112.5t-40 -108.5q-51 -68 -144.5 -106t-187.5 -42q57 -129 150 -241q37 -45 79.5 -54.5t81.5 11t70 50.5t53 66q125 184 111 424q-16 270 -375 299q-133 10 -268 -62.5t-231.5 -188t-154 -254 t-48.5 -254.5zM248 160q82 -115 307 -133q293 -23 512 206q-174 -133 -283 13q-33 43 -62.5 92t-44.5 80t-31.5 67.5t-18.5 40.5q27 37 41 37q86 -2 181 49.5t132 155.5q20 57 1 108.5t-71 57.5q-84 12 -112 -27q-25 -33 -53.5 -81t-46 -81.5t-48 -96t-41.5 -81.5 q-172 -319 -157 -356q3 -11 -19 -6q-37 14 -63 2q-74 -37 -107 -47q-10 -4 -16 0z" />
<glyph unicode="&#xaf;" horiz-adv-x="512" d="M227 813l2 4q39 10 170 10q137 0 181 -18l3 -2q3 0 3 -2q-4 -10 -15 -10q-51 0 -157.5 -9.5t-157.5 -9.5q-8 0 -19.5 14.5t-9.5 22.5z" />
<glyph unicode="&#xb0;" horiz-adv-x="434" d="M188 707q8 57 61.5 99t119.5 42q63 0 103 -41t30 -100.5t-64.5 -101.5t-118 -42t-102.5 42t-29 102zM252 707q-6 -33 17.5 -58.5t60.5 -25.5t68.5 24.5t37.5 59.5q6 33 -17.5 58.5t-60 25.5t-68.5 -25t-38 -59z" />
<glyph unicode="&#xb1;" horiz-adv-x="759" d="M55 18q-15 -2 28 40q29 29 42 28q20 -4 270 -10q115 0 353 8q6 0 -8.5 -17.5t-33 -34t-28.5 -16.5q-256 10 -287 11q-242 0 -336 -9zM188 541q-13 0 29 44q30 32 43 29q47 -8 268 -8q68 168 86 234q4 10 34 22t56.5 18.5t24.5 0.5q-78 -162 -127 -275q180 0 328 6 q13 0 -29 -43q-30 -31 -43 -30q-160 8 -280 10l-3 -8q-92 -219 -102 -269q-6 -23 -89 -42q-24 -5 -24 -1q35 66 146 320q-227 0 -318 -8z" />
<glyph unicode="&#xb2;" horiz-adv-x="450" d="M-12 586q213 193 241 219l17 16q197 184 219 264q16 43 -8.5 72t-77.5 27q-47 0 -82 -21q-37 -25 -51 -69q0 -4 -3 -18.5t-4 -25t-1 -14.5l-50 -24q33 115 37 159q0 23 29 35q49 16 111 17l28 2q72 4 107 -15q57 -23 57 -90q0 -28 -10 -55q-12 -47 -66 -104 q-63 -70 -284 -238q-35 -25 -58 -45q-30 -20 -14 -21q14 0 47 -2t51 -2q100 0 139 21q18 10 47 43t37 51l29 -10q-23 -23 -61 -101q-31 -66 -92 -63q-61 4 -121 4q-31 0 -43 -2q-70 -4 -170 -10z" />
<glyph unicode="&#xb3;" horiz-adv-x="450" d="M45 639q10 18 39 119l35 14q0 -6 -5 -28.5t-7.5 -38t1 -34t13.5 -28.5q27 -25 82 -20q78 2 128 50t70 115q6 27 7 48q0 35 -32 54t-69 23.5t-92 4.5l31 36l26 4q168 41 195 125q14 45 -9.5 74t-78.5 27q-49 0 -80 -21q-35 -20 -51 -69q-12 -45 -10 -58l-50 -24 q33 115 37 159q0 25 31 35q43 16 109 17l30 2q70 3 105 -15q49 -20 51 -79.5t-35 -98.5q-46 -55 -135 -86l4 -2q61 -6 88 -49t17.5 -98.5t-44.5 -106.5q-66 -96 -225 -108q-115 -6 -162 22q-25 14 -14 35z" />
<glyph unicode="&#xb4;" horiz-adv-x="264" d="M55 686q-2 1 2 14q74 55 158 129q92 80 111 80q6 0 5 -28.5t-7 -34.5q-10 -18 -127 -87t-142 -73z" />
<glyph unicode="&#xb5;" horiz-adv-x="514" d="M-334 -596l2 4q10 57 58.5 145.5t92.5 154t117.5 167.5t92.5 129q63 94 93 141.5t68.5 129t51.5 151.5q-14 -31 -86 -119t-109 -125l-6 -2q-6 0 -6 8q0 2 2 2q4 8 18.5 25.5t31.5 37t22 26.5q96 123 137 210q18 43 49 43q33 0 18 -75q-10 -57 -40.5 -126t-81 -157 t-66.5 -123q139 88 272 234l15 14q35 115 69 145q12 10 35 11q35 0 33 -17q-8 -45 -49 -86q-59 -131 -76 -231q-14 -76 39 -76q20 0 43.5 13.5t40 26.5t18.5 13q4 0 4 -8l-1 -2l-1 -2q-72 -76 -143 -76q-76 0 -55 117q8 45 32 135q-92 -123 -309 -256q-201 -306 -262 -440 q-52 -112 -68 -199q-25 -141 76 -141q70 0 168 53q-18 -29 -70.5 -50.5t-89.5 -21.5q-86 0 -141 59.5t-39 137.5z" />
<glyph unicode="&#xb6;" horiz-adv-x="1011" d="M-393 -535q-2 16 45 17q98 0 203.5 65.5t188.5 157.5t166 216t134 217t94 186q-129 10 -222 73.5t-99 177.5q-6 100 61 199q104 156 310 227.5t436 71.5q102 0 149 12q123 143 254 144q55 0 55 -27q2 -18 -8 -25.5t-28 -7.5q-123 0 -250 -194q-35 -53 -74 -134 t-94.5 -209t-61.5 -140q-39 -86 -69.5 -152t-88 -172.5t-109.5 -185t-126 -168.5t-144.5 -146.5t-158.5 -93.5t-176 -35h-17q-139 -100 -301 -100q-70 0 -69 26zM16 -432q94 8 191.5 79.5t177.5 180.5t136.5 202t99.5 187q299 611 393 791l-58 -2q-82 -57 -165.5 -190.5 t-162.5 -298.5t-165 -336t-203 -340t-244 -273z" />
<glyph unicode="&#xb7;" horiz-adv-x="1208" d="M372.5 628.5q20.5 112.5 121 191.5t223.5 79t196.5 -78.5t55.5 -191.5q-20 -113 -120.5 -192t-225.5 -79q-123 0 -197 79t-53.5 191.5z" />
<glyph unicode="&#xb8;" horiz-adv-x="389" d="M-47 -424q0 12 18 12q2 0 29 1t50.5 5.5t51 13.5t48 31.5t26.5 57.5q4 25 -31.5 82t-35.5 88q0 53 39.5 94t97.5 41h41q-45 -10 -76 -41t-31 -67q0 -29 39 -82.5t33 -96.5q-14 -76 -104.5 -115.5t-182.5 -39.5q-16 0 -12 16z" />
<glyph unicode="&#xb9;" horiz-adv-x="348" d="M-2 590l25 35q25 -4 66.5 5t55.5 36q31 59 76 217v-2l49 147q29 90 13 98q-8 4 -58 -32l-24 -21l-33 -22l2 24l10 31l43 24l66 41q14 10 55 35t51 31q23 14 29 6t-6 -31q-41 -86 -99 -268l-20 -70q-51 -147 -61 -212q-2 -16 20.5 -25.5t46 -11.5t37.5 0l-29 -35 q-20 6 -135 12q-51 -2 -180 -12z" />
<glyph unicode="&#xba;" horiz-adv-x="542" d="M18 696q0 117 113 273q72 102 174 161q109 68 184 68q82 0 82 -80q0 -111 -110 -270q-43 -57 -78 -90q135 0 250 151q10 11 9 -8q0 -16 -7 -27q-119 -166 -275 -143q-115 -106 -258 -106q-84 0 -84 71zM119 688q8 -33 38.5 -28.5t61.5 21.5t51 38q63 68 117 155 q96 161 86 263q-14 41 -66.5 21.5t-87.5 -56.5q-70 -72 -116 -156q-104 -174 -84 -258z" />
<glyph unicode="&#xbb;" horiz-adv-x="727" d="M184 213q2 16 213 242q-137 186 -133 211q4 20 23 20l12 -6q14 -23 29.5 -41t36 -37.5t35 -31t41 -33t38.5 -31.5q4 -4 4 -10q-4 -16 -106.5 -125t-147.5 -152q-20 -16 -34.5 -16t-10.5 10zM455 213q2 16 213 242q-137 186 -133 211q4 20 22 20l12 -6q14 -23 29.5 -41 t36 -37.5t35 -31t41 -33t39.5 -31.5q4 -4 4 -10q-4 -16 -106.5 -125t-147.5 -152q-20 -16 -34.5 -16t-10.5 10z" />
<glyph unicode="&#xbc;" horiz-adv-x="2017" d="M498 -51q227 317 552.5 727.5t475.5 572.5q10 13 119 5q25 -2 22 -5q-139 -147 -544.5 -634.5t-536.5 -667.5q-12 -19 -67 -12q-20 7 -21 14z" />
<glyph unicode="&#xbd;" horiz-adv-x="1345" d="M-63 -51q291 315 700.5 726.5t591.5 573.5q13 13 82 5l14 -5q-156 -135 -642 -619.5t-673 -682.5q-17 -19 -60 -12q-22 4 -13 14zM78 590l24 35q25 -4 67 5t56 36q31 59 76 217v-2l49 147q29 90 12 98q-8 4 -57 -32l-24 -21l-33 -22l2 24l10 31l43 24l66 41q14 10 55 35 t51 31q23 14 29 6t-6 -31q-41 -86 -99 -268l-20 -70q-51 -147 -62 -212q-2 -16 20.5 -25.5t46.5 -11.5t38 0l-29 -35q-20 6 -135 12q-51 -2 -180 -12zM670 -8q213 193 241 219l17 16q197 184 219 265q16 43 -8.5 71.5t-77.5 26.5q-47 0 -82 -21q-37 -25 -51 -69 q0 -4 -3 -18.5t-4 -25t-1 -14.5l-50 -24q33 115 37 160q0 23 29 34q49 16 111 17l28 2q72 4 107 -15q57 -23 57 -90q0 -28 -10 -55q-12 -47 -66 -104q-63 -70 -284 -238q-35 -25 -58 -45q-30 -20 -14 -21q14 0 47 -2t51 -2q100 0 139 21q18 10 47 43t37 51l29 -10 q-23 -23 -61 -101q-31 -66 -92 -63q-61 4 -121 4q-31 0 -43 -2q-70 -4 -170 -10z" />
<glyph unicode="&#xbe;" horiz-adv-x="1429" d="M35 -51q291 315 700.5 726.5t591.5 573.5q13 13 83 5l13 -5q-156 -135 -642 -619.5t-672 -682.5q-17 -19 -61 -12q-22 4 -13 14zM45 639q10 18 39 119l35 14q0 -6 -5 -28.5t-7.5 -38t1 -34t13.5 -28.5q27 -25 82 -20q78 2 128 50t70 115q6 27 7 48q0 35 -32 54t-69 23.5 t-92 4.5l31 36l26 4q168 41 195 125q14 45 -9.5 74t-78.5 27q-49 0 -80 -21q-35 -20 -51 -69q-12 -45 -10 -58l-50 -24q33 115 37 159q0 25 31 35q43 16 109 17l30 2q70 3 105 -15q49 -20 51 -79.5t-35 -98.5q-46 -55 -135 -86l4 -2q61 -6 88 -49t17.5 -98.5t-44.5 -106.5 q-66 -96 -225 -108q-115 -6 -162 22q-25 14 -14 35zM752 203q25 14 90 84l30 35l164 172q27 27 56 59q37 47 51 51q25 8 45 19q66 29 69 18q2 -6 -6 -23q-41 -84 -98 -268l-35 -104q47 4 53 10q25 12 57 44t40 50l20 -6l4 -12q-6 -6 -28.5 -39t-30.5 -51q-35 -68 -98 -64 h-37q-20 -82 -27 -110q-2 -16 21.5 -25.5t47 -11.5t38.5 0l-33 -35q-16 6 -135 12q-51 -2 -179 -12l27 35q23 -4 64 5t57 36q14 20 43 108h-70q-88 -2 -190 -6q-45 0 -10 29zM862 256q-10 -10 2 -12q61 -4 123 -4q37 0 51 2l6 10l11 35l47 147q29 82 26 103 q-37 -31 -233 -244z" />
<glyph unicode="&#xbf;" horiz-adv-x="913" d="M23 -16q14 76 62 132t114.5 92t134 66.5t134.5 75.5t103 101q96 152 39 217l23 32q45 -51 51 -127q6 -100 -113 -196l-340 -271q-82 -66 -81.5 -154.5t77.5 -121.5q47 -20 121 -11t123 44q29 20 64.5 80.5t48.5 111.5q0 22 25 31q15 5 16 -8v-4q-39 -170 -37 -213 q0 -31 -45 -54q-66 -29 -191 -36l-57 -4q-315 -23 -272 217zM631 878q-1 8 14 21q59 49 76 47q37 0 74 -45q2 -2 -15.5 -15.5t-39 -25.5t-23.5 -12q-47 29 -68 24q-18 -4 -18 6z" />
<glyph unicode="&#xc0;" horiz-adv-x="1572" d="M43 96q2 37 39 115q14 28 24 29q5 1 5.5 -4.5t-2.5 -12.5q-43 -96 -16.5 -142t104.5 -46q244 0 718 442q-39 2 -136 7t-136 5q-156 0 -207 -51q-20 -20 -31.5 -59t-1.5 -70l-15 3q-15 3 -26.5 9.5t-15.5 20.5q2 16 -2 25.5t5 21.5t12.5 19.5t16.5 16.5t20.5 14t22.5 13.5 t23.5 11.5t24.5 10t23 9q152 66 284 66q84 0 209 -6q135 131 311 317q156 164 318 207h-113q-326 0 -436 -94q-49 -43 -60.5 -100.5t21.5 -75.5q11 -7 -15 -17q-12 -5 -18 -2q-20 14 -35.5 57.5t-11.5 71.5q8 51 40 89t91.5 59.5t108.5 35t129 18.5t114.5 6t100.5 1h223 q4 0 2 -2q150 68 205 68q24 0 32 -15q4 -8 -10 -12q-10 -2 -28.5 -2t-28.5 -2t-29.5 -13.5t-42.5 -35.5q-68 -68 -213 -323t-235 -455q-137 -324 -19 -300q10 2 21 7q49 20 111 78q70 66 135 157q11 16 19.5 8t-3.5 -24l-14 -20q-14 -19 -22.5 -29.5t-27 -34t-32.5 -38.5 t-35.5 -36.5t-40 -37t-41 -30t-43.5 -24.5q-51 -29 -111.5 -13.5t-72.5 81.5q-18 100 63 276q86 182 216 419.5t194 321.5q-51 -2 -148.5 -57t-173.5 -133q-47 -49 -161.5 -176t-163.5 -180q123 -4 188 -4q85 -1 148 30q-4 -10 -11.5 -23.5t-38 -39t-67.5 -27.5 q-133 -8 -283 -2q-508 -524 -813 -524q-66 0 -104.5 38t-30.5 109zM1547 1456q-1 29 5 29q18 0 111 -80q84 -74 158 -129q-1 -1 2 -14q-25 4 -142 72.5t-127 86.5q-6 6 -7 35z" />
<glyph unicode="&#xc1;" horiz-adv-x="1572" d="M43 96q2 37 39 115q14 28 24 29q5 1 5.5 -4.5t-2.5 -12.5q-43 -96 -16.5 -142t104.5 -46q244 0 718 442q-39 2 -136 7t-136 5q-156 0 -207 -51q-20 -20 -31.5 -59t-1.5 -70l-15 3q-15 3 -26.5 9.5t-15.5 20.5q2 16 -2 25.5t5 21.5t12.5 19.5t16.5 16.5t20.5 14t22.5 13.5 t23.5 11.5t24.5 10t23 9q152 66 284 66q84 0 209 -6q135 131 311 317q156 164 318 207h-113q-326 0 -436 -94q-49 -43 -60.5 -100.5t21.5 -75.5q11 -7 -15 -17q-12 -5 -18 -2q-20 14 -35.5 57.5t-11.5 71.5q8 51 40 89t91.5 59.5t108.5 35t129 18.5t114.5 6t100.5 1h223 q4 0 2 -2q150 68 205 68q24 0 32 -15q4 -8 -10 -12q-10 -2 -28.5 -2t-28.5 -2t-29.5 -13.5t-42.5 -35.5q-68 -68 -213 -323t-235 -455q-137 -324 -19 -300q10 2 21 7q49 20 111 78q70 66 135 157q11 16 19.5 8t-3.5 -24l-14 -20q-14 -19 -22.5 -29.5t-27 -34t-32.5 -38.5 t-35.5 -36.5t-40 -37t-41 -30t-43.5 -24.5q-51 -29 -111.5 -13.5t-72.5 81.5q-18 100 63 276q86 182 216 419.5t194 321.5q-51 -2 -148.5 -57t-173.5 -133q-47 -49 -161.5 -176t-163.5 -180q123 -4 188 -4q85 -1 148 30q-4 -10 -11.5 -23.5t-38 -39t-67.5 -27.5 q-133 -8 -283 -2q-508 -524 -813 -524q-66 0 -104.5 38t-30.5 109zM1708 1262q-2 1 2 14q74 55 158 129q92 80 110 80q6 0 5 -29t-7 -35q-10 -18 -126.5 -86.5t-141.5 -72.5z" />
<glyph unicode="&#xc2;" horiz-adv-x="1572" d="M43 96q2 37 39 115q14 28 24 29q5 1 5.5 -4.5t-2.5 -12.5q-43 -96 -16.5 -142t104.5 -46q244 0 718 442q-39 2 -136 7t-136 5q-156 0 -207 -51q-20 -20 -31.5 -59t-1.5 -70l-15 3q-15 3 -26.5 9.5t-15.5 20.5q2 16 -2 25.5t5 21.5t12.5 19.5t16.5 16.5t20.5 14t22.5 13.5 t23.5 11.5t24.5 10t23 9q152 66 284 66q84 0 209 -6q135 131 311 317q156 164 318 207h-113q-326 0 -436 -94q-49 -43 -60.5 -100.5t21.5 -75.5q11 -7 -15 -17q-12 -5 -18 -2q-20 14 -35.5 57.5t-11.5 71.5q8 51 40 89t91.5 59.5t108.5 35t129 18.5t114.5 6t100.5 1h223 q4 0 2 -2q150 68 205 68q24 0 32 -15q4 -8 -10 -12q-10 -2 -28.5 -2t-28.5 -2t-29.5 -13.5t-42.5 -35.5q-68 -68 -213 -323t-235 -455q-137 -324 -19 -300q10 2 21 7q49 20 111 78q70 66 135 157q11 16 19.5 8t-3.5 -24l-14 -20q-14 -19 -22.5 -29.5t-27 -34t-32.5 -38.5 t-35.5 -36.5t-40 -37t-41 -30t-43.5 -24.5q-51 -29 -111.5 -13.5t-72.5 81.5q-18 100 63 276q86 182 216 419.5t194 321.5q-51 -2 -148.5 -57t-173.5 -133q-47 -49 -161.5 -176t-163.5 -180q123 -4 188 -4q85 -1 148 30q-4 -10 -11.5 -23.5t-38 -39t-67.5 -27.5 q-133 -8 -283 -2q-508 -524 -813 -524q-66 0 -104.5 38t-30.5 109zM1587 1276q150 100 232 172h24q49 -82 139 -143q27 -16 37 -17v-6q-12 -4 -43 -18q-20 -10 -86 45q-29 25 -80 86q0 6 -12 0q-23 -20 -88 -64.5t-94 -54.5q-11 -4 -29 0z" />
<glyph unicode="&#xc3;" horiz-adv-x="1572" d="M43 96q2 37 39 115q14 28 24 29q5 1 5.5 -4.5t-2.5 -12.5q-43 -96 -16.5 -142t104.5 -46q244 0 718 442q-39 2 -136 7t-136 5q-156 0 -207 -51q-20 -20 -31.5 -59t-1.5 -70l-15 3q-15 3 -26.5 9.5t-15.5 20.5q2 16 -2 25.5t5 21.5t12.5 19.5t16.5 16.5t20.5 14t22.5 13.5 t23.5 11.5t24.5 10t23 9q152 66 284 66q84 0 209 -6q135 131 311 317q156 164 318 207h-113q-326 0 -436 -94q-49 -43 -60.5 -100.5t21.5 -75.5q11 -7 -15 -17q-12 -5 -18 -2q-20 14 -35.5 57.5t-11.5 71.5q8 51 40 89t91.5 59.5t108.5 35t129 18.5t114.5 6t100.5 1h223 q4 0 2 -2q150 68 205 68q24 0 32 -15q4 -8 -10 -12q-10 -2 -28.5 -2t-28.5 -2t-29.5 -13.5t-42.5 -35.5q-68 -68 -213 -323t-235 -455q-137 -324 -19 -300q10 2 21 7q49 20 111 78q70 66 135 157q11 16 19.5 8t-3.5 -24l-14 -20q-14 -19 -22.5 -29.5t-27 -34t-32.5 -38.5 t-35.5 -36.5t-40 -37t-41 -30t-43.5 -24.5q-51 -29 -111.5 -13.5t-72.5 81.5q-18 100 63 276q86 182 216 419.5t194 321.5q-51 -2 -148.5 -57t-173.5 -133q-47 -49 -161.5 -176t-163.5 -180q123 -4 188 -4q85 -1 148 30q-4 -10 -11.5 -23.5t-38 -39t-67.5 -27.5 q-133 -8 -283 -2q-508 -524 -813 -524q-66 0 -104.5 38t-30.5 109zM1616 1309q10 33 41 60.5t63.5 27.5t83.5 -20.5t94 -24.5q47 -6 84 45h21q-12 -43 -40 -73t-54 -30q-43 0 -107.5 26t-99.5 26q-45 0 -62 -37h-24z" />
<glyph unicode="&#xc4;" horiz-adv-x="1572" d="M43 96q2 37 39 115q14 28 24 29q5 1 5.5 -4.5t-2.5 -12.5q-43 -96 -16.5 -142t104.5 -46q244 0 718 442q-39 2 -136 7t-136 5q-156 0 -207 -51q-20 -20 -31.5 -59t-1.5 -70l-15 3q-15 3 -26.5 9.5t-15.5 20.5q2 16 -2 25.5t5 21.5t12.5 19.5t16.5 16.5t20.5 14t22.5 13.5 t23.5 11.5t24.5 10t23 9q152 66 284 66q84 0 209 -6q135 131 311 317q156 164 318 207h-113q-326 0 -436 -94q-49 -43 -60.5 -100.5t21.5 -75.5q11 -7 -15 -17q-12 -5 -18 -2q-20 14 -35.5 57.5t-11.5 71.5q8 51 40 89t91.5 59.5t108.5 35t129 18.5t114.5 6t100.5 1h223 q4 0 2 -2q150 68 205 68q24 0 32 -15q4 -8 -10 -12q-10 -2 -28.5 -2t-28.5 -2t-29.5 -13.5t-42.5 -35.5q-68 -68 -213 -323t-235 -455q-137 -324 -19 -300q10 2 21 7q49 20 111 78q70 66 135 157q11 16 19.5 8t-3.5 -24l-14 -20q-14 -19 -22.5 -29.5t-27 -34t-32.5 -38.5 t-35.5 -36.5t-40 -37t-41 -30t-43.5 -24.5q-51 -29 -111.5 -13.5t-72.5 81.5q-18 100 63 276q86 182 216 419.5t194 321.5q-51 -2 -148.5 -57t-173.5 -133q-47 -49 -161.5 -176t-163.5 -180q123 -4 188 -4q85 -1 148 30q-4 -10 -11.5 -23.5t-38 -39t-67.5 -27.5 q-133 -8 -283 -2q-508 -524 -813 -524q-66 0 -104.5 38t-30.5 109zM1571 1376q-2 2 5 8.5t19.5 14.5t23.5 15t20.5 12.5t11.5 3.5q47 -29 67 -25q16 4 17 -5q1 -8 -13 -22q-59 -49 -77 -47q-41 2 -74 45zM1808 1376q-2 2 5.5 8.5t19.5 14.5t23.5 15t20.5 12.5t11 3.5 q47 -29 68 -25q16 4 17 -5q1 -8 -13 -22q-59 -49 -78 -47q-41 2 -74 45z" />
<glyph unicode="&#xc5;" horiz-adv-x="1572" d="M43 96q2 37 39 115q14 28 24 29q5 1 5.5 -4.5t-2.5 -12.5q-43 -96 -16.5 -142t104.5 -46q244 0 718 442q-39 2 -136 7t-136 5q-156 0 -207 -51q-20 -20 -31.5 -59t-1.5 -70l-15 3q-15 3 -26.5 9.5t-15.5 20.5q2 16 -2 25.5t5 21.5t12.5 19.5t16.5 16.5t20.5 14t22.5 13.5 t23.5 11.5t24.5 10t23 9q152 66 284 66q84 0 209 -6q135 131 311 317q156 164 318 207h-113q-326 0 -436 -94q-49 -43 -60.5 -100.5t21.5 -75.5q11 -7 -15 -17q-12 -5 -18 -2q-20 14 -35.5 57.5t-11.5 71.5q8 51 40 89t91.5 59.5t108.5 35t129 18.5t114.5 6t100.5 1h223 q4 0 2 -2q150 68 205 68q24 0 32 -15q4 -8 -10 -12q-10 -2 -28.5 -2t-28.5 -2t-29.5 -13.5t-42.5 -35.5q-68 -68 -213 -323t-235 -455q-137 -324 -19 -300q10 2 21 7q49 20 111 78q70 66 135 157q11 16 19.5 8t-3.5 -24l-14 -20q-14 -19 -22.5 -29.5t-27 -34t-32.5 -38.5 t-35.5 -36.5t-40 -37t-41 -30t-43.5 -24.5q-51 -29 -111.5 -13.5t-72.5 81.5q-18 100 63 276q86 182 216 419.5t194 321.5q-51 -2 -148.5 -57t-173.5 -133q-47 -49 -161.5 -176t-163.5 -180q123 -4 188 -4q85 -1 148 30q-4 -10 -11.5 -23.5t-38 -39t-67.5 -27.5 q-133 -8 -283 -2q-508 -524 -813 -524q-66 0 -104.5 38t-30.5 109zM1765 1319q6 31 33 71t55 46q35 53 97 53q35 0 51 -25.5t10 -56.5q-10 -57 -66.5 -103.5t-117.5 -46.5q-31 0 -48.5 16.5t-13.5 45.5zM1829 1319q-4 -31 22 -31q41 0 77 38t42 77q10 55 -28 55 q-20 0 -54 -20l17 -8q-8 -12 -39 -46t-37 -65z" />
<glyph unicode="&#xc6;" horiz-adv-x="2209" d="M43 96q2 37 39 115q14 28 24 29q5 1 5.5 -4.5t-2.5 -12.5q-43 -96 -16.5 -142t104.5 -46q244 0 718 442q-39 2 -136 7t-136 5q-156 0 -207 -51q-20 -20 -31.5 -59t-1.5 -70l-15 3q-15 3 -26.5 9.5t-15.5 20.5q2 16 -2 25.5t5 21.5t12.5 19.5t16.5 16.5t20.5 14t22.5 13.5 t23.5 11.5t24.5 10t23 9q152 66 284 66q84 0 209 -6q135 131 311 317q156 164 318 207h-113q-326 0 -436 -94q-49 -43 -60.5 -100.5t21.5 -75.5q11 -7 -15 -17q-12 -5 -18 -2q-20 14 -35.5 57.5t-11.5 71.5q8 51 40 89t91.5 59.5t108.5 35t129 18.5t114.5 6t100.5 1h231 q139 66 199 66q24 0 32 -15q4 -8 -10 -12q-10 -2 -25 -2t-25.5 -1t-27 -9t-34.5 -25q39 0 96 2t108.5 1t125.5 -5q51 -2 73.5 -21.5t17.5 -49t-18.5 -61.5t-33.5 -64q-7 -15 -11 -21q-15 -27 -35 -25q-9 1 -6 13q39 162 -53 190q-45 14 -219 6q-82 -6 -111 -43 q-63 -90 -250 -411q-8 -23 17 -23q31 0 142.5 -2t158.5 0q121 10 153 27q19 12 18 -4q-3 -32 -46 -64q-27 -20 -53 -20q-66 0 -192 5t-222 1q-20 -2 -29 -17q-10 -20 -33.5 -64t-40.5 -75q-100 -195 -100 -264q0 -109 205 -113q428 0 629 256q9 13 14 -6q3 -12 -2 -18 q-8 -10 -47 -60.5t-53.5 -66t-44 -47t-52 -47t-45.5 -21.5q-74 -23 -253 -29t-365 13q-104 10 -133 53t20 139l98 176q86 182 214 412.5t190 314.5q-51 -2 -148.5 -57t-173.5 -133q-47 -49 -161.5 -176t-163.5 -180q123 -4 188 -4q84 0 148 30q-4 -10 -11.5 -23.5t-38 -39 t-67.5 -27.5q-133 -8 -283 -2q-508 -524 -813 -524q-66 0 -104.5 38t-30.5 109z" />
<glyph unicode="&#xc7;" horiz-adv-x="1079" d="M78 276q0 193 106.5 376.5t274.5 310.5q215 162 465 161q113 0 188 -37q104 -49 88 -129q-6 -23 -40 -78t-44 -83q-4 -13 -31 -16q-7 2 -8 5q29 47 34 120t-21 122q-39 66 -153 66t-179 -33q-119 -43 -228 -135q-145 -129 -238 -308.5t-93 -336.5q0 -123 64.5 -194 t164.5 -85t202.5 -2t196.5 49q223 86 359 254q17 20 20.5 5.5t-16.5 -42.5q-129 -172 -346 -262q-156 -63 -336 -63q-51 -35 -51 -84q0 -29 39 -82.5t32 -96.5q-14 -76 -104 -115.5t-182 -39.5q-16 0 -13 16q0 12 19 12q2 0 28.5 1.5t50 5.5t51.5 13t48 31.5t27 57.5 q4 25 -32 82t-36 88q0 72 64 115q-164 12 -267.5 92t-103.5 239z" />
<glyph unicode="&#xc8;" horiz-adv-x="978" d="M80 43q-29 43 20 139q59 106 170 299t152 264q88 160 141 242q49 78 125 96q-263 -14 -358 -53q-65 -27 -86 -67q-23 -39 -20 -81t32 -61q8 -4 -4 -12q-8 -6 -14 -2q-18 10 -45 50t-33 67q-18 68 9.5 109.5t97 57t114.5 19.5t114 4h7q25 0 299 6t299 -4q51 -2 73.5 -21.5 t17.5 -49t-18.5 -61.5t-32.5 -64q-8 -15 -12 -21q-15 -27 -35 -25q-9 1 -6 13q39 162 -53 190q-45 14 -219 6q-82 -6 -110 -43q-63 -90 -250 -411q-8 -23 16 -23q31 0 142.5 -2t158.5 0q121 10 154 27q19 12 17 -4q-3 -32 -46 -64q-27 -20 -53 -20q-66 0 -192 5t-222 1 q-20 -2 -29 -17q-10 -20 -33.5 -64t-39.5 -75q-100 -195 -101 -264q0 -109 205 -113q428 0 629 256q9 13 14 -6q3 -12 -2 -18q-8 -10 -47 -60.5t-53.5 -66t-44 -47t-52 -47t-45.5 -21.5q-74 -23 -253 -29t-365 13q-104 10 -133 53zM734 1456q-1 29 5 29q18 0 111 -80 q84 -74 158 -129q-1 -1 2 -14q-25 4 -142 72.5t-127 86.5q-6 6 -7 35z" />
<glyph unicode="&#xc9;" horiz-adv-x="978" d="M80 43q-29 43 20 139q59 106 170 299t152 264q88 160 141 242q49 78 125 96q-263 -14 -358 -53q-65 -27 -86 -67q-23 -39 -20 -81t32 -61q8 -4 -4 -12q-8 -6 -14 -2q-18 10 -45 50t-33 67q-18 68 9.5 109.5t97 57t114.5 19.5t114 4h7q25 0 299 6t299 -4q51 -2 73.5 -21.5 t17.5 -49t-18.5 -61.5t-32.5 -64q-8 -15 -12 -21q-15 -27 -35 -25q-9 1 -6 13q39 162 -53 190q-45 14 -219 6q-82 -6 -110 -43q-63 -90 -250 -411q-8 -23 16 -23q31 0 142.5 -2t158.5 0q121 10 154 27q19 12 17 -4q-3 -32 -46 -64q-27 -20 -53 -20q-66 0 -192 5t-222 1 q-20 -2 -29 -17q-10 -20 -33.5 -64t-39.5 -75q-100 -195 -101 -264q0 -109 205 -113q428 0 629 256q9 13 14 -6q3 -12 -2 -18q-8 -10 -47 -60.5t-53.5 -66t-44 -47t-52 -47t-45.5 -21.5q-74 -23 -253 -29t-365 13q-104 10 -133 53zM903 1262q-2 1 2 14q74 55 158 129 q92 80 111 80q6 0 4.5 -29t-7.5 -35q-10 -18 -126.5 -86.5t-141.5 -72.5z" />
<glyph unicode="&#xca;" horiz-adv-x="978" d="M80 43q-29 43 20 139q59 106 170 299t152 264q88 160 141 242q49 78 125 96q-263 -14 -358 -53q-65 -27 -86 -67q-23 -39 -20 -81t32 -61q8 -4 -4 -12q-8 -6 -14 -2q-18 10 -45 50t-33 67q-18 68 9.5 109.5t97 57t114.5 19.5t114 4h7q25 0 299 6t299 -4q51 -2 73.5 -21.5 t17.5 -49t-18.5 -61.5t-32.5 -64q-8 -15 -12 -21q-15 -27 -35 -25q-9 1 -6 13q39 162 -53 190q-45 14 -219 6q-82 -6 -110 -43q-63 -90 -250 -411q-8 -23 16 -23q31 0 142.5 -2t158.5 0q121 10 154 27q19 12 17 -4q-3 -32 -46 -64q-27 -20 -53 -20q-66 0 -192 5t-222 1 q-20 -2 -29 -17q-10 -20 -33.5 -64t-39.5 -75q-100 -195 -101 -264q0 -109 205 -113q428 0 629 256q9 13 14 -6q3 -12 -2 -18q-8 -10 -47 -60.5t-53.5 -66t-44 -47t-52 -47t-45.5 -21.5q-74 -23 -253 -29t-365 13q-104 10 -133 53zM713 1276q150 100 231 172h25 q49 -82 139 -143q27 -16 37 -17v-6q-12 -4 -43 -18q-20 -10 -86 45q-29 25 -80 86q0 6 -12 0q-23 -20 -88.5 -64.5t-94.5 -54.5q-10 -4 -28 0z" />
<glyph unicode="&#xcb;" horiz-adv-x="978" d="M80 43q-29 43 20 139q59 106 170 299t152 264q88 160 141 242q49 78 125 96q-263 -14 -358 -53q-65 -27 -86 -67q-23 -39 -20 -81t32 -61q8 -4 -4 -12q-8 -6 -14 -2q-18 10 -45 50t-33 67q-18 68 9.5 109.5t97 57t114.5 19.5t114 4h7q25 0 299 6t299 -4q51 -2 73.5 -21.5 t17.5 -49t-18.5 -61.5t-32.5 -64q-8 -15 -12 -21q-15 -27 -35 -25q-9 1 -6 13q39 162 -53 190q-45 14 -219 6q-82 -6 -110 -43q-63 -90 -250 -411q-8 -23 16 -23q31 0 142.5 -2t158.5 0q121 10 154 27q19 12 17 -4q-3 -32 -46 -64q-27 -20 -53 -20q-66 0 -192 5t-222 1 q-20 -2 -29 -17q-10 -20 -33.5 -64t-39.5 -75q-100 -195 -101 -264q0 -109 205 -113q428 0 629 256q9 13 14 -6q3 -12 -2 -18q-8 -10 -47 -60.5t-53.5 -66t-44 -47t-52 -47t-45.5 -21.5q-74 -23 -253 -29t-365 13q-104 10 -133 53zM735 1376q0 2 3 5t10.5 8.5t15.5 11.5 t16 11t15.5 9t12.5 6.5t7 2.5q47 -29 68 -25q16 4 17 -5q1 -8 -13 -22q-59 -49 -78 -47q-41 2 -74 45zM973 1376q0 2 3 5t10 8.5t15.5 11.5t16.5 11t15 9t12.5 6.5t7.5 2.5q47 -29 67 -25q16 4 17 -5q1 -8 -13 -22q-59 -49 -77 -47q-41 2 -74 45z" />
<glyph unicode="&#xcc;" horiz-adv-x="747" d="M20 240q0 27 10 29q8 1 12 -11q1 -3 1 -6q0 -94 46 -144.5t122 -50.5q129 0 264 146q35 37 66.5 79t54 71.5t54.5 85t44.5 76t46 89t38.5 78.5t43 92t40 86q66 137 164 203h-61q-45 0 -88 -4t-104.5 -17.5t-96.5 -49.5t-31 -87q4 -35 25 -78l-21 -16q-80 139 -82 154 q-6 74 35 110q27 23 83 33t104.5 9t116 -4t83.5 -3l328 2l-27 -31q-63 0 -137 -14q-53 -8 -115.5 -56t-105.5 -120l-19 -31q-14 -33 -67 -162t-90 -213t-102.5 -194.5t-129.5 -177.5q-51 -57 -130 -95t-148 -38q-68 0 -124 37.5t-83 107.5q-18 45 -19 115zM773 1456 q-1 29 5 29q18 0 111 -80q84 -74 158 -129q-1 -1 2 -14q-25 4 -142 72.5t-127 86.5q-6 6 -7 35z" />
<glyph unicode="&#xcd;" horiz-adv-x="747" d="M20 240q0 27 10 29q8 1 12 -11q1 -3 1 -6q0 -94 46 -144.5t122 -50.5q129 0 264 146q35 37 66.5 79t54 71.5t54.5 85t44.5 76t46 89t38.5 78.5t43 92t40 86q66 137 164 203h-61q-45 0 -88 -4t-104.5 -17.5t-96.5 -49.5t-31 -87q4 -35 25 -78l-21 -16q-80 139 -82 154 q-6 74 35 110q27 23 83 33t104.5 9t116 -4t83.5 -3l328 2l-27 -31q-63 0 -137 -14q-53 -8 -115.5 -56t-105.5 -120l-19 -31q-14 -33 -67 -162t-90 -213t-102.5 -194.5t-129.5 -177.5q-51 -57 -130 -95t-148 -38q-68 0 -124 37.5t-83 107.5q-18 45 -19 115zM985 1262 q-2 1 2 14q74 55 158 129q92 80 110 80q6 0 5 -29t-7 -35q-10 -18 -126.5 -86.5t-141.5 -72.5z" />
<glyph unicode="&#xce;" horiz-adv-x="747" d="M20 240q0 27 10 29q8 1 12 -11q1 -3 1 -6q0 -94 46 -144.5t122 -50.5q129 0 264 146q35 37 66.5 79t54 71.5t54.5 85t44.5 76t46 89t38.5 78.5t43 92t40 86q66 137 164 203h-61q-45 0 -88 -4t-104.5 -17.5t-96.5 -49.5t-31 -87q4 -35 25 -78l-21 -16q-80 139 -82 154 q-6 74 35 110q27 23 83 33t104.5 9t116 -4t83.5 -3l328 2l-27 -31q-63 0 -137 -14q-53 -8 -115.5 -56t-105.5 -120l-19 -31q-14 -33 -67 -162t-90 -213t-102.5 -194.5t-129.5 -177.5q-51 -57 -130 -95t-148 -38q-68 0 -124 37.5t-83 107.5q-18 45 -19 115zM815 1276 q150 100 232 172h24q49 -82 139 -143q27 -16 37 -17v-6q-12 -4 -43 -18q-20 -10 -86 45q-29 25 -80 86q0 6 -12 0q-23 -20 -88.5 -64.5t-93.5 -54.5q-11 -4 -29 0z" />
<glyph unicode="&#xcf;" horiz-adv-x="747" d="M20 240q0 27 10 29q8 1 12 -11q1 -3 1 -6q0 -94 46 -144.5t122 -50.5q129 0 264 146q35 37 66.5 79t54 71.5t54.5 85t44.5 76t46 89t38.5 78.5t43 92t40 86q66 137 164 203h-61q-45 0 -88 -4t-104.5 -17.5t-96.5 -49.5t-31 -87q4 -35 25 -78l-21 -16q-80 139 -82 154 q-6 74 35 110q27 23 83 33t104.5 9t116 -4t83.5 -3l328 2l-27 -31q-63 0 -137 -14q-53 -8 -115.5 -56t-105.5 -120l-19 -31q-14 -33 -67 -162t-90 -213t-102.5 -194.5t-129.5 -177.5q-51 -57 -130 -95t-148 -38q-68 0 -124 37.5t-83 107.5q-18 45 -19 115zM825 1376q0 2 3 5 t10.5 8.5t15.5 11.5t16.5 11t15.5 9t12 6.5t7 2.5q47 -29 68 -25q16 4 17 -5q1 -8 -13 -22q-59 -49 -78 -47q-41 2 -74 45zM1063 1376q-2 2 5 8.5t19.5 14.5t23.5 15t20.5 12.5t11.5 3.5q47 -29 67 -25q16 4 17 -5q1 -8 -13 -22q-59 -49 -77 -47q-41 2 -74 45z" />
<glyph unicode="&#xd0;" horiz-adv-x="1282" d="M-4 -27l4 7q13 4 13 3t14 3q66 23 104 92q106 178 229 409q-94 -4 -153 -8q-12 -2 23 39q26 30 38 29q27 -6 119 -10l105 194l92 178q29 66 47 97q31 51 121 81h-50q-135 0 -289.5 -27.5t-191.5 -96.5q-20 -37 -20 -72q0 -25 9 -41t18.5 -23.5t9.5 -9.5q0 -12 -16.5 -12 t-47.5 48t-37 70.5t-6 45.5q0 145 336 145q70 0 205 5t202 5q84 0 153 -8t141.5 -31.5t121.5 -61.5t80 -105.5t31 -157.5q0 -209 -139 -418q-250 -375 -701 -375q-158 0 -278 62q-37 18 -62 18q-37 0 -104.5 -43t-96.5 -43q-25 0 -24 12zM299 123q0 -37 51 -80 q61 -47 187 -47q227 0 408 130t269 343q61 156 62 279q0 158 -96.5 245.5t-255.5 87.5q-109 0 -150 -47q-33 -37 -96 -147q-29 -49 -57.5 -105.5t-63.5 -128t-53 -106.5l-6 -10q81 0 159 8q13 0 -24 -43q-24 -27 -35 -25q-14 0 -56 4t-71 6l-100 -200q-41 -78 -60 -117 q-12 -29 -12 -47z" />
<glyph unicode="&#xd1;" horiz-adv-x="1476" d="M12 240q0 30 10.5 29t10.5 -17q0 -96 52 -159.5t128 -63.5q147 0 272 131q53 57 97.5 120.5t85.5 147.5t62.5 132t66.5 158.5t57 141.5q33 80 88 137.5t127 69.5h-113q-326 0 -391 -94q-29 -45 -11.5 -100.5t60.5 -75.5q12 -6 -5 -16q-11 -6 -19 -3q-27 14 -65 58.5 t-46 70.5q-25 74 14 120t136.5 63.5t160 21.5t159.5 4h9h248q18 2 -16 -40q-18 -23 -27 -21q-23 2 -63.5 -7.5t-57.5 -21.5q12 -150 83 -394.5t155 -455.5q25 61 121 325.5t180 451t156 253.5q31 29 78 42.5t81.5 1t32.5 -49.5l-2 -74l-18 -5q2 24 -18.5 37t-39.5 13 q-47 2 -107.5 -70.5t-127 -208.5t-111.5 -239.5t-105.5 -258t-68.5 -173.5q-27 -61 -18 -108q0 -6 4 -19.5t4 -19.5q6 -23 -14 -39q-20 -14 -45 -25q-14 -6 -39 -30.5t-33 -36.5q-8 -11 -21 1q-3 3 -2 5q23 31 41 84q-18 100 -53 229t-61.5 219t-76.5 246t-69 215 q-20 -14 -51 -106q-2 -6 -27.5 -75t-35 -91.5t-37 -90t-43 -101.5t-45 -94t-54 -100t-56.5 -87t-62 -84q-45 -55 -136.5 -94t-162.5 -39q-66 0 -123.5 36.5t-85.5 108.5q-16 47 -17 115zM1249 1309q10 33 41 60.5t63.5 27.5t84 -20.5t94.5 -24.5q47 -6 84 45h20 q-12 -43 -39.5 -73t-54.5 -30q-43 0 -107.5 26t-99.5 26q-45 0 -61 -37h-25z" />
<glyph unicode="&#xd2;" horiz-adv-x="1216" d="M14 299q0 88 33 194.5t103.5 220t167 207t237.5 154t301 60.5q244 0 357.5 -79t113.5 -245q0 -213 -114.5 -406.5t-312.5 -311.5t-425 -118q-461 0 -461 324zM123 281q0 -274 336 -275q201 0 378 127t275 316.5t98 379.5q0 274 -350 275q-174 0 -349 -139.5t-281.5 -332 t-106.5 -351.5zM792 1456q-1 29 5 29q18 0 110 -80q84 -74 158 -129q-1 -1 2 -14q-25 4 -141.5 72.5t-126.5 86.5q-6 6 -7 35z" />
<glyph unicode="&#xd3;" horiz-adv-x="1216" d="M14 299q0 88 33 194.5t103.5 220t167 207t237.5 154t301 60.5q244 0 357.5 -79t113.5 -245q0 -213 -114.5 -406.5t-312.5 -311.5t-425 -118q-461 0 -461 324zM123 281q0 -274 336 -275q201 0 378 127t275 316.5t98 379.5q0 274 -350 275q-174 0 -349 -139.5t-281.5 -332 t-106.5 -351.5zM940 1262q-2 1 2 14q74 55 158 129q92 80 110 80q6 0 5 -29t-7 -35q-10 -18 -126.5 -86.5t-141.5 -72.5z" />
<glyph unicode="&#xd4;" horiz-adv-x="1216" d="M14 299q0 88 33 194.5t103.5 220t167 207t237.5 154t301 60.5q244 0 357.5 -79t113.5 -245q0 -213 -114.5 -406.5t-312.5 -311.5t-425 -118q-461 0 -461 324zM123 281q0 -274 336 -275q201 0 378 127t275 316.5t98 379.5q0 274 -350 275q-174 0 -349 -139.5t-281.5 -332 t-106.5 -351.5zM786 1276q150 100 232 172h24q49 -82 140 -143q27 -16 37 -17v-6q-12 -4 -43 -18q-20 -10 -86 45q-29 25 -80 86q0 6 -13 0q-23 -20 -88 -64.5t-94 -54.5q-11 -4 -29 0z" />
<glyph unicode="&#xd5;" horiz-adv-x="1216" d="M14 299q0 88 33 194.5t103.5 220t167 207t237.5 154t301 60.5q244 0 357.5 -79t113.5 -245q0 -213 -114.5 -406.5t-312.5 -311.5t-425 -118q-461 0 -461 324zM123 281q0 -274 336 -275q201 0 378 127t275 316.5t98 379.5q0 274 -350 275q-174 0 -349 -139.5t-281.5 -332 t-106.5 -351.5zM831 1309q10 33 41 60.5t64 27.5t84 -20.5t94 -24.5q47 -6 84 45h21q-12 -43 -40 -73t-55 -30q-43 0 -107.5 26t-98.5 26q-45 0 -62 -37h-25z" />
<glyph unicode="&#xd6;" horiz-adv-x="1216" d="M14 299q0 88 33 194.5t103.5 220t167 207t237.5 154t301 60.5q244 0 357.5 -79t113.5 -245q0 -213 -114.5 -406.5t-312.5 -311.5t-425 -118q-461 0 -461 324zM123 281q0 -274 336 -275q201 0 378 127t275 316.5t98 379.5q0 274 -350 275q-174 0 -349 -139.5t-281.5 -332 t-106.5 -351.5zM838 1376q0 2 3 5t10 8.5t15 11.5t16.5 11t15.5 9t12.5 6.5t7.5 2.5q47 -29 67 -25q16 4 17 -5q1 -8 -13 -22q-59 -49 -78 -47q-41 2 -73 45zM1075 1376q-2 2 5 8.5t19.5 14.5t24 15t20.5 12.5t11 3.5q47 -29 68 -25q16 4 17 -5q1 -8 -13 -22 q-59 -49 -78 -47q-41 2 -74 45z" />
<glyph unicode="&#xd7;" horiz-adv-x="872" d="M113 217q-4 78 12 90q31 18 270 217q-41 35 -150.5 122t-119.5 95q-18 9 -11 92l5 17q47 -43 156.5 -138.5t164.5 -148.5q176 150 322 287l5 -17q6 -79 -11 -92q-180 -139 -271 -217q240 -199 271 -217q18 -13 13 -92q-2 -17 -5 -16q-51 47 -324 286q-39 -33 -323 -286z " />
<glyph unicode="&#xd8;" horiz-adv-x="1216" d="M10 -57q37 41 111 118q-106 80 -107 238q0 88 33 194.5t103.5 220t167 207t237.5 154t301 60.5q180 0 287 -43l82 73q10 13 77 5l13 -5q-53 -45 -113 -102q125 -80 125 -252q0 -213 -114.5 -406.5t-312.5 -311.5t-425 -118q-193 0 -309 60q-18 -18 -86 -92 q-18 -20 -60 -12q-17 4 -10 12zM123 281q0 -104 45 -168q547 575 932 938q-84 53 -240 53q-174 0 -349 -139.5t-281.5 -331.5t-106.5 -352zM205 74q80 -68 254 -68q201 0 378 127t275 316.5t98 379.5q0 119 -61 183q-416 -395 -944 -938z" />
<glyph unicode="&#xd9;" horiz-adv-x="1251" d="M16 965q-10 72 35 110q27 23 83 33t103.5 9t115 -4t85.5 -3q289 2 471 2l-26 -31q-100 0 -146 -57q-115 -150 -261 -461t-165 -465q-6 -57 47.5 -68.5t106.5 21.5q111 55 230.5 180t213.5 256q166 238 291 512q4 6 15.5 36t21.5 42.5t25 9.5q35 -8 71 -2q41 6 88 50 q11 9 24 -2q5 -4 1 -7q-72 -57 -143 -168q-305 -463 -377 -686q-92 -291 104 -256q68 10 184 127q63 57 146 162q4 -8 4 -16q-2 -25 -27 -53q-41 -53 -106 -123q-59 -59 -143 -114.5t-150 -51.5q-74 4 -103.5 48t-19.5 116.5t29.5 136t51.5 141.5q1 7 3 8q-57 -68 -184 -190 q-141 -137 -203 -182q-115 -80 -219 -78q-63 0 -89 27.5t-23 61.5t24 85q45 113 119 254q6 12 40.5 78.5t51 100.5t49.5 101.5t50 112.5t38.5 103.5t31 105.5t9.5 86h-180q-45 0 -88 -4t-104.5 -17.5t-97.5 -49.5t-32 -87q4 -49 27 -78l-23 -16q-2 4 -28.5 47t-39 67.5 t-12.5 39.5zM882 1456q-1 29 5 29q18 0 110 -80q84 -74 158 -129q-1 -1 2 -14q-25 4 -141.5 72.5t-126.5 86.5q-6 6 -7 35z" />
<glyph unicode="&#xda;" horiz-adv-x="1251" d="M16 965q-10 72 35 110q27 23 83 33t103.5 9t115 -4t85.5 -3q289 2 471 2l-26 -31q-100 0 -146 -57q-115 -150 -261 -461t-165 -465q-6 -57 47.5 -68.5t106.5 21.5q111 55 230.5 180t213.5 256q166 238 291 512q4 6 15.5 36t21.5 42.5t25 9.5q35 -8 71 -2q41 6 88 50 q11 9 24 -2q5 -4 1 -7q-72 -57 -143 -168q-305 -463 -377 -686q-92 -291 104 -256q68 10 184 127q63 57 146 162q4 -8 4 -16q-2 -25 -27 -53q-41 -53 -106 -123q-59 -59 -143 -114.5t-150 -51.5q-74 4 -103.5 48t-19.5 116.5t29.5 136t51.5 141.5q1 7 3 8q-57 -68 -184 -190 q-141 -137 -203 -182q-115 -80 -219 -78q-63 0 -89 27.5t-23 61.5t24 85q45 113 119 254q6 12 40.5 78.5t51 100.5t49.5 101.5t50 112.5t38.5 103.5t31 105.5t9.5 86h-180q-45 0 -88 -4t-104.5 -17.5t-97.5 -49.5t-32 -87q4 -49 27 -78l-23 -16q-2 4 -28.5 47t-39 67.5 t-12.5 39.5zM993 1262q-2 1 2 14q74 55 158 129q92 80 111 80q6 0 5 -29t-7 -35q-10 -18 -127 -86.5t-142 -72.5z" />
<glyph unicode="&#xdb;" horiz-adv-x="1251" d="M16 965q-10 72 35 110q27 23 83 33t103.5 9t115 -4t85.5 -3q289 2 471 2l-26 -31q-100 0 -146 -57q-115 -150 -261 -461t-165 -465q-6 -57 47.5 -68.5t106.5 21.5q111 55 230.5 180t213.5 256q166 238 291 512q4 6 15.5 36t21.5 42.5t25 9.5q35 -8 71 -2q41 6 88 50 q11 9 24 -2q5 -4 1 -7q-72 -57 -143 -168q-305 -463 -377 -686q-92 -291 104 -256q68 10 184 127q63 57 146 162q4 -8 4 -16q-2 -25 -27 -53q-41 -53 -106 -123q-59 -59 -143 -114.5t-150 -51.5q-74 4 -103.5 48t-19.5 116.5t29.5 136t51.5 141.5q1 7 3 8q-57 -68 -184 -190 q-141 -137 -203 -182q-115 -80 -219 -78q-63 0 -89 27.5t-23 61.5t24 85q45 113 119 254q6 12 40.5 78.5t51 100.5t49.5 101.5t50 112.5t38.5 103.5t31 105.5t9.5 86h-180q-45 0 -88 -4t-104.5 -17.5t-97.5 -49.5t-32 -87q4 -49 27 -78l-23 -16q-2 4 -28.5 47t-39 67.5 t-12.5 39.5zM893 1276q150 100 231 172h25q49 -82 139 -143q27 -16 37 -17v-6q-12 -4 -43 -18q-20 -10 -86 45q-29 25 -80 86q0 6 -12 0q-23 -20 -88.5 -64.5t-93.5 -54.5q-11 -4 -29 0z" />
<glyph unicode="&#xdc;" horiz-adv-x="1251" d="M16 965q-10 72 35 110q27 23 83 33t103.5 9t115 -4t85.5 -3q289 2 471 2l-26 -31q-100 0 -146 -57q-115 -150 -261 -461t-165 -465q-6 -57 47.5 -68.5t106.5 21.5q111 55 230.5 180t213.5 256q166 238 291 512q4 6 15.5 36t21.5 42.5t25 9.5q35 -8 71 -2q41 6 88 50 q11 9 24 -2q5 -4 1 -7q-72 -57 -143 -168q-305 -463 -377 -686q-92 -291 104 -256q68 10 184 127q63 57 146 162q4 -8 4 -16q-2 -25 -27 -53q-41 -53 -106 -123q-59 -59 -143 -114.5t-150 -51.5q-74 4 -103.5 48t-19.5 116.5t29.5 136t51.5 141.5q1 7 3 8q-57 -68 -184 -190 q-141 -137 -203 -182q-115 -80 -219 -78q-63 0 -89 27.5t-23 61.5t24 85q45 113 119 254q6 12 40.5 78.5t51 100.5t49.5 101.5t50 112.5t38.5 103.5t31 105.5t9.5 86h-180q-45 0 -88 -4t-104.5 -17.5t-97.5 -49.5t-32 -87q4 -49 27 -78l-23 -16q-2 4 -28.5 47t-39 67.5 t-12.5 39.5zM907 1376q0 2 3 5t10.5 8.5t15.5 11.5t16.5 11t15.5 9t12 6.5t7 2.5q47 -29 68 -25q16 4 17 -5q1 -8 -13 -22q-59 -49 -78 -47q-41 2 -74 45zM1145 1376q-2 2 5 8.5t19.5 14.5t23.5 15t20.5 12.5t11.5 3.5q47 -29 67 -25q16 4 17 -5q1 -8 -13 -22 q-59 -49 -77 -47q-41 2 -74 45z" />
<glyph unicode="&#xdd;" horiz-adv-x="925" d="M16 182q0 30 10.5 29t10.5 -18q0 -92 47 -143.5t123 -51.5q209 0 430 317q-25 -14 -41 -14q-10 0 -16.5 3t-4.5 13q0 2 2.5 6.5t4.5 9.5t2 7l22 70q27 100 41.5 211.5t2 243.5t-69.5 198h-50q-45 0 -88 -4t-104.5 -17.5t-96 -49.5t-30.5 -87q4 -35 25 -78l-21 -16 q-80 139 -82 154q-6 74 35 110q27 23 83 33t104 9t116 -4t84 -3q145 2 328 2l-43 -53q-72 0 -224 4q84 -55 111 -184t14.5 -244t-43.5 -221q14 20 154.5 231t226.5 309q53 61 87 96t101.5 79.5t123.5 41.5q54 -4 79 -55q8 -16 10.5 -34.5t-2.5 -37t-8.5 -28.5t-11.5 -28 l-8 -17q-4 -11 -13 -7q-4 2 -3 7q12 51 -7.5 93t-64.5 44q-98 2 -258 -182q-100 -117 -189.5 -246t-132.5 -200.5t-151 -260.5q-78 -137 -171 -218t-220 -81q-66 0 -122.5 37t-84.5 109q-16 39 -17 116zM958 1262q-2 1 3 14q74 55 157 129q92 80 111 80q6 0 5 -29t-7 -35 q-10 -18 -127 -86.5t-142 -72.5z" />
<glyph unicode="&#xde;" horiz-adv-x="1107" d="M-114 -276q-2 5 3 8q84 14 131 98q92 156 166 291q63 121 195 362q17 31 88 162q291 534 311 535q12 4 76 31.5t104.5 41t73.5 13.5q24 0 31 -15q4 -9 -10 -12q-10 -2 -28.5 -2t-29 -2t-32 -13.5t-45.5 -35.5q-70 -63 -230 -318q200 0 273 -25q67 -23 98 -69 q68 -104 32 -204.5t-116 -174t-178 -112.5q-94 -39 -243.5 -48.5t-209.5 1.5q-205 -383 -178 -447q9 -19 -25 -6q-61 16 -92 0q-8 -4 -51 -30.5t-76 -37.5q-30 -7 -38 9zM371 279q53 -12 143 -1t180 33.5t170 85t111 152.5q37 98 2 185t-121 100q-51 6 -109.5 -3.5 t-82.5 -44.5q-23 -30 -261 -448z" />
<glyph unicode="&#xdf;" horiz-adv-x="944" d="M-615 -342q-1 10 1 23.5t4 22.5t8 27.5t8 25.5t11.5 30t11.5 29q4 10 11 12t11 -4t0 -17q-27 -61 -4 -113t73 -76t115.5 -28t124.5 29q145 76 267 301q43 80 81.5 178.5t83 219t70.5 188.5h-47q-2 0 -45 -6l-4 2q4 20 39 38.5t57 18.5h25q168 418 348 580 q120 106 274 112q123 0 202 -68.5t79 -165.5t-80 -202q-102 -117 -293 -137q-61 -10 -82.5 -35t-4 -59.5t41 -64.5t61 -69.5t50.5 -56.5q114 -151 6 -293q-85 -111 -238 -141q-171 -34 -260 71q-28 34 -43 81q-12 39 8.5 97t53.5 87q6 2 12 0t8 -6t0 -8q-10 -16 -16 -48 q-12 -111 58.5 -172t168.5 -61q84 0 135 43t58 123q8 76 -24 140.5t-85 129t-70 99.5q-51 100 103 157q213 47 299 160q55 72 60 158t-48 148.5t-154 62.5q-127 0 -239 -109q-90 -86 -177 -264t-181.5 -426t-131.5 -328q-35 -78 -73.5 -147.5t-97 -147.5t-119 -133 t-140.5 -92t-162 -37q-170 0 -206 103q-2 8 -3 18z" />
<glyph unicode="&#xe0;" d="M6 41q0 10 2 14q14 117 94 246t179 205q70 53 153 53h236q10 0 10 -8q0 -16 -18 -16q-29 0 -72 -68q-43 -66 -113.5 -204t-70.5 -181q0 -29 28 -29q12 0 27.5 6.5t34 18.5t33 24.5t35.5 33.5l34 34q12 12 34.5 39t30 35t27.5 34l21 25q14 -14 -25 -67 q-182 -242 -338 -242q-49 0 -49 39q0 72 80 196q-72 -76 -150 -143q-106 -90 -186 -90q-37 0 -37 45zM111 90q0 -25 16 -24q59 0 212 181t153 247q0 39 -48 38q-57 0 -131 -69q-53 -49 -127.5 -181t-74.5 -192zM335 880.5q-1 28.5 5 28.5q18 0 111 -80q84 -74 157 -129 q-1 -1 2 -14q-25 4 -141.5 73t-126.5 87q-6 6 -7 34.5z" />
<glyph unicode="&#xe1;" d="M6 41q0 10 2 14q14 117 94 246t179 205q70 53 153 53h236q10 0 10 -8q0 -16 -18 -16q-29 0 -72 -68q-43 -66 -113.5 -204t-70.5 -181q0 -29 28 -29q12 0 27.5 6.5t34 18.5t33 24.5t35.5 33.5l34 34q12 12 34.5 39t30 35t27.5 34l21 25q14 -14 -25 -67 q-182 -242 -338 -242q-49 0 -49 39q0 72 80 196q-72 -76 -150 -143q-106 -90 -186 -90q-37 0 -37 45zM111 90q0 -25 16 -24q59 0 212 181t153 247q0 39 -48 38q-57 0 -131 -69q-53 -49 -127.5 -181t-74.5 -192zM496 686q-2 1 2 14q74 55 157 129q92 80 111 80q6 0 5 -28.5 t-7 -34.5q-10 -18 -127 -87t-141 -73z" />
<glyph unicode="&#xe2;" d="M6 41q0 10 2 14q14 117 94 246t179 205q70 53 153 53h236q10 0 10 -8q0 -16 -18 -16q-29 0 -72 -68q-43 -66 -113.5 -204t-70.5 -181q0 -29 28 -29q12 0 27.5 6.5t34 18.5t33 24.5t35.5 33.5l34 34q12 12 34.5 39t30 35t27.5 34l21 25q14 -14 -25 -67 q-182 -242 -338 -242q-49 0 -49 39q0 72 80 196q-72 -76 -150 -143q-106 -90 -186 -90q-37 0 -37 45zM111 90q0 -25 16 -24q59 0 212 181t153 247q0 39 -48 38q-57 0 -131 -69q-53 -49 -127.5 -181t-74.5 -192zM324 700q150 100 231 172h25q49 -82 139 -143q27 -16 37 -16 v-6q-12 -2 -43 -19q-20 -10 -86 45q-29 25 -80 86q0 6 -12 0q-23 -20 -88.5 -64t-94.5 -55q-10 -4 -28 0z" />
<glyph unicode="&#xe3;" d="M6 41q0 10 2 14q14 117 94 246t179 205q70 53 153 53h236q10 0 10 -8q0 -16 -18 -16q-29 0 -72 -68q-43 -66 -113.5 -204t-70.5 -181q0 -29 28 -29q12 0 27.5 6.5t34 18.5t33 24.5t35.5 33.5l34 34q12 12 34.5 39t30 35t27.5 34l21 25q14 -14 -25 -67 q-182 -242 -338 -242q-49 0 -49 39q0 72 80 196q-72 -76 -150 -143q-106 -90 -186 -90q-37 0 -37 45zM111 90q0 -25 16 -24q59 0 212 181t153 247q0 39 -48 38q-57 0 -131 -69q-53 -49 -127.5 -181t-74.5 -192zM379 733q10 33 41 60.5t63.5 27.5t83.5 -20.5t95 -24.5 q46 -6 83 45h21q-12 -43 -40 -72.5t-54 -29.5q-43 0 -107.5 25.5t-99.5 25.5q-45 0 -62 -37h-24z" />
<glyph unicode="&#xe4;" d="M6 41q0 10 2 14q14 117 94 246t179 205q70 53 153 53h236q10 0 10 -8q0 -16 -18 -16q-29 0 -72 -68q-43 -66 -113.5 -204t-70.5 -181q0 -29 28 -29q12 0 27.5 6.5t34 18.5t33 24.5t35.5 33.5l34 34q12 12 34.5 39t30 35t27.5 34l21 25q14 -14 -25 -67 q-182 -242 -338 -242q-49 0 -49 39q0 72 80 196q-72 -76 -150 -143q-106 -90 -186 -90q-37 0 -37 45zM111 90q0 -25 16 -24q59 0 212 181t153 247q0 39 -48 38q-57 0 -131 -69q-53 -49 -127.5 -181t-74.5 -192zM360 801q-2 2 5.5 8t19.5 14t23.5 15.5t20.5 12.5t11 3 q47 -29 68 -25q16 4 17 -5q1 -8 -13 -21q-59 -49 -78 -47q-41 2 -74 45zM598 801q0 2 3 5t10 8t15.5 11t16.5 11.5t15.5 9.5t12.5 6t7 2q47 -29 67 -25q16 4 17 -5q1 -8 -12 -21q-59 -49 -78 -47q-41 2 -74 45z" />
<glyph unicode="&#xe5;" d="M6 41q0 10 2 14q14 117 94 246t179 205q70 53 153 53h236q10 0 10 -8q0 -16 -18 -16q-29 0 -72 -68q-43 -66 -113.5 -204t-70.5 -181q0 -29 28 -29q12 0 27.5 6.5t34 18.5t33 24.5t35.5 33.5l34 34q12 12 34.5 39t30 35t27.5 34l21 25q14 -14 -25 -67 q-182 -242 -338 -242q-49 0 -49 39q0 72 80 196q-72 -76 -150 -143q-106 -90 -186 -90q-37 0 -37 45zM111 90q0 -25 16 -24q59 0 212 181t153 247q0 39 -48 38q-57 0 -131 -69q-53 -49 -127.5 -181t-74.5 -192zM487 743q6 31 33 71t55 46q35 53 97 53q35 0 51 -25.5 t10 -56.5q-10 -57 -66.5 -103t-117.5 -46q-31 0 -48.5 16.5t-13.5 44.5zM551 743q-4 -31 22 -30q41 0 77 37.5t42 76.5q10 55 -28 56q-20 0 -54 -21l17 -8q-8 -12 -39 -46t-37 -65z" />
<glyph unicode="&#xe6;" horiz-adv-x="813" d="M6 41q0 10 2 14q14 117 94 246t179 205q66 49 153 53l215 10q35 3 35 -11q0 -4 -4 -9q51 18 88 18q109 0 92 -112q-10 -72 -74.5 -114t-160.5 -73q-82 -25 -150 -24q-16 -43 -23.5 -78t-7.5 -69t17.5 -49t52.5 -20t94 17q80 27 166 102.5t141 147.5q14 -14 -8 -47 q-76 -104 -188.5 -184t-229.5 -80q-219 0 -120 235q-53 -57 -140 -133q-106 -90 -186 -90q-37 0 -37 45zM111 90q0 -25 16 -24q59 0 212 181t153 247q0 39 -48 38q-57 0 -131 -69q-53 -49 -127.5 -181t-74.5 -192zM492 285q70 -4 126 14q117 35 152 131q25 70 -12 96 q-10 6 -23 6q-133 -2 -243 -247z" />
<glyph unicode="&#xe7;" horiz-adv-x="487" d="M-113 -424q0 12 19 12q2 0 28.5 1t50 5.5t51 13.5t48 31.5t27.5 57.5q4 25 -32 82t-36 88q0 78 74 119q-66 8 -88.5 49t-4 98t45 107.5t61.5 99.5q72 102 174 162q109 68 184 67q41 0 62.5 -17t21.5 -45t-6 -55.5t-20 -54.5q-10 -22 -27 -20q-6 1 -4 10q10 45 -8.5 96.5 t-56.5 51.5q-33 0 -76 -24t-64 -46q-125 -129 -176 -293q-14 -57 -13 -89t27.5 -41t56.5 -5t73 18q82 27 175 103.5t140 142.5q12 -12 -16 -57q-68 -92 -182.5 -171t-217.5 -87q-63 -39 -63 -92q0 -29 39 -82.5t32 -96.5q-14 -76 -104 -115.5t-182 -39.5q-16 0 -13 16z" />
<glyph unicode="&#xe8;" horiz-adv-x="509" d="M129 338q53 84 151.5 156.5t184.5 72.5q109 0 92 -112q-10 -72 -74.5 -114t-160.5 -73q-82 -25 -150 -24q-16 -43 -23.5 -78t-7.5 -69t17.5 -49t52.5 -20t94 17q80 27 166 102.5t141 147.5q14 -14 -8 -47q-76 -104 -188.5 -184t-229.5 -80q-272 0 -57 354zM188 285 q70 -4 127 14q117 35 152 131q25 70 -13 96q-9 6 -22 6q-133 -2 -244 -247zM300 880.5q-1 28.5 5 28.5q18 0 111 -80q84 -74 157 -129q-1 -1 2 -14q-25 4 -141.5 73t-126.5 87q-6 6 -7 34.5z" />
<glyph unicode="&#xe9;" horiz-adv-x="509" d="M129 338q53 84 151.5 156.5t184.5 72.5q109 0 92 -112q-10 -72 -74.5 -114t-160.5 -73q-82 -25 -150 -24q-16 -43 -23.5 -78t-7.5 -69t17.5 -49t52.5 -20t94 17q80 27 166 102.5t141 147.5q14 -14 -8 -47q-76 -104 -188.5 -184t-229.5 -80q-272 0 -57 354zM188 285 q70 -4 127 14q117 35 152 131q25 70 -13 96q-9 6 -22 6q-133 -2 -244 -247zM492 686q-2 1 2 14q74 55 157 129q92 80 111 80q6 0 5 -28.5t-7 -34.5q-10 -18 -127 -87t-141 -73z" />
<glyph unicode="&#xea;" horiz-adv-x="509" d="M129 338q53 84 151.5 156.5t184.5 72.5q109 0 92 -112q-10 -72 -74.5 -114t-160.5 -73q-82 -25 -150 -24q-16 -43 -23.5 -78t-7.5 -69t17.5 -49t52.5 -20t94 17q80 27 166 102.5t141 147.5q14 -14 -8 -47q-76 -104 -188.5 -184t-229.5 -80q-272 0 -57 354zM188 285 q70 -4 127 14q117 35 152 131q25 70 -13 96q-9 6 -22 6q-133 -2 -244 -247zM289 700q150 100 231 172h25q49 -82 139 -143q27 -16 37 -16v-6q-12 -2 -43 -19q-20 -10 -86 45q-29 25 -80 86q0 6 -12 0q-23 -20 -88.5 -64t-94.5 -55q-10 -4 -28 0z" />
<glyph unicode="&#xeb;" horiz-adv-x="509" d="M129 338q53 84 151.5 156.5t184.5 72.5q109 0 92 -112q-10 -72 -74.5 -114t-160.5 -73q-82 -25 -150 -24q-16 -43 -23.5 -78t-7.5 -69t17.5 -49t52.5 -20t94 17q80 27 166 102.5t141 147.5q14 -14 -8 -47q-76 -104 -188.5 -184t-229.5 -80q-272 0 -57 354zM188 285 q70 -4 127 14q117 35 152 131q25 70 -13 96q-9 6 -22 6q-133 -2 -244 -247zM319 801q-2 2 5.5 8t19.5 14t23.5 15.5t20.5 12.5t11 3q47 -29 68 -25q16 4 17 -5q1 -8 -13 -21q-59 -49 -78 -47q-41 2 -74 45zM557 801q0 2 3 5t10.5 8t15.5 11t16 11.5t15.5 9.5t12.5 6t7 2 q47 -29 68 -25q16 4 16 -5q1 -8 -12 -21q-59 -49 -78 -47q-41 2 -74 45z" />
<glyph unicode="&#xec;" horiz-adv-x="393" d="M65.5 229.5q-1.5 19.5 10.5 32.5q145 180 223 293q102 14 127 35q16 16 18 -1q1 -8 -6 -16q-12 -14 -37.5 -60t-76 -141.5t-56.5 -109.5q-70 -131 -69 -180q0 -29 28 -29q63 0 230 197l45 51q4 -4 4 -14q-4 -18 -27 -51q-57 -72 -97 -115t-108.5 -85t-134.5 -42 q-47 0 -47 39q0 18 10.5 50t20.5 54.5t27.5 60.5t21.5 44l104 221q-109 -117 -196 -234q-13 -19 -14.5 0.5zM214 880.5q-1 28.5 5 28.5q18 0 111 -80q84 -74 157 -129q-1 -1 2 -14q-25 4 -141.5 73t-126.5 87q-6 6 -7 34.5z" />
<glyph unicode="&#xed;" horiz-adv-x="393" d="M65.5 229.5q-1.5 19.5 10.5 32.5q145 180 223 293q102 14 127 35q16 16 18 -1q1 -8 -6 -16q-12 -14 -37.5 -60t-76 -141.5t-56.5 -109.5q-70 -131 -69 -180q0 -29 28 -29q63 0 230 197l45 51q4 -4 4 -14q-4 -18 -27 -51q-57 -72 -97 -115t-108.5 -85t-134.5 -42 q-47 0 -47 39q0 18 10.5 50t20.5 54.5t27.5 60.5t21.5 44l104 221q-109 -117 -196 -234q-13 -19 -14.5 0.5zM389 686q-2 1 2 14q74 55 158 129q92 80 110 80q6 0 5 -28.5t-7 -34.5q-10 -18 -126.5 -87t-141.5 -73z" />
<glyph unicode="&#xee;" horiz-adv-x="393" d="M65.5 229.5q-1.5 19.5 10.5 32.5q145 180 223 293q102 14 127 35q16 16 18 -1q1 -8 -6 -16q-12 -14 -37.5 -60t-76 -141.5t-56.5 -109.5q-70 -131 -69 -180q0 -29 28 -29q63 0 230 197l45 51q4 -4 4 -14q-4 -18 -27 -51q-57 -72 -97 -115t-108.5 -85t-134.5 -42 q-47 0 -47 39q0 18 10.5 50t20.5 54.5t27.5 60.5t21.5 44l104 221q-109 -117 -196 -234q-13 -19 -14.5 0.5zM211 700q150 100 231 172h25q49 -82 139 -143q27 -16 37 -16v-6q-12 -2 -43 -19q-20 -10 -86 45q-29 25 -80 86q0 6 -12 0q-23 -20 -88.5 -64t-93.5 -55 q-11 -4 -29 0z" />
<glyph unicode="&#xef;" horiz-adv-x="393" d="M65.5 229.5q-1.5 19.5 10.5 32.5q145 180 223 293q102 14 127 35q16 16 18 -1q1 -8 -6 -16q-12 -14 -37.5 -60t-76 -141.5t-56.5 -109.5q-70 -131 -69 -180q0 -29 28 -29q63 0 230 197l45 51q4 -4 4 -14q-4 -18 -27 -51q-57 -72 -97 -115t-108.5 -85t-134.5 -42 q-47 0 -47 39q0 18 10.5 50t20.5 54.5t27.5 60.5t21.5 44l104 221q-109 -117 -196 -234q-13 -19 -14.5 0.5zM229 801q-2 2 5.5 8t19.5 14t23.5 15.5t20.5 12.5t11 3q47 -29 68 -25q16 4 17 -5q1 -8 -13 -21q-59 -49 -78 -47q-41 2 -74 45zM467 801q-2 2 5 8t19.5 14 t23.5 15.5t20.5 12.5t11.5 3q47 -29 67 -25q16 4 17 -5q1 -8 -13 -21q-59 -49 -77 -47q-41 2 -74 45z" />
<glyph unicode="&#xf0;" horiz-adv-x="675" d="M6 41q0 10 2 14q14 115 95 246t178 205q20 16 41.5 26.5t36 15.5t43 8t38.5 3h46h46q74 166 48 375q-102 -55 -154 -92l-2 17q6 65 25 73q31 8 120 53q-31 137 -120 172q-27 10 -20 22.5t38 20.5q43 10 98.5 -30t83.5 -146q35 20 83.5 49t62.5 37q3 2 3 -7q1 -46 -19 -73 q-3 -4 -7 -6q-18 -8 -56 -24.5t-57 -24.5q10 -66 11 -135q0 -209 -96.5 -401.5t-286.5 -344.5q-129 -98 -215 -98q-23 0 -44.5 13.5t-21.5 31.5zM111 90q0 -25 16 -24q70 0 228.5 157t158.5 266q0 39 -47 39q-74 0 -160 -77.5t-141 -181t-55 -179.5z" />
<glyph unicode="&#xf1;" horiz-adv-x="675" d="M65.5 229.5q-1.5 19.5 10.5 32.5q145 180 223 293q102 14 127 35q16 16 18 -1q1 -8 -6 -16q-20 -23 -168 -297q33 43 109 123q47 49 119.5 103.5t119.5 60.5q61 10 69.5 -19.5t-23.5 -76.5q-41 -61 -109 -197.5t-68 -179.5q0 -29 29 -29q31 0 79 38t86 81t101 121 q14 -18 -22 -65q-104 -141 -187 -205q-61 -47 -118 -47q-131 0 -2 258q72 135 110 225q20 44 -28 15q-68 -42 -136 -109q-141 -147 -227 -377q-11 -1 -77 -24q-18 -6 -17 4q1 4 4 12q10 20 39 90q23 53 59.5 146t63 159t32.5 80q-109 -117 -196 -234q-13 -19 -14.5 0.5z M399 733q10 33 41 60.5t64 27.5t84 -20.5t94 -24.5q47 -6 84 45h20q-12 -43 -39.5 -72.5t-54.5 -29.5q-43 0 -107.5 25.5t-99.5 25.5q-45 0 -61 -37h-25z" />
<glyph unicode="&#xf2;" horiz-adv-x="542" d="M18 68q0 117 113 272q72 102 174 162q109 68 184 67q82 0 82 -80q0 -111 -110 -270q-43 -57 -78 -90q135 0 250 152q10 11 9 -9q0 -16 -7 -26q-119 -166 -275 -144q-115 -106 -258 -106q-84 0 -84 72zM119 59q8 -33 38.5 -28.5t61.5 22t51 37.5q63 68 117 156 q96 160 86 262q-14 41 -66.5 21.5t-87.5 -56.5q-70 -72 -116 -156q-104 -174 -84 -258zM345 880.5q-1 28.5 5 28.5q18 0 111 -80q84 -74 157 -129q-1 -1 3 -14q-25 4 -142 73t-127 87q-6 6 -7 34.5z" />
<glyph unicode="&#xf3;" horiz-adv-x="542" d="M18 68q0 117 113 272q72 102 174 162q109 68 184 67q82 0 82 -80q0 -111 -110 -270q-43 -57 -78 -90q135 0 250 152q10 11 9 -9q0 -16 -7 -26q-119 -166 -275 -144q-115 -106 -258 -106q-84 0 -84 72zM119 59q8 -33 38.5 -28.5t61.5 22t51 37.5q63 68 117 156 q96 160 86 262q-14 41 -66.5 21.5t-87.5 -56.5q-70 -72 -116 -156q-104 -174 -84 -258zM502 686q-2 1 2 14q74 55 158 129q92 80 110 80q6 0 5 -28.5t-7 -34.5q-10 -18 -127 -87t-141 -73z" />
<glyph unicode="&#xf4;" horiz-adv-x="542" d="M18 68q0 117 113 272q72 102 174 162q109 68 184 67q82 0 82 -80q0 -111 -110 -270q-43 -57 -78 -90q135 0 250 152q10 11 9 -9q0 -16 -7 -26q-119 -166 -275 -144q-115 -106 -258 -106q-84 0 -84 72zM119 59q8 -33 38.5 -28.5t61.5 22t51 37.5q63 68 117 156 q96 160 86 262q-14 41 -66.5 21.5t-87.5 -56.5q-70 -72 -116 -156q-104 -174 -84 -258zM324 700q150 100 231 172h25q49 -82 139 -143q27 -16 37 -16v-6q-12 -2 -43 -19q-20 -10 -86 45q-29 25 -80 86q0 6 -12 0q-23 -20 -88.5 -64t-94.5 -55q-10 -4 -28 0z" />
<glyph unicode="&#xf5;" horiz-adv-x="542" d="M18 68q0 117 113 272q72 102 174 162q109 68 184 67q82 0 82 -80q0 -111 -110 -270q-43 -57 -78 -90q135 0 250 152q10 11 9 -9q0 -16 -7 -26q-119 -166 -275 -144q-115 -106 -258 -106q-84 0 -84 72zM119 59q8 -33 38.5 -28.5t61.5 22t51 37.5q63 68 117 156 q96 160 86 262q-14 41 -66.5 21.5t-87.5 -56.5q-70 -72 -116 -156q-104 -174 -84 -258zM365 733q10 33 40.5 60.5t63.5 27.5t84 -20.5t94 -24.5q47 -6 84 45h21q-12 -43 -40 -72.5t-55 -29.5q-43 0 -107.5 25.5t-98.5 25.5q-45 0 -62 -37h-24z" />
<glyph unicode="&#xf6;" horiz-adv-x="542" d="M18 68q0 117 113 272q72 102 174 162q109 68 184 67q82 0 82 -80q0 -111 -110 -270q-43 -57 -78 -90q135 0 250 152q10 11 9 -9q0 -16 -7 -26q-119 -166 -275 -144q-115 -106 -258 -106q-84 0 -84 72zM119 59q8 -33 38.5 -28.5t61.5 22t51 37.5q63 68 117 156 q96 160 86 262q-14 41 -66.5 21.5t-87.5 -56.5q-70 -72 -116 -156q-104 -174 -84 -258zM381 801q-2 2 5 8t19.5 14t23.5 15.5t20.5 12.5t11.5 3q47 -29 67 -25q16 4 17 -5q1 -8 -13 -21q-59 -49 -77 -47q-41 2 -74 45zM618 801q0 2 3.5 5t10.5 8t15 11t16.5 11.5t15.5 9.5 t12 6t7 2q47 -29 68 -25q16 4 17 -5q1 -8 -13 -21q-59 -49 -78 -47q-41 2 -74 45z" />
<glyph unicode="&#xf7;" horiz-adv-x="573" d="M27 287q-15 -2 25 39q27 28 40 26q20 -4 258 -10q168 0 334 6q12 0 -27 -38q-26 -26 -39 -25q-246 10 -274 10q-227 0 -317 -8zM215 76q-2 2 15.5 16t39 26.5t23.5 12.5q47 -29 67 -25q16 2 18.5 -5t-13.5 -21q-53 -49 -76 -49q-35 2 -74 45zM362 588q-2 2 15.5 16 t39 26.5t23.5 12.5q47 -29 68 -25q18 4 18 -5q1 -8 -14 -21q-59 -49 -78 -47q-33 0 -72 43z" />
<glyph unicode="&#xf8;" horiz-adv-x="542" d="M18 68q0 117 113 272q72 102 174 162q70 43 141 61l41 60q6 9 51 2l7 -2q-16 -18 -39 -56q66 -8 65 -78q0 -111 -110 -270q-43 -57 -78 -90q135 0 250 152q10 11 9 -9q0 -16 -7 -26q-119 -166 -275 -144q-104 -94 -227 -104l-27 -45q-5 -12 -27 -7q-6 4 -7 7l24 43 q-78 4 -78 72zM119 59q0 -8 6 -14q174 297 303 492q-63 -14 -109 -64q-70 -72 -116 -156q-104 -174 -84 -258zM154 31q55 -2 116 59q63 68 117 156q96 160 86 262l-1 4l-1 4q-158 -229 -317 -485z" />
<glyph unicode="&#xf9;" horiz-adv-x="804" d="M65.5 229.5q-1.5 19.5 10.5 32.5q80 109 147 184q2 2 21.5 24t24.5 28t22.5 21.5t28 21.5t28 13t33.5 9q61 10 69.5 -19.5t-24.5 -76.5q-43 -66 -113.5 -204t-70.5 -181q0 -29 28 -29q39 0 123 80q129 123 266 385q18 33 27 33h28q25 0 53 4t48 14q9 4 10 -5 q1 -17 -26 -25q-61 -18 -147.5 -205t-69.5 -252q8 -29 28 -29q37 0 121 65.5t137 131.5q10 12 25.5 31.5t17.5 21.5q7 -12 7 -16q-4 -23 -29 -51q-180 -242 -338 -242q-72 0 -72 55q0 37 26.5 114t49.5 120q-76 -109 -141 -172q-121 -117 -230 -117q-49 0 -49 39 q0 49 80 209q18 37 49 100.5t37 73.5q33 62 -1 45q-18 -9 -50 -37q-84 -78 -170 -195q-13 -19 -14.5 0.5zM421 880.5q-1 28.5 5 28.5q18 0 111 -80q84 -74 157 -129q-1 -1 2 -14q-25 4 -141.5 73t-126.5 87q-6 6 -7 34.5z" />
<glyph unicode="&#xfa;" horiz-adv-x="804" d="M65.5 229.5q-1.5 19.5 10.5 32.5q80 109 147 184q2 2 21.5 24t24.5 28t22.5 21.5t28 21.5t28 13t33.5 9q61 10 69.5 -19.5t-24.5 -76.5q-43 -66 -113.5 -204t-70.5 -181q0 -29 28 -29q39 0 123 80q129 123 266 385q18 33 27 33h28q25 0 53 4t48 14q9 4 10 -5 q1 -17 -26 -25q-61 -18 -147.5 -205t-69.5 -252q8 -29 28 -29q37 0 121 65.5t137 131.5q10 12 25.5 31.5t17.5 21.5q7 -12 7 -16q-4 -23 -29 -51q-180 -242 -338 -242q-72 0 -72 55q0 37 26.5 114t49.5 120q-76 -109 -141 -172q-121 -117 -230 -117q-49 0 -49 39 q0 49 80 209q18 37 49 100.5t37 73.5q33 62 -1 45q-18 -9 -50 -37q-84 -78 -170 -195q-13 -19 -14.5 0.5zM594 686q-2 1 2 14q74 55 158 129q92 80 110 80q6 0 5 -28.5t-7 -34.5q-10 -18 -127 -87t-141 -73z" />
<glyph unicode="&#xfb;" horiz-adv-x="804" d="M65.5 229.5q-1.5 19.5 10.5 32.5q80 109 147 184q2 2 21.5 24t24.5 28t22.5 21.5t28 21.5t28 13t33.5 9q61 10 69.5 -19.5t-24.5 -76.5q-43 -66 -113.5 -204t-70.5 -181q0 -29 28 -29q39 0 123 80q129 123 266 385q18 33 27 33h28q25 0 53 4t48 14q9 4 10 -5 q1 -17 -26 -25q-61 -18 -147.5 -205t-69.5 -252q8 -29 28 -29q37 0 121 65.5t137 131.5q10 12 25.5 31.5t17.5 21.5q7 -12 7 -16q-4 -23 -29 -51q-180 -242 -338 -242q-72 0 -72 55q0 37 26.5 114t49.5 120q-76 -109 -141 -172q-121 -117 -230 -117q-49 0 -49 39 q0 49 80 209q18 37 49 100.5t37 73.5q33 62 -1 45q-18 -9 -50 -37q-84 -78 -170 -195q-13 -19 -14.5 0.5zM434 700q150 100 232 172h24q49 -82 139 -143q27 -16 37 -16v-6q-12 -2 -43 -19q-20 -10 -86 45q-29 25 -80 86q0 6 -12 0q-23 -20 -88 -64t-94 -55q-11 -4 -29 0z " />
<glyph unicode="&#xfc;" horiz-adv-x="804" d="M65.5 229.5q-1.5 19.5 10.5 32.5q80 109 147 184q2 2 21.5 24t24.5 28t22.5 21.5t28 21.5t28 13t33.5 9q61 10 69.5 -19.5t-24.5 -76.5q-43 -66 -113.5 -204t-70.5 -181q0 -29 28 -29q39 0 123 80q129 123 266 385q18 33 27 33h28q25 0 53 4t48 14q9 4 10 -5 q1 -17 -26 -25q-61 -18 -147.5 -205t-69.5 -252q8 -29 28 -29q37 0 121 65.5t137 131.5q10 12 25.5 31.5t17.5 21.5q7 -12 7 -16q-4 -23 -29 -51q-180 -242 -338 -242q-72 0 -72 55q0 37 26.5 114t49.5 120q-76 -109 -141 -172q-121 -117 -230 -117q-49 0 -49 39 q0 49 80 209q18 37 49 100.5t37 73.5q33 62 -1 45q-18 -9 -50 -37q-84 -78 -170 -195q-13 -19 -14.5 0.5zM442 801q-2 2 5.5 8t19.5 14t23.5 15.5t20.5 12.5t11 3q47 -29 68 -25q16 4 17 -5q1 -8 -13 -21q-59 -49 -78 -47q-41 2 -74 45zM680 801q0 2 3 5t10 8t15.5 11 t16.5 11.5t15.5 9.5t12.5 6t7 2q47 -29 67 -25q16 4 17 -5q1 -8 -13 -21q-59 -49 -77 -47q-41 2 -74 45z" />
<glyph unicode="&#xfd;" horiz-adv-x="704" d="M-420 -423q0 7 2 12t4 10.5t7.5 7.5t11.5 2q4 0 4 -4q0 -8 -2 -24.5t-2 -26.5q0 -92 58 -142.5t153 -50.5q72 0 149 31q174 76 296 240.5t224 402.5q51 121 105 284q-96 -131 -176 -208q-121 -117 -230 -117q-49 0 -49 39q0 49 80 209q18 37 49 100.5t37 73.5 q33 62 -1 45q-18 -9 -50 -37q-84 -78 -170 -195q-13 -19 -14.5 0.5t10.5 32.5q80 109 147 184q2 2 21.5 24t24.5 28t22.5 21.5t28 21.5t28 13t33.5 9q61 10 69.5 -19.5t-24.5 -76.5q-43 -66 -113.5 -204t-70.5 -181q0 -29 28 -29q39 0 123 80q104 100 197 260q66 109 82 117 q88 45 102 47q66 17 66 -6q0 -16 -19 -16q-43 0 -69 -39q-49 -70 -277 -613q-57 -135 -112.5 -232t-147.5 -193.5t-203 -143.5q-70 -31 -153 -31q-82 0 -153 37t-105 109q-20 43 -21 114v9v13v12zM604 686q-2 1 2 14q74 55 158 129q92 80 110 80q6 0 5 -28.5t-7 -34.5 q-10 -18 -126.5 -87t-141.5 -73z" />
<glyph unicode="&#xfe;" horiz-adv-x="745" d="M-427 -661q1 7 9 16q63 74 199.5 326.5t218.5 431.5q193 416 324 637q188 321 362 442q40 33 152 33q46 0 46 -9q0 -11 -67 -28q-96 -25 -221 -178.5t-220 -321.5t-169 -336q-2 -8 2 -8l21 22q22 22 57 53.5t74.5 63t83.5 53t77 21.5q35 0 35 -49v-19 q-25 -170 -165 -338.5t-302 -168.5q-25 0 -53 6q-6 -14 -39 -85t-51.5 -108t-54 -108.5t-62.5 -119.5t-61.5 -106.5t-65.5 -101.5q-24 -34 -90 -37q-42 -2 -40 17zM78 57q0 -41 45 -41q57 0 129 72q53 49 129 180.5t76 192.5q0 27 -19 26q-31 0 -100.5 -65.5t-112.5 -116.5 q-147 -168 -147 -248z" />
<glyph unicode="&#xff;" horiz-adv-x="704" d="M-420 -423q0 7 2 12t4 10.5t7.5 7.5t11.5 2q4 0 4 -4q0 -8 -2 -24.5t-2 -26.5q0 -92 58 -142.5t153 -50.5q72 0 149 31q174 76 296 240.5t224 402.5q51 121 105 284q-96 -131 -176 -208q-121 -117 -230 -117q-49 0 -49 39q0 49 80 209q18 37 49 100.5t37 73.5 q33 62 -1 45q-18 -9 -50 -37q-84 -78 -170 -195q-13 -19 -14.5 0.5t10.5 32.5q80 109 147 184q2 2 21.5 24t24.5 28t22.5 21.5t28 21.5t28 13t33.5 9q61 10 69.5 -19.5t-24.5 -76.5q-43 -66 -113.5 -204t-70.5 -181q0 -29 28 -29q39 0 123 80q104 100 197 260q66 109 82 117 q88 45 102 47q66 17 66 -6q0 -16 -19 -16q-43 0 -69 -39q-49 -70 -277 -613q-57 -135 -112.5 -232t-147.5 -193.5t-203 -143.5q-70 -31 -153 -31q-82 0 -153 37t-105 109q-20 43 -21 114v9v13v12zM451 801q-2 2 5 8t19 14t23.5 15.5t20.5 12.5t11 3q47 -29 68 -25 q16 4 17 -5q1 -8 -13 -21q-59 -49 -78 -47q-41 2 -73 45zM688 801q0 2 3 5t10.5 8t15.5 11t16 11.5t15.5 9.5t12.5 6t7 2q47 -29 68 -25q16 4 16 -5q1 -8 -12 -21q-59 -49 -78 -47q-41 2 -74 45z" />
<glyph unicode="&#x100;" horiz-adv-x="1572" d="M43 96q2 37 39 115q14 28 24 29q5 1 5.5 -4.5t-2.5 -12.5q-43 -96 -16.5 -142t104.5 -46q244 0 718 442q-39 2 -136 7t-136 5q-156 0 -207 -51q-20 -20 -31.5 -59t-1.5 -70l-15 3q-15 3 -26.5 9.5t-15.5 20.5q2 16 -2 25.5t5 21.5t12.5 19.5t16.5 16.5t20.5 14t22.5 13.5 t23.5 11.5t24.5 10t23 9q152 66 284 66q84 0 209 -6q135 131 311 317q156 164 318 207h-113q-326 0 -436 -94q-49 -43 -60.5 -100.5t21.5 -75.5q11 -7 -15 -17q-12 -5 -18 -2q-20 14 -35.5 57.5t-11.5 71.5q8 51 40 89t91.5 59.5t108.5 35t129 18.5t114.5 6t100.5 1h223 q4 0 2 -2q150 68 205 68q24 0 32 -15q4 -8 -10 -12q-10 -2 -28.5 -2t-28.5 -2t-29.5 -13.5t-42.5 -35.5q-68 -68 -213 -323t-235 -455q-137 -324 -19 -300q10 2 21 7q49 20 111 78q70 66 135 157q11 16 19.5 8t-3.5 -24l-14 -20q-14 -19 -22.5 -29.5t-27 -34t-32.5 -38.5 t-35.5 -36.5t-40 -37t-41 -30t-43.5 -24.5q-51 -29 -111.5 -13.5t-72.5 81.5q-18 100 63 276q86 182 216 419.5t194 321.5q-51 -2 -148.5 -57t-173.5 -133q-47 -49 -161.5 -176t-163.5 -180q123 -4 188 -4q85 -1 148 30q-4 -10 -11.5 -23.5t-38 -39t-67.5 -27.5 q-133 -8 -283 -2q-508 -524 -813 -524q-66 0 -104.5 38t-30.5 109zM1694 1313l2 4q39 10 170 10q137 0 180 -18l3 -2q3 0 3 -2q-4 -10 -14 -11q-51 0 -157.5 -9t-158.5 -9q-8 0 -19 14.5t-9 22.5z" />
<glyph unicode="&#x101;" d="M6 41q0 10 2 14q14 117 94 246t179 205q70 53 153 53h236q10 0 10 -8q0 -16 -18 -16q-29 0 -72 -68q-43 -66 -113.5 -204t-70.5 -181q0 -29 28 -29q12 0 27.5 6.5t34 18.5t33 24.5t35.5 33.5l34 34q12 12 34.5 39t30 35t27.5 34l21 25q14 -14 -25 -67 q-182 -242 -338 -242q-49 0 -49 39q0 72 80 196q-72 -76 -150 -143q-106 -90 -186 -90q-37 0 -37 45zM111 90q0 -25 16 -24q59 0 212 181t153 247q0 39 -48 38q-57 0 -131 -69q-53 -49 -127.5 -181t-74.5 -192zM403 752l3 4q39 10 169 10q137 0 181 -18l3 -2q3 -1 3 -3 q-4 -10 -14 -10q-51 0 -158 -9t-158 -9q-8 0 -19.5 14t-9.5 23z" />
<glyph unicode="&#x102;" horiz-adv-x="1572" d="M43 96q2 37 39 115q14 28 24 29q5 1 5.5 -4.5t-2.5 -12.5q-43 -96 -16.5 -142t104.5 -46q244 0 718 442q-39 2 -136 7t-136 5q-156 0 -207 -51q-20 -20 -31.5 -59t-1.5 -70l-15 3q-15 3 -26.5 9.5t-15.5 20.5q2 16 -2 25.5t5 21.5t12.5 19.5t16.5 16.5t20.5 14t22.5 13.5 t23.5 11.5t24.5 10t23 9q152 66 284 66q84 0 209 -6q135 131 311 317q156 164 318 207h-113q-326 0 -436 -94q-49 -43 -60.5 -100.5t21.5 -75.5q11 -7 -15 -17q-12 -5 -18 -2q-20 14 -35.5 57.5t-11.5 71.5q8 51 40 89t91.5 59.5t108.5 35t129 18.5t114.5 6t100.5 1h223 q4 0 2 -2q150 68 205 68q24 0 32 -15q4 -8 -10 -12q-10 -2 -28.5 -2t-28.5 -2t-29.5 -13.5t-42.5 -35.5q-68 -68 -213 -323t-235 -455q-137 -324 -19 -300q10 2 21 7q49 20 111 78q70 66 135 157q11 16 19.5 8t-3.5 -24l-14 -20q-14 -19 -22.5 -29.5t-27 -34t-32.5 -38.5 t-35.5 -36.5t-40 -37t-41 -30t-43.5 -24.5q-51 -29 -111.5 -13.5t-72.5 81.5q-18 100 63 276q86 182 216 419.5t194 321.5q-51 -2 -148.5 -57t-173.5 -133q-47 -49 -161.5 -176t-163.5 -180q123 -4 188 -4q85 -1 148 30q-4 -10 -11.5 -23.5t-38 -39t-67.5 -27.5 q-133 -8 -283 -2q-508 -524 -813 -524q-66 0 -104.5 38t-30.5 109zM1661 1296q0 10 8 25.5t17 15.5h30q-23 -37 5 -56t71 -19q66 0 178 67h33q-31 -37 -96.5 -67.5t-126.5 -30.5q-119 0 -119 65z" />
<glyph unicode="&#x103;" d="M6 41q0 10 2 14q14 117 94 246t179 205q70 53 153 53h236q10 0 10 -8q0 -16 -18 -16q-29 0 -72 -68q-43 -66 -113.5 -204t-70.5 -181q0 -29 28 -29q12 0 27.5 6.5t34 18.5t33 24.5t35.5 33.5l34 34q12 12 34.5 39t30 35t27.5 34l21 25q14 -14 -25 -67 q-182 -242 -338 -242q-49 0 -49 39q0 72 80 196q-72 -76 -150 -143q-106 -90 -186 -90q-37 0 -37 45zM111 90q0 -25 16 -24q59 0 212 181t153 247q0 39 -48 38q-57 0 -131 -69q-53 -49 -127.5 -181t-74.5 -192zM408 721q0 10 8 25.5t16 15.5h31q-23 -37 5 -56.5t71 -19.5 q66 0 178 68h33q-31 -37 -96.5 -68t-127.5 -31q-119 0 -118 66z" />
<glyph unicode="&#x104;" horiz-adv-x="1572" d="M43 96q2 37 39 115q14 28 24 29q5 1 5.5 -4.5t-2.5 -12.5q-43 -96 -16.5 -142t104.5 -46q244 0 718 442q-39 2 -136 7t-136 5q-156 0 -207 -51q-20 -20 -31.5 -59t-1.5 -70l-15 3q-15 3 -26.5 9.5t-15.5 20.5q2 16 -2 25.5t5 21.5t12.5 19.5t16.5 16.5t20.5 14t22.5 13.5 t23.5 11.5t24.5 10t23 9q152 66 284 66q84 0 209 -6q135 131 311 317q156 164 318 207h-113q-326 0 -436 -94q-49 -43 -60.5 -100.5t21.5 -75.5q11 -7 -15 -17q-12 -5 -18 -2q-20 14 -35.5 57.5t-11.5 71.5q8 51 40 89t91.5 59.5t108.5 35t129 18.5t114.5 6t100.5 1h223 q4 0 2 -2q150 68 205 68q24 0 32 -15q4 -8 -10 -12q-10 -2 -28.5 -2t-28.5 -2t-29.5 -13.5t-42.5 -35.5q-68 -68 -213 -323t-235 -455q-137 -324 -19 -300q10 2 21 7q49 20 111 78q70 66 135 157q11 16 19.5 8t-3.5 -24l-14 -20q-14 -19 -22.5 -29.5t-27 -34t-32.5 -38.5 t-35.5 -36.5t-40 -37t-41 -30t-43.5 -24.5q-33 -14 -63 -16q-35 -31 -61.5 -99.5t-26.5 -124.5q0 -68 63 -43q20 8 45 27.5t57.5 50.5t42.5 39v-15q-5 -20 -10 -26q-66 -92 -192 -145q-102 -41 -103 51q0 61 49.5 152.5t96.5 132.5q-68 10 -82 84q-18 100 63 276 q86 182 216 419.5t194 321.5q-51 -2 -148.5 -57t-173.5 -133q-47 -49 -161.5 -176t-163.5 -180q123 -4 188 -4q84 0 148 30q-4 -10 -11.5 -23.5t-38 -39t-67.5 -27.5q-133 -8 -283 -2q-508 -524 -813 -524q-66 0 -104.5 38t-30.5 109z" />
<glyph unicode="&#x105;" d="M6 41q0 10 2 14q14 117 94 246t179 205q70 53 153 53h236q10 0 10 -8q0 -16 -18 -16q-29 0 -72 -68q-43 -66 -113.5 -204t-70.5 -181q0 -29 28 -29q12 0 27.5 6.5t34 18.5t33 24.5t35.5 33.5l34 34q12 12 34.5 39t30 35t27.5 34l21 25q14 -14 -25 -67 q-178 -238 -334 -242q-33 -31 -58.5 -98.5t-25.5 -120.5q0 -68 64 -43q20 8 44.5 27.5t57.5 50t43 38.5v-15q-5 -20 -10 -26q-66 -92 -193 -145q-102 -41 -102 51q0 61 49 153.5t96 133.5q-18 6 -18 33q0 72 80 196q-72 -76 -150 -143q-106 -90 -186 -90q-37 0 -37 45z M111 90q0 -25 16 -24q59 0 212 181t153 247q0 39 -48 38q-57 0 -131 -69q-53 -49 -127.5 -181t-74.5 -192z" />
<glyph unicode="&#x106;" horiz-adv-x="1079" d="M78 276q0 193 106.5 376.5t274.5 310.5q215 162 465 161q113 0 188 -37q104 -49 88 -129q-6 -23 -40 -78t-44 -83q-4 -13 -31 -16q-7 2 -8 5q29 47 34 120t-21 122q-39 66 -153 66t-179 -33q-119 -43 -228 -135q-145 -129 -238 -308.5t-93 -336.5q0 -123 64.5 -194 t164.5 -85t202.5 -2t196.5 49q223 86 359 254q17 20 20.5 5.5t-16.5 -42.5q-129 -172 -346 -262q-80 -33 -177.5 -50t-202 -11t-190.5 37.5t-141 107.5t-55 188zM928 1262q-2 1 2 14q74 55 157 129q92 80 111 80q6 0 5 -29t-7 -35q-10 -18 -127 -86.5t-141 -72.5z" />
<glyph unicode="&#x107;" horiz-adv-x="487" d="M22.5 118.5q16.5 61.5 44 115t64.5 106.5q72 102 174 162q109 68 184 67q41 0 62.5 -17t21.5 -45t-6 -55.5t-20 -54.5q-10 -22 -27 -20q-6 1 -4 10q10 45 -8.5 96.5t-56.5 51.5q-33 0 -76 -24t-64 -46q-125 -129 -176 -293q-14 -57 -13 -89t27.5 -41t56.5 -5t73 18 q82 27 175 103.5t140 142.5q12 -12 -16 -57q-70 -96 -190 -177t-226 -83q-88 -2 -122 35.5t-17.5 99zM457 686q-2 1 2 14q74 55 157 129q92 80 111 80q6 0 5 -28.5t-7 -34.5q-10 -18 -127 -87t-141 -73z" />
<glyph unicode="&#x108;" horiz-adv-x="1079" d="M78 276q0 193 106.5 376.5t274.5 310.5q215 162 465 161q113 0 188 -37q104 -49 88 -129q-6 -23 -40 -78t-44 -83q-4 -13 -31 -16q-7 2 -8 5q29 47 34 120t-21 122q-39 66 -153 66t-179 -33q-119 -43 -228 -135q-145 -129 -238 -308.5t-93 -336.5q0 -123 64.5 -194 t164.5 -85t202.5 -2t196.5 49q223 86 359 254q17 20 20.5 5.5t-16.5 -42.5q-129 -172 -346 -262q-80 -33 -177.5 -50t-202 -11t-190.5 37.5t-141 107.5t-55 188zM780 1229q150 100 232 172h24q49 -82 140 -144q27 -16 36 -16v-6q-12 -2 -43 -18q-20 -10 -86 45 q-29 25 -79 86q0 6 -13 0q-23 -20 -88 -64.5t-94 -54.5q-11 -4 -29 0z" />
<glyph unicode="&#x109;" horiz-adv-x="487" d="M22.5 118.5q16.5 61.5 44 115t64.5 106.5q72 102 174 162q109 68 184 67q41 0 62.5 -17t21.5 -45t-6 -55.5t-20 -54.5q-10 -22 -27 -20q-6 1 -4 10q10 45 -8.5 96.5t-56.5 51.5q-33 0 -76 -24t-64 -46q-125 -129 -176 -293q-14 -57 -13 -89t27.5 -41t56.5 -5t73 18 q82 27 175 103.5t140 142.5q12 -12 -16 -57q-70 -96 -190 -177t-226 -83q-88 -2 -122 35.5t-17.5 99zM289 700q150 100 231 172h25q49 -82 139 -143q27 -16 37 -16v-6q-12 -2 -43 -19q-20 -10 -86 45q-29 25 -80 86q0 6 -12 0q-23 -20 -88.5 -64t-94.5 -55q-10 -4 -28 0z " />
<glyph unicode="&#x10a;" horiz-adv-x="1079" d="M78 276q0 193 106.5 376.5t274.5 310.5q215 162 465 161q113 0 188 -37q104 -49 88 -129q-6 -23 -40 -78t-44 -83q-4 -13 -31 -16q-7 2 -8 5q29 47 34 120t-21 122q-39 66 -153 66t-179 -33q-119 -43 -228 -135q-145 -129 -238 -308.5t-93 -336.5q0 -123 64.5 -194 t164.5 -85t202.5 -2t196.5 49q223 86 359 254q17 20 20.5 5.5t-16.5 -42.5q-129 -172 -346 -262q-80 -33 -177.5 -50t-202 -11t-190.5 37.5t-141 107.5t-55 188zM946 1262q0 2 3 5t10.5 8t15.5 11t16 11.5t15.5 9.5t12.5 6t7 2q47 -29 68 -25q16 4 16 -5q1 -8 -12 -21 q-59 -49 -78 -47q-41 2 -74 45z" />
<glyph unicode="&#x10b;" horiz-adv-x="487" d="M22.5 118.5q16.5 61.5 44 115t64.5 106.5q72 102 174 162q109 68 184 67q41 0 62.5 -17t21.5 -45t-6 -55.5t-20 -54.5q-10 -22 -27 -20q-6 1 -4 10q10 45 -8.5 96.5t-56.5 51.5q-33 0 -76 -24t-64 -46q-125 -129 -176 -293q-14 -57 -13 -89t27.5 -41t56.5 -5t73 18 q82 27 175 103.5t140 142.5q12 -12 -16 -57q-70 -96 -190 -177t-226 -83q-88 -2 -122 35.5t-17.5 99zM451 713q-2 2 5 8t19 14t23.5 15.5t20.5 12.5t11 3q47 -29 68 -25q16 4 17 -5q1 -8 -13 -21q-59 -49 -78 -47q-41 2 -73 45z" />
<glyph unicode="&#x10c;" horiz-adv-x="1079" d="M78 276q0 193 106.5 376.5t274.5 310.5q215 162 465 161q113 0 188 -37q104 -49 88 -129q-6 -23 -40 -78t-44 -83q-4 -13 -31 -16q-7 2 -8 5q29 47 34 120t-21 122q-39 66 -153 66t-179 -33q-119 -43 -228 -135q-145 -129 -238 -308.5t-93 -336.5q0 -123 64.5 -194 t164.5 -85t202.5 -2t196.5 49q223 86 359 254q17 20 20.5 5.5t-16.5 -42.5q-129 -172 -346 -262q-80 -33 -177.5 -50t-202 -11t-190.5 37.5t-141 107.5t-55 188zM762 1350v6q12 4 43 18q20 10 86 -45q29 -25 80 -86q0 -6 12 0q23 20 88.5 64.5t93.5 54.5q11 4 29 0 q-150 -100 -231 -172h-25q-49 82 -139 143q-27 16 -37 17z" />
<glyph unicode="&#x10d;" horiz-adv-x="487" d="M22.5 118.5q16.5 61.5 44 115t64.5 106.5q72 102 174 162q109 68 184 67q41 0 62.5 -17t21.5 -45t-6 -55.5t-20 -54.5q-10 -22 -27 -20q-6 1 -4 10q10 45 -8.5 96.5t-56.5 51.5q-33 0 -76 -24t-64 -46q-125 -129 -176 -293q-14 -57 -13 -89t27.5 -41t56.5 -5t73 18 q82 27 175 103.5t140 142.5q12 -12 -16 -57q-70 -96 -190 -177t-226 -83q-88 -2 -122 35.5t-17.5 99zM240 791v6q12 2 43 18q20 10 86 -45q29 -25 80 -86q0 -6 12 0q23 20 88 64.5t94 54.5q11 4 29 0q-150 -100 -232 -172h-24q-49 82 -140 143q-27 16 -36 17z" />
<glyph unicode="&#x10e;" horiz-adv-x="1282" d="M-4 -27l4 7q13 4 13 3t14 3q66 23 104 92q59 98 361 653l92 178q29 66 47 97q31 51 121 81h-50q-135 0 -289.5 -27.5t-191.5 -96.5q-20 -37 -20 -72q0 -25 9 -41t18.5 -23.5t9.5 -9.5q0 -12 -16.5 -12t-47.5 48t-37 70.5t-6 45.5q0 145 336 145q70 0 205 5t202 5 q84 0 153 -8t141.5 -31.5t121.5 -61.5t80 -105.5t31 -157.5q0 -209 -139 -418q-250 -375 -701 -375q-158 0 -278 62q-37 18 -62 18q-37 0 -104.5 -43t-96.5 -43q-25 0 -24 12zM299 123q0 -37 51 -80q61 -47 187 -47q227 0 408 130t269 343q62 156 62 279q0 158 -96.5 245.5 t-255.5 87.5q-109 0 -150 -47q-33 -37 -96 -147q-29 -49 -57.5 -105.5t-63.5 -128t-53 -106.5l-133 -260q-41 -78 -60 -117q-12 -29 -12 -47zM786 1339v7q12 2 43 18q20 10 86 -45q29 -25 80 -86q0 -6 13 0q23 20 88 64t94 55q11 4 29 0q-150 -100 -232 -172h-24 q-49 82 -140 143q-27 16 -37 16z" />
<glyph unicode="&#x10f;" horiz-adv-x="1071" d="M6 41q0 10 2 14q14 115 95 246t178 205q20 16 41.5 26.5t36 15.5t43 8t38.5 3h46h46q33 55 105 191.5t102 187.5q186 315 412 315q29 0 50.5 -16t19.5 -45l-4 -74q0 -8 -11 -8q-2 0 -6 4q-8 49 -61.5 68.5t-116.5 -2.5q-98 -35 -219 -248q-117 -209 -244 -490 q-2 -2 -49 -100t-75.5 -167t-28.5 -93q0 -29 24 -29q45 0 140.5 93.5t140.5 156.5q16 -16 -25 -67q-182 -242 -338 -242q-49 0 -49 39q0 72 80 196q-72 -76 -150 -143q-111 -90 -186 -90q-37 0 -37 45zM111 90q0 -25 16 -24q59 0 212 181t153 247q0 39 -48 38 q-57 0 -131 -69q-53 -49 -127.5 -181t-74.5 -192zM936 766l4 16q4 12 16 23q76 66 95 149q4 27 -10.5 47.5t-41.5 24.5l9 23q20 6 55 28q29 23 31 23q57 -8 39 -86q-31 -133 -166 -232z" />
<glyph unicode="&#x110;" horiz-adv-x="1282" d="M-4 -27l4 7q13 4 13 3t14 3q66 23 104 92q92 150 238 422q-29 -2 -84 -2q-8 0 -19.5 14t-9.5 23l2 4q18 4 135 10l99 182l92 178q29 66 47 97q31 51 121 81h-50q-135 0 -289.5 -27.5t-191.5 -96.5q-20 -37 -20 -72q0 -25 9 -41t18.5 -23.5t9.5 -9.5q0 -12 -16.5 -12 t-47.5 48t-37 70.5t-6 45.5q0 145 336 145q70 0 205 5t202 5q84 0 153 -8t141.5 -31.5t121.5 -61.5t80 -105.5t31 -157.5q0 -209 -139 -418q-250 -375 -701 -375q-158 0 -278 62q-37 18 -62 18q-37 0 -104.5 -43t-96.5 -43q-25 0 -24 12zM299 123q0 -37 51 -80 q61 -47 187 -47q227 0 408 130t269 343q61 156 62 279q0 158 -96.5 245.5t-255.5 87.5q-109 0 -150 -47q-33 -37 -96 -147q-29 -49 -57.5 -105.5t-63.5 -128t-53 -106.5v-2q76 -4 104 -15l4 -1q2 -1 2 -3q-4 -10 -14 -10q-59 0 -115 -6l-114 -223q-41 -78 -60 -117 q-12 -29 -12 -47z" />
<glyph unicode="&#x111;" d="M6 41q0 10 2 14q14 115 95 246t178 205q20 16 41.5 26.5t36 15.5t43 8t38.5 3h46h46q35 57 146 270q-59 0 -123 -6q-11 -3 20 36q17 21 25 20q14 -4 100 -9l39 68q186 315 412 315q29 0 50.5 -16t19.5 -45l-4 -74q0 -8 -11 -8q-2 0 -6 4q-8 49 -61.5 68.5t-116.5 -2.5 q-98 -35 -219 -248l-35 -62q35 1 127 7q4 0 -4 -14.5t-21.5 -28t-19.5 -13.5t-42 3l-60 5q-100 -195 -189 -387q-2 -2 -49 -100t-75.5 -167t-28.5 -93q0 -29 24 -29q45 0 140.5 93.5t140.5 156.5q16 -16 -25 -67q-182 -242 -338 -242q-49 0 -49 39q0 72 80 196 q-72 -76 -150 -143q-111 -90 -186 -90q-37 0 -37 45zM111 90q0 -25 16 -24q59 0 212 181t153 247q0 39 -48 38q-57 0 -131 -69q-53 -49 -127.5 -181t-74.5 -192z" />
<glyph unicode="&#x112;" horiz-adv-x="978" d="M80 43q-29 43 20 139q59 106 170 299t152 264q88 160 141 242q49 78 125 96q-263 -14 -358 -53q-65 -27 -86 -67q-23 -39 -20 -81t32 -61q8 -4 -4 -12q-8 -6 -14 -2q-18 10 -45 50t-33 67q-18 68 9.5 109.5t97 57t114.5 19.5t114 4h7q25 0 299 6t299 -4q51 -2 73.5 -21.5 t17.5 -49t-18.5 -61.5t-32.5 -64q-8 -15 -12 -21q-15 -27 -35 -25q-9 1 -6 13q39 162 -53 190q-45 14 -219 6q-82 -6 -110 -43q-63 -90 -250 -411q-8 -23 16 -23q31 0 142.5 -2t158.5 0q121 10 154 27q19 12 17 -4q-3 -32 -46 -64q-27 -20 -53 -20q-66 0 -192 5t-222 1 q-20 -2 -29 -17q-10 -20 -33.5 -64t-39.5 -75q-100 -195 -101 -264q0 -109 205 -113q428 0 629 256q9 13 14 -6q3 -12 -2 -18q-8 -10 -47 -60.5t-53.5 -66t-44 -47t-52 -47t-45.5 -21.5q-74 -23 -253 -29t-365 13q-104 10 -133 53zM676 1305l2 4q39 10 170 10q137 0 180 -19 l3 -1q3 -1 3 -3q-4 -10 -14 -10q-53 0 -157.5 -9t-157.5 -9q-8 0 -19.5 14t-9.5 23z" />
<glyph unicode="&#x113;" horiz-adv-x="509" d="M129 338q53 84 151.5 156.5t184.5 72.5q109 0 92 -112q-10 -72 -74.5 -114t-160.5 -73q-82 -25 -150 -24q-16 -43 -23.5 -78t-7.5 -69t17.5 -49t52.5 -20t94 17q80 27 166 102.5t141 147.5q14 -14 -8 -47q-76 -104 -188.5 -184t-229.5 -80q-272 0 -57 354zM188 285 q70 -4 127 14q117 35 152 131q25 70 -13 96q-9 6 -22 6q-133 -2 -244 -247zM303 715l2 4q39 10 170 10q137 0 180 -18l4 -2q3 0 3 -2q-4 -10 -15 -11q-53 0 -157.5 -9t-157.5 -9q-8 0 -19.5 14.5t-9.5 22.5z" />
<glyph unicode="&#x116;" horiz-adv-x="978" d="M80 43q-29 43 20 139q59 106 170 299t152 264q88 160 141 242q49 78 125 96q-263 -14 -358 -53q-65 -27 -86 -67q-23 -39 -20 -81t32 -61q8 -4 -4 -12q-8 -6 -14 -2q-18 10 -45 50t-33 67q-18 68 9.5 109.5t97 57t114.5 19.5t114 4h7q25 0 299 6t299 -4q51 -2 73.5 -21.5 t17.5 -49t-18.5 -61.5t-32.5 -64q-8 -15 -12 -21q-15 -27 -35 -25q-9 1 -6 13q39 162 -53 190q-45 14 -219 6q-82 -6 -110 -43q-63 -90 -250 -411q-8 -23 16 -23q31 0 142.5 -2t158.5 0q121 10 154 27q19 12 17 -4q-3 -32 -46 -64q-27 -20 -53 -20q-66 0 -192 5t-222 1 q-20 -2 -29 -17q-10 -20 -33.5 -64t-39.5 -75q-100 -195 -101 -264q0 -109 205 -113q428 0 629 256q9 13 14 -6q3 -12 -2 -18q-8 -10 -47 -60.5t-53.5 -66t-44 -47t-52 -47t-45.5 -21.5q-74 -23 -253 -29t-365 13q-104 10 -133 53zM846 1229q0 2 3 5t10 8t15.5 11.5 t16.5 11.5t15 9t12.5 6t7.5 2q47 -29 67 -25q16 4 17 -5q1 -8 -13 -21q-59 -49 -77 -47q-41 2 -74 45z" />
<glyph unicode="&#x117;" horiz-adv-x="509" d="M129 338q53 84 151.5 156.5t184.5 72.5q109 0 92 -112q-10 -72 -74.5 -114t-160.5 -73q-82 -25 -150 -24q-16 -43 -23.5 -78t-7.5 -69t17.5 -49t52.5 -20t94 17q80 27 166 102.5t141 147.5q14 -14 -8 -47q-76 -104 -188.5 -184t-229.5 -80q-272 0 -57 354zM188 285 q70 -4 127 14q117 35 152 131q25 70 -13 96q-9 6 -22 6q-133 -2 -244 -247zM442 702q-2 2 5.5 8.5t19.5 14.5t23.5 15.5t20.5 12.5t11 3q47 -29 68 -25q16 4 17 -5q1 -8 -13 -21q-59 -49 -78 -48q-41 2 -74 45z" />
<glyph unicode="&#x118;" horiz-adv-x="978" d="M80 43q-29 43 20 139q59 106 170 299t152 264q88 160 141 242q49 78 125 96q-263 -14 -358 -53q-65 -27 -86 -67q-23 -39 -20 -81t32 -61q8 -4 -4 -12q-8 -6 -14 -2q-18 10 -45 50t-33 67q-18 68 9.5 109.5t97 57t114.5 19.5t114 4h7q25 0 299 6t299 -4q51 -2 73.5 -21.5 t17.5 -49t-18.5 -61.5t-32.5 -64q-7 -14 -12 -21q-15 -27 -35 -25q-9 1 -6 13q39 162 -53 190q-45 14 -219 6q-82 -6 -110 -43q-63 -90 -250 -411q-8 -23 16 -23q31 0 142.5 -2t158.5 0q121 10 154 27q19 12 17 -4q-3 -32 -46 -64q-27 -20 -53 -20q-66 0 -192 5t-222 1 q-20 -2 -29 -17q-10 -20 -33.5 -64t-39.5 -75q-100 -195 -101 -264q0 -109 205 -113q428 0 629 256q9 13 14 -6q3 -12 -2 -18q-8 -10 -47 -60.5t-53.5 -66t-44 -47t-52 -47t-45.5 -21.5q-90 -25 -303 -29q-37 -20 -69.5 -96t-32.5 -137q0 -68 63 -43q20 8 45 27.5t58 50.5 t43 39l-1 -15q-4 -20 -9 -26q-66 -92 -193 -146q-102 -41 -102 52q0 66 54 164t101 130q-166 0 -272 13q-104 10 -133 53z" />
<glyph unicode="&#x119;" horiz-adv-x="509" d="M2 -301q0 63 50 155.5t98 131.5q-219 25 -21 352q53 84 151.5 156.5t184.5 72.5q109 0 92 -112q-10 -72 -74.5 -114t-160.5 -73q-82 -25 -150 -24q-16 -43 -23.5 -78t-7.5 -69t17.5 -49t52.5 -20t94 17q80 27 166 102.5t141 147.5q14 -14 -8 -47q-76 -102 -188.5 -182 t-229.5 -82q-33 -29 -60.5 -98.5t-27.5 -125.5q0 -68 64 -43q20 8 44.5 27.5t57.5 50.5t43 39v-15q-5 -20 -10 -26q-66 -92 -193 -145q-102 -41 -102 51zM188 285q70 -4 127 14q117 35 152 131q25 70 -13 96q-9 6 -22 6q-133 -2 -244 -247z" />
<glyph unicode="&#x11a;" horiz-adv-x="978" d="M80 43q-29 43 20 139q59 106 170 299t152 264q88 160 141 242q49 78 125 96q-263 -14 -358 -53q-65 -27 -86 -67q-23 -39 -20 -81t32 -61q8 -4 -4 -12q-8 -6 -14 -2q-18 10 -45 50t-33 67q-18 68 9.5 109.5t97 57t114.5 19.5t114 4h7q25 0 299 6t299 -4q51 -2 73.5 -21.5 t17.5 -49t-18.5 -61.5t-32.5 -64q-8 -15 -12 -21q-15 -27 -35 -25q-9 1 -6 13q39 162 -53 190q-45 14 -219 6q-82 -6 -110 -43q-63 -90 -250 -411q-8 -23 16 -23q31 0 142.5 -2t158.5 0q121 10 154 27q19 12 17 -4q-3 -32 -46 -64q-27 -20 -53 -20q-66 0 -192 5t-222 1 q-20 -2 -29 -17q-10 -20 -33.5 -64t-39.5 -75q-100 -195 -101 -264q0 -109 205 -113q428 0 629 256q9 13 14 -6q3 -12 -2 -18q-8 -10 -47 -60.5t-53.5 -66t-44 -47t-52 -47t-45.5 -21.5q-74 -23 -253 -29t-365 13q-104 10 -133 53zM715 1341v7q12 4 43 18q20 10 86 -45 q29 -25 80 -86q0 -6 12 0q23 20 88.5 64t93.5 55q11 4 29 0q-150 -100 -232 -172h-24q-49 82 -139 143q-27 16 -37 16z" />
<glyph unicode="&#x11b;" horiz-adv-x="509" d="M129 338q53 84 151.5 156.5t184.5 72.5q109 0 92 -112q-10 -72 -74.5 -114t-160.5 -73q-82 -25 -150 -24q-16 -43 -23.5 -78t-7.5 -69t17.5 -49t52.5 -20t94 17q80 27 166 102.5t141 147.5q14 -14 -8 -47q-76 -104 -188.5 -184t-229.5 -80q-272 0 -57 354zM188 285 q70 -4 127 14q117 35 152 131q25 70 -13 96q-9 6 -22 6q-133 -2 -244 -247zM274 797v6q12 4 43 18q20 10 86 -45q29 -25 80 -86q0 -6 13 0q23 20 88 64.5t94 54.5q11 4 29 0q-150 -100 -232 -172h-24q-49 82 -140 143q-27 16 -37 17z" />
<glyph unicode="&#x11c;" horiz-adv-x="1179" d="M66 -423q0 7 2 12t4 10.5t7 7.5t11 2q4 0 4 -4q0 -8 -2 -24.5t-2 -26.5q0 -92 58.5 -142.5t152.5 -50.5q246 0 434 238q41 51 78 106t61.5 98t53 107.5t42 98.5t43 112t42.5 106q-82 -121 -244 -207t-313 -86q-176 -2 -298 87.5t-122 254.5q0 193 106.5 376.5 t274.5 310.5q215 162 465 161q113 0 188 -37q104 -49 88 -129q-6 -23 -40 -78t-44 -83q-4 -13 -31 -16q-7 2 -8 5q29 47 34 120t-21 122q-39 66 -153 66t-179 -33q-119 -43 -228 -135q-145 -129 -238 -308.5t-93 -336.5q0 -154 85 -231t214 -77q236 -2 400.5 154t244.5 393 h-211q-272 0 -262 -129q0 -25 10 -45l-18 -12q-55 92 -56 104q-6 61 29 90q23 18 69 27.5t84.5 9.5t95 -3t68.5 -3h389l-22 -24q-84 0 -121 -48q-12 -16 -22.5 -33.5t-20.5 -39t-17.5 -35.5t-16.5 -43t-12 -40t-14.5 -45t-13.5 -44q-12 -43 -38.5 -142.5t-41 -146.5 t-45 -130t-60.5 -136t-78 -115.5t-107 -114.5q-68 -57 -166.5 -96t-179.5 -39q-86 0 -166 36t-113 106q-20 39 -20 114v9v13v12zM799 1239q150 100 231 172h25q49 -82 139 -143q27 -16 37 -17v-6q-12 -4 -43 -18q-20 -10 -86 45q-29 25 -80 86q0 6 -12 0 q-23 -20 -88.5 -64.5t-94.5 -54.5q-10 -4 -28 0z" />
<glyph unicode="&#x11d;" horiz-adv-x="542" d="M-578 -423q0 7 2.5 12t5.5 10.5t8 7.5t11 2q4 0 4 -4q0 -8 -2 -24.5t-2 -26.5q0 -92 58.5 -142.5t152.5 -50.5q72 0 147 31q57 25 108.5 57.5t98.5 83.5t82 89t77 111.5t63.5 108.5t60.5 125t50 116t50 124t43 110q-68 -111 -209 -231q-106 -90 -184 -90q-37 0 -37 45v14 q14 115 96 247t179 204q70 53 153 53h236q10 0 10 -8q0 -16 -18 -16q-45 0 -74 -54q-55 -88 -275 -598q-57 -135 -112 -232t-146.5 -193.5t-201.5 -143.5q-70 -31 -154 -31q-82 0 -152.5 37t-105.5 109q-23 43 -23 114v9v13v12zM113 90q0 -25 18 -24q59 0 211 181t152 247 q0 39 -48 38q-55 0 -129 -69q-53 -49 -128.5 -181t-75.5 -192zM336 676q150 100 231 172h25q49 -82 139 -143q27 -16 37 -17v-6q-12 -2 -43 -18q-20 -10 -86 45q-29 25 -80 86q0 6 -12 0q-23 -20 -88.5 -64.5t-93.5 -54.5q-11 -4 -29 0z" />
<glyph unicode="&#x11e;" horiz-adv-x="1179" d="M66 -423q0 7 2 12t4 10.5t7 7.5t11 2q4 0 4 -4q0 -8 -2 -24.5t-2 -26.5q0 -92 58.5 -142.5t152.5 -50.5q246 0 434 238q41 51 78 106t61.5 98t53 107.5t42 98.5t43 112t42.5 106q-82 -121 -244 -207t-313 -86q-176 -2 -298 87.5t-122 254.5q0 193 106.5 376.5 t274.5 310.5q215 162 465 161q113 0 188 -37q104 -49 88 -129q-6 -23 -40 -78t-44 -83q-4 -13 -31 -16q-7 2 -8 5q29 47 34 120t-21 122q-39 66 -153 66t-179 -33q-119 -43 -228 -135q-145 -129 -238 -308.5t-93 -336.5q0 -154 85 -231t214 -77q236 -2 400.5 154t244.5 393 h-211q-272 0 -262 -129q0 -25 10 -45l-18 -12q-55 92 -56 104q-6 61 29 90q23 18 69 27.5t84.5 9.5t95 -3t68.5 -3h389l-22 -24q-84 0 -121 -48q-12 -16 -22.5 -33.5t-20.5 -39t-17.5 -35.5t-16.5 -43t-12 -40t-14.5 -45t-13.5 -44q-12 -43 -38.5 -142.5t-41 -146.5 t-45 -130t-60.5 -136t-78 -115.5t-107 -114.5q-68 -57 -166.5 -96t-179.5 -39q-86 0 -166 36t-113 106q-20 39 -20 114v9v13v12zM858 1296q0 10 8 25.5t17 15.5h30q-23 -37 5 -56t71 -19q66 0 178 67h33q-31 -37 -96.5 -67.5t-126.5 -30.5q-119 0 -119 65z" />
<glyph unicode="&#x11f;" horiz-adv-x="542" d="M-578 -423q0 7 2.5 12t5.5 10.5t8 7.5t11 2q4 0 4 -4q0 -8 -2 -24.5t-2 -26.5q0 -92 58.5 -142.5t152.5 -50.5q72 0 147 31q57 25 108.5 57.5t98.5 83.5t82 89t77 111.5t63.5 108.5t60.5 125t50 116t50 124t43 110q-68 -111 -209 -231q-106 -90 -184 -90q-37 0 -37 45v14 q14 115 96 247t179 204q70 53 153 53h236q10 0 10 -8q0 -16 -18 -16q-45 0 -74 -54q-55 -88 -275 -598q-57 -135 -112 -232t-146.5 -193.5t-201.5 -143.5q-70 -31 -154 -31q-82 0 -152.5 37t-105.5 109q-23 43 -23 114v9v13v12zM113 90q0 -25 18 -24q59 0 211 181t152 247 q0 39 -48 38q-55 0 -129 -69q-53 -49 -128.5 -181t-75.5 -192zM365 721q0 10 8 25.5t16 15.5h31q-23 -37 5 -56.5t71 -19.5q66 0 178 68h33q-31 -37 -96.5 -68t-127.5 -31q-119 0 -118 66z" />
<glyph unicode="&#x120;" horiz-adv-x="1179" d="M66 -423q0 7 2 12t4 10.5t7 7.5t11 2q4 0 4 -4q0 -8 -2 -24.5t-2 -26.5q0 -92 58.5 -142.5t152.5 -50.5q246 0 434 238q41 51 78 106t61.5 98t53 107.5t42 98.5t43 112t42.5 106q-82 -121 -244 -207t-313 -86q-176 -2 -298 87.5t-122 254.5q0 193 106.5 376.5 t274.5 310.5q215 162 465 161q113 0 188 -37q104 -49 88 -129q-6 -23 -40 -78t-44 -83q-4 -13 -31 -16q-7 2 -8 5q29 47 34 120t-21 122q-39 66 -153 66t-179 -33q-119 -43 -228 -135q-145 -129 -238 -308.5t-93 -336.5q0 -154 85 -231t214 -77q236 -2 400.5 154t244.5 393 h-211q-272 0 -262 -129q0 -25 10 -45l-18 -12q-55 92 -56 104q-6 61 29 90q23 18 69 27.5t84.5 9.5t95 -3t68.5 -3h389l-22 -24q-84 0 -121 -48q-12 -16 -22.5 -33.5t-20.5 -39t-17.5 -35.5t-16.5 -43t-12 -40t-14.5 -45t-13.5 -44q-12 -43 -38.5 -142.5t-41 -146.5 t-45 -130t-60.5 -136t-78 -115.5t-107 -114.5q-68 -57 -166.5 -96t-179.5 -39q-86 0 -166 36t-113 106q-20 39 -20 114v9v13v12zM938 1251q0 2 3 5.5t10 8.5t15.5 11t16.5 11t15.5 9t12.5 6.5t7 2.5q47 -29 67 -25q16 4 17 -5q1 -8 -12 -22q-59 -49 -78 -47q-41 2 -74 45z " />
<glyph unicode="&#x121;" horiz-adv-x="542" d="M-578 -423q0 7 2.5 12t5.5 10.5t8 7.5t11 2q4 0 4 -4q0 -8 -2 -24.5t-2 -26.5q0 -92 58.5 -142.5t152.5 -50.5q72 0 147 31q57 25 108.5 57.5t98.5 83.5t82 89t77 111.5t63.5 108.5t60.5 125t50 116t50 124t43 110q-68 -111 -209 -231q-106 -90 -184 -90q-37 0 -37 45v14 q14 115 96 247t179 204q70 53 153 53h236q10 0 10 -8q0 -16 -18 -16q-45 0 -74 -54q-55 -88 -275 -598q-57 -135 -112 -232t-146.5 -193.5t-201.5 -143.5q-70 -31 -154 -31q-82 0 -152.5 37t-105.5 109q-23 43 -23 114v9v13v12zM113 90q0 -25 18 -24q59 0 211 181t152 247 q0 39 -48 38q-55 0 -129 -69q-53 -49 -128.5 -181t-75.5 -192zM492 711q-2 2 5 8t19 14t23.5 15.5t20.5 12.5t11 3q47 -29 68 -25q16 4 17 -5q1 -8 -13 -21q-59 -49 -78 -47q-41 2 -73 45z" />
<glyph unicode="&#x122;" horiz-adv-x="1179" d="M66 -423q0 7 2 12t4 10.5t7 7.5t11 2q4 0 4 -4q0 -8 -2 -24.5t-2 -26.5q0 -92 58.5 -142.5t152.5 -50.5q246 0 434 238q41 51 78 106t61.5 98t53 107.5t42 98.5t43 112t42.5 106q-82 -121 -244 -207t-313 -86q-176 -2 -298 87.5t-122 254.5q0 193 106.5 376.5 t274.5 310.5q215 162 465 161q113 0 188 -37q104 -49 88 -129q-6 -23 -40 -78t-44 -83q-4 -13 -31 -16q-7 2 -8 5q29 47 34 120t-21 122q-39 66 -153 66t-179 -33q-119 -43 -228 -135q-145 -129 -238 -308.5t-93 -336.5q0 -154 85 -231t214 -77q236 -2 400.5 154t244.5 393 h-211q-272 0 -262 -129q0 -25 10 -45l-18 -12q-55 92 -56 104q-6 61 29 90q23 18 69 27.5t84.5 9.5t95 -3t68.5 -3h389l-22 -24q-84 0 -121 -48q-12 -16 -22.5 -33.5t-20.5 -39t-17.5 -35.5t-16.5 -43t-12 -40t-14.5 -45t-13.5 -44q-12 -43 -38.5 -142.5t-41 -146.5 t-45 -130t-60.5 -136t-78 -115.5t-107 -114.5q-68 -57 -166.5 -96t-179.5 -39q-86 0 -166 36t-113 106q-20 39 -20 114v9v13v12zM324 -467l2 14q2 8 14 19q66 59 80 127q6 20 -7.5 38.5t-35.5 22.5l6 21q25 0 47 22q4 2 9 7.5t10.5 9.5t7.5 4q46 -8 32 -74 q-23 -115 -141 -197q-25 -14 -24 -14z" />
<glyph unicode="&#x123;" horiz-adv-x="542" d="M-578 -423q0 7 2.5 12t5.5 10.5t8 7.5t11 2q4 0 4 -4q0 -8 -2 -24.5t-2 -26.5q0 -92 58.5 -142.5t152.5 -50.5q72 0 147 31q57 25 108.5 57.5t98.5 83.5t82 89t77 111.5t63.5 108.5t60.5 125t50 116t50 124t43 110q-68 -111 -209 -231q-106 -90 -184 -90q-37 0 -37 45v14 q14 115 96 247t179 204q70 53 153 53h236q10 0 10 -8q0 -16 -18 -16q-45 0 -74 -54q-55 -88 -275 -598q-57 -135 -112 -232t-146.5 -193.5t-201.5 -143.5q-70 -31 -154 -31q-82 0 -152.5 37t-105.5 109q-23 43 -23 114v9v13v12zM113 90q0 -25 18 -24q59 0 211 181t152 247 q0 39 -48 38q-55 0 -129 -69q-53 -49 -128.5 -181t-75.5 -192zM498 743q31 133 168 232q29 16 28 16l-4 -16q-4 -12 -16 -23q-76 -66 -94 -149q-4 -25 10 -46.5t41 -25.5l-8 -22q-16 -2 -56 -29q-29 -23 -30 -23q-57 8 -39 86z" />
<glyph unicode="&#x124;" horiz-adv-x="1576" d="M10 221v15v18q0 6 1 15.5t6.5 13.5t11.5 4q4 0 4 -4q0 -8 -1 -24.5t-1 -25.5q0 -94 46 -144t122 -50q129 0 264 145q68 74 188 310q-178 -4 -268 -19q-19 -3 -8 13q27 37 90 68q17 8 29 9l190 -6q35 66 166 326q33 68 93.5 127t123.5 71q-35 -2 -108.5 -3t-118.5 -3 t-106.5 -9t-110.5 -21q-109 -29 -138 -84q-20 -41 -16 -82t29 -60q7 -5 -4 -13q-8 -5 -15 -1q-18 10 -44.5 50t-33.5 67q-18 68 9.5 109.5t97.5 57t115 19.5t113 4h7q385 0 437 8q18 4 21 -3t-4 -16t-13 -9q-123 -12 -219 -183q-72 -129 -189 -356q20 0 44 -1t36 -2t14 -1 h301q90 0 146 24q217 414 299 519q12 4 71.5 32.5t100.5 42t74 13.5q24 0 32 -15q4 -9 -10 -12q-10 -2 -28.5 -2t-28.5 -2t-30.5 -13.5t-43.5 -35.5q-88 -88 -281.5 -447.5t-224.5 -486.5q-33 -147 70 -148q53 0 127 39q96 55 229 232q14 19 15 -4q1 -14 -7 -25 q-125 -180 -249 -248q-57 -31 -144 -34q-84 -4 -132 65.5t-17 157.5q37 96 155 329q-51 -47 -98 -45q-84 8 -352 9h-99q-160 -319 -245 -412q-119 -125 -267 -125q-66 0 -123 38t-83 107q-16 39 -17 117zM1225 1276q150 100 231 172h25q49 -82 139 -143q27 -16 37 -17v-6 q-12 -4 -43 -18q-20 -10 -86 45q-29 25 -80 86q0 6 -12 0q-23 -20 -88.5 -64.5t-94.5 -54.5q-10 -4 -28 0z" />
<glyph unicode="&#x125;" d="M-12 11q0 3 2 5q16 39 89 217.5t122 282.5q184 410 393 594q170 150 364 150q113 -1 121 -89q4 -37 -6 -75q-2 -8 -16 -9h-4q-2 0 0 3q8 51 -26 74.5t-93 23.5q-184 0 -340 -135q-188 -166 -334 -551q-20 -55 -57 -155.5t-51 -137.5q195 258 325 336q74 41 113 25.5 t-10 -103.5q-45 -72 -114 -207t-69 -178q0 -20 12.5 -27.5t29 -3.5t31.5 11.5t26 15.5q86 66 198 205l3 -10q-3 -30 -17 -46q-41 -55 -92 -112q-111 -127 -215 -127q-106 0 -70 98q4 14 166 352q33 65 -20 37q-29 -16 -70 -51q-92 -86 -175 -193.5t-118 -205.5 q-7 -23 -62 -29q-38 -4 -36 15zM772 1321q150 100 232 172h24q49 -82 139 -143q27 -16 37 -17v-6q-12 -4 -43 -18q-20 -10 -86 45q-29 25 -80 86q0 6 -12 0q-23 -20 -88.5 -64.5t-93.5 -54.5q-11 -4 -29 0z" />
<glyph unicode="&#x126;" horiz-adv-x="1576" d="M10 221v15v18q0 6 1 15.5t6.5 13.5t11.5 4q4 0 4 -4q0 -8 -1 -24.5t-1 -25.5q0 -94 46 -144t122 -50q129 0 264 145q68 74 188 310q-178 -4 -268 -19q-19 -3 -8 13q27 37 90 68q17 8 29 9l190 -6q35 66 166 326q16 31 22 41h-20q-25 0 -54.5 20.5t-25.5 30.5l6 6 q88 6 146 8q70 78 143 92q-35 -2 -108.5 -3t-118.5 -3t-106.5 -9t-110.5 -21q-109 -29 -138 -84q-20 -41 -16 -82t29 -60q7 -5 -4 -13q-8 -5 -15 -1q-18 10 -44.5 50t-33.5 67q-18 68 9.5 109.5t97.5 57t115 19.5t113 4h7q385 0 437 8q18 4 21 -3t-4 -16t-13 -9 q-88 -8 -164 -101q92 2 233 2q143 0 293 -8q39 70 70 107q12 4 71.5 32.5t100.5 42t74 13.5q24 0 32 -15q4 -8 -10 -12q-10 -2 -28.5 -2t-28.5 -2t-30.5 -13.5t-43.5 -35.5q-37 -37 -90 -121q57 -2 94 -10l17 -6q-6 -12 -39 -13q-14 0 -45 -1t-45 -1q-117 -182 -246 -435 t-152 -347q-33 -147 70 -148q53 0 127 39q96 55 229 232q14 19 15 -4q1 -14 -7 -25q-125 -180 -249 -248q-57 -31 -144 -34q-84 -4 -132 65.5t-17 157.5q37 96 155 329q-51 -47 -98 -45q-84 8 -352 9h-99q-160 -319 -245 -412q-119 -125 -267 -125q-66 0 -123 38t-83 107 q-16 39 -17 117zM776 555q20 0 44 -1t36 -2t14 -1h301q91 -1 146 24q102 199 205 373q-72 -2 -260.5 -11t-288.5 -11l-8 -15q-72 -129 -189 -356z" />
<glyph unicode="&#x127;" d="M-12 11q0 3 2 5q16 39 89 217.5t122 282.5q100 221 196 365q-65 -6 -129 -7q-8 0 -19 14.5t-9 22.5l2 4q39 10 170 11h18q78 109 164 184q170 150 364 150q113 0 121 -89q4 -37 -6 -75q-2 -8 -16 -9h-4q-2 0 0 3q8 51 -26 74.5t-93 23.5q-184 0 -340 -135 q-57 -49 -117 -129q98 -8 115 -17l3 -2q3 0 3 -2q-4 -10 -14 -10q-43 0 -133 -8q-109 -158 -191 -383q-20 -55 -57 -155.5t-51 -137.5q195 258 325 336q74 41 113 25.5t-10 -103.5q-45 -72 -114 -207t-69 -178q0 -20 12.5 -27.5t29 -3.5t31.5 11.5t26 15.5q86 66 198 205 l3 -10q-3 -30 -17 -46q-41 -55 -92 -112q-111 -127 -215 -127q-106 0 -70 98q4 14 166 352q33 65 -20 37q-29 -16 -70 -51q-92 -86 -175 -193.5t-118 -205.5q-7 -23 -62 -29q-38 -4 -36 15z" />
<glyph unicode="&#x128;" horiz-adv-x="747" d="M20 240q0 27 10 29q8 1 12 -11q1 -3 1 -6q0 -94 46 -144.5t122 -50.5q129 0 264 146q35 37 66.5 79t54 71.5t54.5 85t44.5 76t46 89t38.5 78.5t43 92t40 86q66 137 164 203h-61q-45 0 -88 -4t-104.5 -17.5t-96.5 -49.5t-31 -87q4 -35 25 -78l-21 -16q-80 139 -82 154 q-6 74 35 110q27 23 83 33t104.5 9t116 -4t83.5 -3l328 2l-27 -31q-63 0 -137 -14q-53 -8 -115.5 -56t-105.5 -120l-19 -31q-14 -33 -67 -162t-90 -213t-102.5 -194.5t-129.5 -177.5q-51 -57 -130 -95t-148 -38q-68 0 -124 37.5t-83 107.5q-18 45 -19 115zM885 1245 q10 33 40.5 60.5t63.5 27.5t84 -20.5t94 -24.5q47 -6 84 45h21q-12 -43 -40 -72.5t-54 -29.5q-43 0 -107.5 25.5t-99.5 25.5q-45 0 -62 -37h-24z" />
<glyph unicode="&#x129;" horiz-adv-x="393" d="M65.5 229.5q-1.5 19.5 10.5 32.5q145 180 223 293q102 14 127 35q16 16 18 -1q1 -8 -6 -16q-12 -14 -37.5 -60t-76 -141.5t-56.5 -109.5q-70 -131 -69 -180q0 -29 28 -29q63 0 230 197l45 51q4 -4 4 -14q-4 -18 -27 -51q-57 -72 -97 -115t-108.5 -85t-134.5 -42 q-47 0 -47 39q0 18 10.5 50t20.5 54.5t27.5 60.5t21.5 44l104 221q-109 -117 -196 -234q-13 -19 -14.5 0.5zM231 733q10 33 41 60.5t64 27.5t84 -20.5t94 -24.5q47 -6 84 45h20q-12 -43 -39.5 -72.5t-54.5 -29.5q-43 0 -107.5 25.5t-99.5 25.5q-45 0 -61 -37h-25z" />
<glyph unicode="&#x12a;" horiz-adv-x="747" d="M20 240q0 27 10 29q8 1 12 -11q1 -3 1 -6q0 -94 46 -144.5t122 -50.5q129 0 264 146q35 37 66.5 79t54 71.5t54.5 85t44.5 76t46 89t38.5 78.5t43 92t40 86q66 137 164 203h-61q-45 0 -88 -4t-104.5 -17.5t-96.5 -49.5t-31 -87q4 -35 25 -78l-21 -16q-80 139 -82 154 q-6 74 35 110q27 23 83 33t104.5 9t116 -4t83.5 -3l328 2l-27 -31q-63 0 -137 -14q-53 -8 -115.5 -56t-105.5 -120l-19 -31q-14 -33 -67 -162t-90 -213t-102.5 -194.5t-129.5 -177.5q-51 -57 -130 -95t-148 -38q-68 0 -124 37.5t-83 107.5q-18 45 -19 115zM891 1257l2 5 q39 10 170 10q137 0 180 -19l3 -1q3 -1 3 -3q-4 -10 -14 -10q-51 0 -157.5 -9t-157.5 -9q-8 0 -19.5 14t-9.5 22z" />
<glyph unicode="&#x12b;" horiz-adv-x="393" d="M65.5 229.5q-1.5 19.5 10.5 32.5q145 180 223 293q102 14 127 35q16 16 18 -1q1 -8 -6 -16q-12 -14 -37.5 -60t-76 -141.5t-56.5 -109.5q-70 -131 -69 -180q0 -29 28 -29q63 0 230 197l45 51q4 -4 4 -14q-4 -18 -27 -51q-57 -72 -97 -115t-108.5 -85t-134.5 -42 q-47 0 -47 39q0 18 10.5 50t20.5 54.5t27.5 60.5t21.5 44l104 221q-109 -117 -196 -234q-13 -19 -14.5 0.5zM254 803l2 4q39 10 170 10q137 0 180 -18l4 -2q2 0 2 -2q-4 -10 -14 -11q-53 0 -157.5 -9t-157.5 -9q-8 0 -19.5 14.5t-9.5 22.5z" />
<glyph unicode="&#x12e;" horiz-adv-x="747" d="M20 240q0 27 10 29q8 1 12 -11q1 -3 1 -6q0 -94 46 -144.5t122 -50.5q129 0 264 146q35 37 66.5 79t54 71.5t54.5 85t44.5 76t46 89t38.5 78.5t43 92t40 86q66 137 164 203h-61q-45 0 -88 -4t-104.5 -17.5t-96.5 -49.5t-31 -87q4 -35 25 -78l-21 -16q-80 139 -82 154 q-6 74 35 110q27 23 83 33t104.5 9t116 -4t83.5 -3l328 2l-27 -31q-63 0 -137 -14q-53 -8 -115.5 -56t-105.5 -120l-19 -31q-14 -33 -67 -162t-90 -213t-102.5 -194.5t-129.5 -177.5q-41 -47 -103.5 -82t-123.5 -45q-33 -33 -59.5 -100.5t-26.5 -121.5q0 -68 63 -43 q20 8 45 28t58 50.5t43 38.5l-1 -15q-4 -20 -9 -26q-66 -92 -193 -145q-102 -41 -102 51q0 59 44 145t91 132h-4q-68 0 -124 37.5t-83 107.5q-18 45 -19 115z" />
<glyph unicode="&#x12f;" horiz-adv-x="393" d="M16 -287q0 59 47.5 148.5t94.5 134.5q-2 0 -8.5 -1t-10.5 -1q-47 0 -47 39q0 18 10.5 50t20.5 54.5t27.5 60.5t21.5 44l104 221q-109 -117 -196 -234q-13 -19 -14.5 0.5t10.5 32.5q145 180 223 293q102 14 127 35q16 16 18 -1q1 -8 -6 -16q-12 -14 -37.5 -60t-76 -141.5 t-56.5 -109.5q-70 -131 -69 -180q0 -29 28 -29q63 0 230 197l45 51q4 -4 4 -14q-4 -18 -27 -51q-47 -59 -78.5 -95.5t-85 -78.5t-104.5 -58q-35 -23 -66.5 -96.5t-31.5 -132.5q0 -68 63 -43q20 8 45 27.5t57.5 50t43.5 38.5l-1 -15q-5 -20 -10 -26q-66 -92 -192 -145 q-102 -41 -103 51zM450 842.5q7 23.5 27 38.5q53 34 84 -7q12 -18 5 -41.5t-29.5 -38t-46 -12.5t-35.5 19q-12 18 -5 41.5z" />
<glyph unicode="&#x130;" horiz-adv-x="747" d="M20 240q0 27 10 29q8 1 12 -11q1 -3 1 -6q0 -94 46 -144.5t122 -50.5q129 0 264 146q35 37 66.5 79t54 71.5t54.5 85t44.5 76t46 89t38.5 78.5t43 92t40 86q66 137 164 203h-61q-45 0 -88 -4t-104.5 -17.5t-96.5 -49.5t-31 -87q4 -35 25 -78l-21 -16q-80 139 -82 154 q-6 74 35 110q27 23 83 33t104.5 9t116 -4t83.5 -3l328 2l-27 -31q-63 0 -137 -14q-53 -8 -115.5 -56t-105.5 -120l-19 -31q-14 -33 -67 -162t-90 -213t-102.5 -194.5t-129.5 -177.5q-51 -57 -130 -95t-148 -38q-68 0 -124 37.5t-83 107.5q-18 45 -19 115zM985 1262q0 2 3 5 t10.5 8t15.5 11t16 11.5t15.5 9.5t12.5 6t7 2q47 -29 68 -25q16 4 16 -5q1 -8 -12 -21q-59 -49 -78 -47q-41 2 -74 45z" />
<glyph unicode="&#x131;" horiz-adv-x="393" d="M65.5 229.5q-1.5 19.5 10.5 32.5q145 180 223 293q102 14 127 35q16 16 18 -1q1 -8 -6 -16q-12 -14 -37.5 -60t-76 -141.5t-56.5 -109.5q-70 -131 -69 -180q0 -29 28 -29q63 0 230 197l45 51q4 -4 4 -14q-4 -18 -27 -51q-57 -72 -97 -115t-108.5 -85t-134.5 -42 q-47 0 -47 39q0 18 10.5 50t20.5 54.5t27.5 60.5t21.5 44l104 221q-109 -117 -196 -234q-13 -19 -14.5 0.5z" />
<glyph unicode="&#x134;" horiz-adv-x="415" d="M-455 -80q0 30 10.5 29t10.5 -17q0 -94 47 -144t123 -50q127 0 262 145q174 190 317 516q8 18 77 188.5t110 256.5q56 124 83 155q40 44 138 82q-23 -2 -59.5 -5t-47.5 -3q-319 -8 -383 -100q-29 -45 -12 -100.5t60 -75.5q14 -6 -5 -16q-11 -6 -20 -3q-27 14 -64.5 58.5 t-46.5 70.5q-25 74 14.5 120t136.5 63.5t160.5 21.5t161.5 4h9h221q16 2 -9 -19q-13 -11 -18 -12q-119 -6 -229 -231q-53 -104 -205 -455q-8 -20 -36.5 -87.5t-38 -88t-35 -76t-39 -80t-38 -69.5t-45 -72.5t-48 -63.5t-58.5 -69q-53 -57 -132 -96t-148 -39q-66 0 -122.5 38 t-84.5 109q-16 39 -17 115zM461 1276q150 100 231 172h25q49 -82 139 -143q27 -16 37 -17v-6q-12 -4 -43 -18q-20 -10 -86 45q-29 25 -80 86q0 6 -12 0q-23 -20 -88.5 -64.5t-94.5 -54.5q-10 -4 -28 0z" />
<glyph unicode="&#x135;" horiz-adv-x="276" d="M-858 -423q0 7 2 12t4 10.5t7 7.5t11.5 2t6.5 -4q0 -8 -3.5 -24.5t-3.5 -26.5q0 -92 58.5 -142.5t152.5 -50.5q72 0 150 31q174 76 296 240.5t224 402.5q41 98 79 209.5t57.5 175t23.5 67.5q27 29 76 51.5t80.5 24.5t37.5 -12q0 -16 -18 -16q-43 0 -70 -39 q-49 -70 -276 -613q-57 -133 -112.5 -231t-147.5 -194.5t-203 -143.5q-70 -31 -154 -31q-82 0 -152.5 37t-105.5 109q-20 43 -20 114v9v13v12zM135 715q150 100 232 172h24q49 -82 139 -144q27 -16 37 -16v-6q-12 -4 -43 -19q-20 -10 -86 46q-29 25 -80 86q0 6 -12 0 q-23 -20 -88 -64.5t-94 -54.5q-11 -4 -29 0z" />
<glyph unicode="&#x136;" horiz-adv-x="1146" d="M-2 -33q80 66 143 168l29 49q137 229 389 686q98 172 240 211q-178 -4 -282.5 -27.5t-141.5 -90.5q-18 -41 -14 -83t28 -59q7 -5 -4 -13q-8 -5 -14 -1q-18 10 -45 50t-33 67q-18 68 9.5 109.5t97 57t114.5 19.5t114 4h7q201 0 252 8q28 6 32 -19q0 -22 -18 -22 q-102 27 -211 -161q-131 -221 -203 -355q-147 -274 -245 -471q-4 -8 -15.5 -36.5t-21.5 -41t-23 -10.5q-37 8 -71 2q-43 -8 -91 -49q-9 -9 -21 1q-5 4 -1 7zM319 -326l3 15q2 8 14 18q66 59 80 127q6 20 -7.5 38.5t-35.5 23.5l6 20q25 0 47 23q4 2 9 7t10.5 9t7.5 4 q46 -8 32 -74q-23 -115 -141 -196q-25 -14 -25 -15zM467 520q176 162 479 350q18 12 103.5 65.5t145.5 87.5t118 58q68 29 131 29t112 -20q25 -8 48.5 -27.5t21.5 -42.5q0 -8 -8 -8q-4 0 -29.5 24.5t-64.5 24.5q-63 0 -195 -53q-219 -94 -342 -162q-172 -94 -440 -289 q25 -68 84 -176.5t143 -208.5q53 -66 108.5 -90.5t98.5 -18t93 44t83 74.5t76 94q16 23 21 7q4 -12 -9 -29q-106 -147 -190 -216t-177.5 -55.5t-185.5 134.5q-59 78 -106 163t-82 160.5t-37 79.5z" />
<glyph unicode="&#x137;" horiz-adv-x="663" d="M17 11q0 3 1 5q14 31 59.5 134.5t63 141.5t56.5 125t66.5 140t66.5 128t78 144q96 174 231 299t266 125q33 0 58.5 -17t25.5 -50v-60q0 -8 -12 -8q-6 0 -6 4q0 55 -84 56q-72 0 -146 -29q-51 -20 -98 -61t-74.5 -78t-66.5 -99q-135 -209 -320 -702q47 63 88 110 q-4 35 21 66q10 14 28.5 33.5t24.5 27.5l6 -34q90 92 158 133q72 41 115 25.5t-7 -103.5q-6 -10 -11 -19.5t-9 -13.5q-2 -4 -8 -1t-6 7q0 39 -54 39q-74 0 -172 -102q43 -236 84 -299q16 -27 60 -27q78 2 270 250q8 -10 4 -20q-2 -16 -29 -50q-100 -127 -188 -196 q-45 -37 -102.5 -44t-96.5 34q-35 47 -82 262q-125 -158 -159 -262q-9 -24 -66 -29q-36 -3 -34 15zM102 -319l2 14q2 8 15 18q66 59 80 127q6 20 -7.5 39t-35.5 23l6 20q25 0 47 23q4 2 9 7t10 9t8 4q46 -8 32 -74q-23 -115 -141 -196z" />
<glyph unicode="&#x138;" horiz-adv-x="663" d="M17 11q0 3 1 5q131 295 175 406q70 178 186.5 314t245.5 138q33 0 63.5 -17t38.5 -50l14 -59q2 -8 -10 -9q-6 0 -6 4q-14 51 -98 56q-55 4 -106.5 -17.5t-91.5 -67.5t-72.5 -93.5t-62.5 -115t-47.5 -112.5t-38 -107.5t-26.5 -76.5q47 63 88 110q-4 35 21 66 q10 14 28.5 33.5t24.5 27.5l6 -34q90 92 158 133q72 41 115 25.5t-7 -103.5q-6 -10 -11 -19.5t-9 -13.5q-2 -4 -8 -1t-6 7q0 39 -54 39q-74 0 -172 -102q43 -236 84 -299q16 -27 60 -27q78 2 270 250q8 -10 4 -20q-2 -16 -29 -50q-100 -127 -188 -196q-45 -37 -102.5 -44 t-96.5 34q-35 47 -82 262q-125 -158 -159 -262q-9 -24 -66 -29q-36 -3 -34 15z" />
<glyph unicode="&#x139;" horiz-adv-x="1120" d="M7 -7q-8 33 20 47q6 3 14 3q80 4 151.5 71.5t102.5 141.5l188 471q35 88 66 145.5t80 120t116.5 94t155.5 31.5q92 0 157.5 -34.5t49.5 -106.5q-4 -20 -37 -67.5t-45 -80.5q-6 -20 -22 -13q-9 4 -3 18q29 43 35 103t-21.5 109.5t-86.5 49.5q-131 0 -205 -138l-379 -698 q-88 -160 -170 -192h383h54h57h56q34 0 54.5 1t48 3t46 4t36 6t28.5 10t15 12q29 43 19 80t-53 58q-14 7 -2 16q6 4 14 0q25 -12 67.5 -64.5t53.5 -80.5q20 -57 -17 -89t-123 -32q-135 0 -413.5 19.5t-331.5 21.5q-92 6 -150 -47q-6 -6 -9 7zM950 1262q-2 1 2 14 q74 55 158 129q92 80 111 80q6 0 5 -29t-7 -35q-10 -18 -127 -86.5t-142 -72.5z" />
<glyph unicode="&#x13a;" horiz-adv-x="438" d="M65.5 229.5q-1.5 19.5 10.5 32.5q20 27 67 82t70 82q29 53 117 231.5t158.5 306.5t119.5 193q23 8 89.5 53t107.5 45q39 0 49 -41q25 -102 -176 -374q-152 -211 -422 -455q-25 -45 -45.5 -97t-34.5 -113.5t9.5 -96.5t86.5 -25q78 14 232 197l43 53q16 -16 -27 -72 q-76 -92 -102 -118q-125 -125 -223 -117q-172 10 -29 328l-86 -95q-13 -19 -14.5 0.5zM291 467q202 168 352 393q117 190 139 281q14 57 -2 73.5t-69 -34.5q-39 -43 -101.5 -142.5t-104.5 -175.5t-122 -223t-92 -172zM791 1415q-2 1 2 15q74 55 157 129q92 80 111 79 q6 0 5 -28.5t-7 -34.5q-10 -18 -127 -87t-141 -73z" />
<glyph unicode="&#x13b;" horiz-adv-x="1120" d="M7 -7q-8 33 20 47q6 3 14 3q80 4 151.5 71.5t102.5 141.5l188 471q35 88 66 145.5t80 120t116.5 94t155.5 31.5q92 0 157.5 -34.5t49.5 -106.5q-4 -20 -37 -67.5t-45 -80.5q-6 -20 -22 -13q-9 4 -3 18q29 43 35 103t-21.5 109.5t-86.5 49.5q-131 0 -205 -138l-379 -698 q-88 -160 -170 -192h383h54h57h56q34 0 54.5 1t48 3t46 4t36 6t28.5 10t15 12q29 43 19 80t-53 58q-14 7 -2 16q6 4 14 0q25 -12 67.5 -64.5t53.5 -80.5q20 -57 -17 -89t-123 -32q-135 0 -413.5 19.5t-331.5 21.5q-92 6 -150 -47q-6 -6 -9 7zM389 -344l2 14q2 8 15 19 q66 59 79 127q6 20 -7 38.5t-36 22.5l7 21q25 0 47 22q4 2 9 7t10 9.5t7 4.5q47 -8 33 -74q-23 -115 -141 -197z" />
<glyph unicode="&#x13c;" horiz-adv-x="438" d="M8 -348l2 14q2 8 15 19q66 59 79 127q6 20 -7 38.5t-36 22.5l7 21q25 0 47 22q4 2 9 7t10 9.5t7 4.5q47 -8 33 -74q-23 -115 -141 -197zM65.5 229.5q-1.5 19.5 10.5 32.5q20 27 67 82t70 82q29 53 117 231.5t158.5 306.5t119.5 193q23 8 89.5 53t107.5 45q39 0 49 -41 q25 -102 -176 -374q-152 -211 -422 -455q-25 -45 -45.5 -97t-34.5 -113.5t9.5 -96.5t86.5 -25q78 14 232 197l43 53q16 -16 -27 -72q-76 -92 -102 -118q-125 -125 -223 -117q-172 10 -29 328l-86 -95q-13 -19 -14.5 0.5zM291 467q202 168 352 393q117 190 139 281 q14 57 -2 73.5t-69 -34.5q-39 -43 -101.5 -142.5t-104.5 -175.5t-122 -223t-92 -172z" />
<glyph unicode="&#x13d;" horiz-adv-x="1257" d="M7 -7q-8 33 20 47q6 3 14 3q80 4 151.5 71.5t102.5 141.5l188 471q35 88 66 145.5t80 120t116.5 94t155.5 31.5q92 0 157.5 -34.5t49.5 -106.5q-4 -20 -37 -67.5t-45 -80.5q-6 -20 -22 -13q-9 4 -3 18q29 43 35 103t-21.5 109.5t-86.5 49.5q-131 0 -205 -138l-379 -698 q-88 -160 -170 -192h383h54h57h56q34 0 54.5 1t48 3t46 4t36 6t28.5 10t15 12q29 43 19 80t-53 58q-14 7 -2 16q6 4 14 0q25 -12 67.5 -64.5t53.5 -80.5q20 -57 -17 -89t-123 -32q-135 0 -413.5 19.5t-331.5 21.5q-92 6 -150 -47q-6 -6 -9 7zM1073 721l4 16q4 12 17 23 q76 66 94 149q4 27 -10.5 47.5t-40.5 24.5l8 23q23 6 55 28q29 23 31 23q57 -8 39 -86q-31 -133 -166 -232z" />
<glyph unicode="&#x13e;" horiz-adv-x="942" d="M65.5 229.5q-1.5 19.5 10.5 32.5q20 27 67 82t70 82q29 53 117 231.5t158.5 306.5t119.5 193q23 8 89.5 53t107.5 45q39 0 49 -41q25 -102 -176 -374q-152 -211 -422 -455q-25 -45 -45.5 -97t-34.5 -113.5t9.5 -96.5t86.5 -25q78 14 232 197l43 53q16 -16 -27 -72 q-76 -92 -102 -118q-125 -125 -223 -117q-172 10 -29 328l-86 -95q-13 -19 -14.5 0.5zM291 467q202 168 352 393q117 190 139 281q14 57 -2 73.5t-69 -34.5q-39 -43 -101.5 -142.5t-104.5 -175.5t-122 -223t-92 -172zM829 881l5 16q4 12 16 23q76 66 94 149q4 27 -10 47.5 t-41 24.5l8 22q20 6 55 29q29 23 31 22q57 -8 39 -86q-31 -133 -166 -231z" />
<glyph unicode="&#x141;" horiz-adv-x="1120" d="M7 -7q-8 33 20 47q6 3 14 3q80 4 151.5 71.5t102.5 141.5l45 115l-190 -64l2 18q17 48 32 50q25 4 176 45l123 307q35 88 66 145.5t80 120t116.5 94t155.5 31.5q92 0 157.5 -34.5t49.5 -106.5q-4 -20 -37 -67.5t-45 -80.5q-6 -20 -22 -13q-9 4 -3 18q29 43 35 103 t-21.5 109.5t-86.5 49.5q-131 0 -205 -138l-279 -514q52 17 193 66q11 3 -14 -45q-12 -23 -21 -25l-186 -47l-72 -133q-88 -160 -170 -192h383h54h57h56q34 0 54.5 1t48 3t46 4t36 6t28.5 10t15 12q29 43 19 80t-53 58q-14 7 -2 16q6 4 14 0q25 -12 67.5 -64.5t53.5 -80.5 q20 -57 -17 -89t-123 -32q-135 0 -413.5 19.5t-331.5 21.5q-92 6 -150 -47q-6 -6 -9 7z" />
<glyph unicode="&#x142;" horiz-adv-x="438" d="M65.5 229.5q-1.5 19.5 10.5 32.5q18 25 64 77t67 79q-63 0 -139 -6q-11 -2 21 32q22 24 32 23q27 -6 110 -6q23 45 86.5 172t105.5 207t95 175t90 142q23 8 89.5 53t107.5 45q41 -2 49 -45t-6 -71q-18 -55 -49 -115.5t-55.5 -102.5t-71.5 -107.5t-66.5 -91.5t-74 -93.5 t-60.5 -75.5l-74 -94l148 6q4 0 -6.5 -14.5t-24.5 -27.5t-22 -13q-12 0 -60.5 3t-71.5 3q-82 -102 -165 -180q-20 -51 -25 -80q-4 -55 19.5 -84t82.5 -19q78 14 232 197l43 53q16 -16 -27 -72q-76 -92 -102 -118q-125 -125 -223 -117q-172 10 -29 328l-86 -95 q-13 -19 -14.5 0.5zM215 297q57 55 113 119q-18 2 -49 2zM301 459h61q49 61 91 121q6 8 49 65t57 77.5t52 74t56.5 85t45 80t45 91.5t30.5 86q14 51 -2 62t-67 -36q-106 -109 -418 -706z" />
<glyph unicode="&#x143;" horiz-adv-x="1476" d="M12 240q0 30 10.5 29t10.5 -17q0 -96 52 -159.5t128 -63.5q147 0 272 131q53 57 97.5 120.5t85.5 147.5t62.5 132t66.5 158.5t57 141.5q33 80 88 137.5t127 69.5h-113q-326 0 -391 -94q-29 -45 -11.5 -100.5t60.5 -75.5q12 -6 -5 -16q-11 -6 -19 -3q-27 14 -65 58.5 t-46 70.5q-25 74 14 120t136.5 63.5t160 21.5t159.5 4h9h248q18 2 -16 -40q-18 -23 -27 -21q-23 2 -63.5 -7.5t-57.5 -21.5q12 -150 83 -394.5t155 -455.5q25 61 121 325.5t180 451t156 253.5q31 29 78 42.5t81.5 1t32.5 -49.5l-2 -74l-18 -5q2 24 -18.5 37t-39.5 13 q-47 2 -107.5 -70.5t-127 -208.5t-111.5 -239.5t-105.5 -258t-68.5 -173.5q-27 -61 -18 -108q0 -6 4 -19.5t4 -19.5q6 -23 -14 -39q-20 -14 -45 -25q-14 -6 -39 -30.5t-33 -36.5q-8 -11 -21 1q-3 3 -2 5q23 31 41 84q-18 100 -53 229t-61.5 219t-76.5 246t-69 215 q-20 -14 -51 -106q-2 -6 -27.5 -75t-35 -91.5t-37 -90t-43 -101.5t-45 -94t-54 -100t-56.5 -87t-62 -84q-45 -55 -136.5 -94t-162.5 -39q-66 0 -123.5 36.5t-85.5 108.5q-16 47 -17 115zM1415 1262q-2 1 2 14q74 55 158 129q92 80 111 80q6 0 4.5 -29t-7.5 -35 q-10 -18 -126.5 -86.5t-141.5 -72.5z" />
<glyph unicode="&#x144;" horiz-adv-x="675" d="M65.5 229.5q-1.5 19.5 10.5 32.5q145 180 223 293q102 14 127 35q16 16 18 -1q1 -8 -6 -16q-20 -23 -168 -297q33 43 109 123q47 49 119.5 103.5t119.5 60.5q61 10 69.5 -19.5t-23.5 -76.5q-41 -61 -109 -197.5t-68 -179.5q0 -29 29 -29q31 0 79 38t86 81t101 121 q14 -18 -22 -65q-104 -141 -187 -205q-61 -47 -118 -47q-131 0 -2 258q72 135 110 225q20 44 -28 15q-68 -42 -136 -109q-141 -147 -227 -377q-11 -1 -77 -24q-18 -6 -17 4q1 4 4 12q10 20 39 90q23 53 59.5 146t63 159t32.5 80q-109 -117 -196 -234q-13 -19 -14.5 0.5z M545 686q-2 1 2 14q74 55 158 129q92 80 110 80q6 0 5 -28.5t-7 -34.5q-10 -18 -127 -87t-141 -73z" />
<glyph unicode="&#x145;" horiz-adv-x="1476" d="M12 240q0 30 10.5 29t10.5 -17q0 -96 52 -159.5t128 -63.5q147 0 272 131q53 57 97.5 120.5t85.5 147.5t62.5 132t66.5 158.5t57 141.5q33 80 88 137.5t127 69.5h-113q-326 0 -391 -94q-29 -45 -11.5 -100.5t60.5 -75.5q12 -6 -5 -16q-11 -6 -19 -3q-27 14 -65 58.5 t-46 70.5q-25 74 14 120t136.5 63.5t160 21.5t159.5 4h9h248q18 2 -16 -40q-18 -23 -27 -21q-23 2 -63.5 -7.5t-57.5 -21.5q12 -150 83 -394.5t155 -455.5q25 61 121 325.5t180 451t156 253.5q31 29 78 42.5t81.5 1t32.5 -49.5l-2 -74l-18 -5q2 24 -18.5 37t-39.5 13 q-47 2 -107.5 -70.5t-127 -208.5t-111.5 -239.5t-105.5 -258t-68.5 -173.5q-27 -61 -18 -108q0 -6 4 -19.5t4 -19.5q6 -23 -14 -39q-20 -14 -45 -25q-14 -6 -39 -30.5t-33 -36.5q-8 -11 -21 1q-3 3 -2 5q23 31 41 84q-18 100 -53 229t-61.5 219t-76.5 246t-69 215 q-20 -14 -51 -106q-2 -6 -27.5 -75t-35 -91.5t-37 -90t-43 -101.5t-45 -94t-54 -100t-56.5 -87t-62 -84q-45 -55 -136.5 -94t-162.5 -39q-66 0 -123.5 36.5t-85.5 108.5q-16 47 -17 115zM698 -317l2 14q2 8 15 18q66 59 80 127q6 20 -7.5 39t-35.5 23l6 20q25 0 47 23 q4 2 9 7t10 9t7 4q47 -7 33 -73q-23 -115 -141 -197z" />
<glyph unicode="&#x146;" horiz-adv-x="675" d="M65.5 229.5q-1.5 19.5 10.5 32.5q145 180 223 293q102 14 127 35q16 16 18 -1q1 -8 -6 -16q-20 -23 -168 -297q33 43 109 123q47 49 119.5 103.5t119.5 60.5q61 10 69.5 -19.5t-23.5 -76.5q-41 -61 -109 -197.5t-68 -179.5q0 -29 29 -29q31 0 79 38t86 81t101 121 q14 -18 -22 -65q-104 -141 -187 -205q-61 -47 -118 -47q-131 0 -2 258q72 135 110 225q20 44 -28 15q-68 -42 -136 -109q-141 -147 -227 -377q-11 -1 -77 -24q-18 -6 -17 4q1 4 4 12q10 20 39 90q23 53 59.5 146t63 159t32.5 80q-109 -117 -196 -234q-13 -19 -14.5 0.5z M160 -319l2 14q2 8 14 18q66 59 80 127q6 20 -7 39t-36 23l6 20q25 0 47 23q4 2 9.5 7t10.5 9t7 4q47 -8 33 -74q-23 -115 -142 -196q-25 -14 -24 -14z" />
<glyph unicode="&#x147;" horiz-adv-x="1476" d="M12 240q0 30 10.5 29t10.5 -17q0 -96 52 -159.5t128 -63.5q147 0 272 131q53 57 97.5 120.5t85.5 147.5t62.5 132t66.5 158.5t57 141.5q33 80 88 137.5t127 69.5h-113q-326 0 -391 -94q-29 -45 -11.5 -100.5t60.5 -75.5q12 -6 -5 -16q-11 -6 -19 -3q-27 14 -65 58.5 t-46 70.5q-25 74 14 120t136.5 63.5t160 21.5t159.5 4h9h248q18 2 -16 -40q-18 -23 -27 -21q-23 2 -63.5 -7.5t-57.5 -21.5q12 -150 83 -394.5t155 -455.5q25 61 121 325.5t180 451t156 253.5q31 29 78 42.5t81.5 1t32.5 -49.5l-2 -74l-18 -5q2 24 -18.5 37t-39.5 13 q-47 2 -107.5 -70.5t-127 -208.5t-111.5 -239.5t-105.5 -258t-68.5 -173.5q-27 -61 -18 -108q0 -6 4 -19.5t4 -19.5q6 -23 -14 -39q-20 -14 -45 -25q-14 -6 -39 -30.5t-33 -36.5q-8 -11 -21 1q-3 3 -2 5q23 31 41 84q-18 100 -53 229t-61.5 219t-76.5 246t-69 215 q-20 -14 -51 -106q-2 -6 -27.5 -75t-35 -91.5t-37 -90t-43 -101.5t-45 -94t-54 -100t-56.5 -87t-62 -84q-45 -55 -136.5 -94t-162.5 -39q-66 0 -123.5 36.5t-85.5 108.5q-16 47 -17 115zM1247 1339v7q12 2 43 18q20 10 86 -45q29 -25 80 -86q0 -6 12 0q23 20 88.5 64 t94.5 55q10 4 28 0q-150 -100 -231 -172h-25q-49 82 -139 143q-27 16 -37 16z" />
<glyph unicode="&#x148;" horiz-adv-x="675" d="M65.5 229.5q-1.5 19.5 10.5 32.5q145 180 223 293q102 14 127 35q16 16 18 -1q1 -8 -6 -16q-20 -23 -168 -297q33 43 109 123q47 49 119.5 103.5t119.5 60.5q61 10 69.5 -19.5t-23.5 -76.5q-41 -61 -109 -197.5t-68 -179.5q0 -29 29 -29q31 0 79 38t86 81t101 121 q14 -18 -22 -65q-104 -141 -187 -205q-61 -47 -118 -47q-131 0 -2 258q72 135 110 225q20 44 -28 15q-68 -42 -136 -109q-141 -147 -227 -377q-11 -1 -77 -24q-18 -6 -17 4q1 4 4 12q10 20 39 90q23 53 59.5 146t63 159t32.5 80q-109 -117 -196 -234q-13 -19 -14.5 0.5z M371 784v7q12 4 43 18q20 10 86 -45q29 -25 80 -86q0 -6 12 0q23 20 88 64t94 55q11 4 29 0q-150 -100 -232 -172h-24q-49 82 -139 143q-27 16 -37 16z" />
<glyph unicode="&#x14a;" horiz-adv-x="1476" d="M12 240q0 30 10.5 29t10.5 -17q0 -96 52 -159.5t128 -63.5q147 0 272 131q53 57 97.5 120.5t85.5 147.5t62.5 132t66.5 158.5t57 141.5q33 80 88 137.5t127 69.5h-113q-326 0 -391 -94q-29 -45 -11.5 -100.5t60.5 -75.5q12 -6 -5 -16q-11 -6 -19 -3q-27 14 -65 58.5 t-46 70.5q-25 74 14 120t136.5 63.5t160 21.5t159.5 4h9h248q18 2 -16 -40q-18 -23 -27 -21q-23 2 -63.5 -7.5t-57.5 -21.5q12 -150 82 -391.5t154 -452.5q209 551 260 676q115 272 199 348q31 29 78 42.5t81.5 1t32.5 -49.5l-2 -74l-18 -5q2 24 -18.5 37t-39.5 13 q-47 0 -105 -67.5t-117.5 -189t-109 -234.5t-99.5 -257t-68.5 -197.5t-36.5 -114.5l-2 -7l8 -30q6 -23 -14 -39q-12 -9 -31 -19q-23 -49 -69 -166.5t-81.5 -206.5t-98 -202t-127 -186.5t-158 -125t-199.5 -51.5q-80 0 -147.5 49.5t-102.5 141.5q-20 55 -21 147 q0 38 12.5 37.5t12.5 -20.5q0 -121 57.5 -186.5t149.5 -65.5q80 0 152.5 29.5t134 89t109.5 120t96 153.5t78 156.5t73 163t61 140.5q-18 100 -53 229t-61.5 219t-76.5 246t-69 215q-20 -14 -51 -106q-2 -6 -27.5 -75t-35 -91.5t-37 -90t-43 -101.5t-45 -94t-54 -100 t-56.5 -87t-62 -84q-45 -55 -136.5 -94t-162.5 -39q-66 0 -123.5 36.5t-85.5 108.5q-16 47 -17 115z" />
<glyph unicode="&#x14b;" horiz-adv-x="675" d="M-506 -423q0 7 2 12t4 10.5t7.5 7.5t11.5 2t6 -4q0 -8 -3 -24.5t-3 -26.5q0 -92 58 -142.5t153 -50.5q72 0 149 31q90 39 167 107.5t140.5 163.5t107.5 179t95 199q-6 55 64 201q72 135 110 225q20 44 -28 15q-68 -42 -136 -109q-141 -147 -227 -377q-11 -1 -77 -24 q-18 -6 -17 4q1 4 4 12q10 20 39 90q23 53 59.5 146t63 159t32.5 80q-109 -117 -196 -234q-13 -19 -14.5 0.5t10.5 32.5q145 180 223 293q102 14 127 35q16 16 18 -1q1 -8 -6 -16q-20 -23 -168 -297q33 43 109 123q47 49 119.5 103.5t119.5 60.5q61 10 69.5 -19.5 t-23.5 -76.5q-41 -61 -109 -197.5t-68 -179.5q0 -29 29 -29q31 0 79 38t86 81t101 121q14 -18 -22 -65q-104 -141 -187 -205q-61 -47 -118 -47q-16 0 -25 2l-41 -103q-57 -133 -112.5 -231t-147.5 -194.5t-203 -143.5q-70 -31 -153 -31q-82 0 -153 37t-105 109 q-20 43 -21 114v9v13v12z" />
<glyph unicode="&#x14c;" horiz-adv-x="1216" d="M14 299q0 88 33 194.5t103.5 220t167 207t237.5 154t301 60.5q244 0 357.5 -79t113.5 -245q0 -213 -114.5 -406.5t-312.5 -311.5t-425 -118q-461 0 -461 324zM123 281q0 -274 336 -275q201 0 378 127t275 316.5t98 379.5q0 274 -350 275q-174 0 -349 -139.5t-281.5 -332 t-106.5 -351.5zM905 1284l2 4q39 10 170 10q137 0 180 -18l4 -2q3 0 3 -2q-4 -10 -15 -10q-53 0 -157.5 -9.5t-157.5 -9.5q-8 0 -19.5 14.5t-9.5 22.5z" />
<glyph unicode="&#x14d;" horiz-adv-x="542" d="M18 68q0 117 113 272q72 102 174 162q109 68 184 67q82 0 82 -80q0 -111 -110 -270q-43 -57 -78 -90q135 0 250 152q10 11 9 -9q0 -16 -7 -26q-119 -166 -275 -144q-115 -106 -258 -106q-84 0 -84 72zM119 59q8 -33 38.5 -28.5t61.5 22t51 37.5q63 68 117 156 q96 160 86 262q-14 41 -66.5 21.5t-87.5 -56.5q-70 -72 -116 -156q-104 -174 -84 -258zM360 741l2 4q39 10 170 11q137 0 181 -19l3 -2q3 0 3 -2q-4 -10 -14 -10q-53 0 -158 -9t-158 -9q-8 0 -19.5 14t-9.5 22z" />
<glyph unicode="&#x150;" horiz-adv-x="1216" d="M14 299q0 88 33 194.5t103.5 220t167 207t237.5 154t301 60.5q244 0 357.5 -79t113.5 -245q0 -213 -114.5 -406.5t-312.5 -311.5t-425 -118q-461 0 -461 324zM123 281q0 -274 336 -275q201 0 378 127t275 316.5t98 379.5q0 274 -350 275q-174 0 -349 -139.5t-281.5 -332 t-106.5 -351.5zM854 1260q20 49 61 159q8 27 29 77t31 56q4 2 17.5 -1t23.5 -10t10 -11q0 -23 -65.5 -134.5t-86.5 -129.5zM1042 1260q20 49 62 159q8 27 28.5 77t30.5 56q4 2 17.5 -1t23.5 -10t10 -11q0 -23 -65.5 -134.5t-85.5 -129.5z" />
<glyph unicode="&#x151;" horiz-adv-x="542" d="M18 68q0 117 113 272q72 102 174 162q109 68 184 67q82 0 82 -80q0 -111 -110 -270q-43 -57 -78 -90q135 0 250 152q10 11 9 -9q0 -16 -7 -26q-119 -166 -275 -144q-115 -106 -258 -106q-84 0 -84 72zM119 59q8 -33 38.5 -28.5t61.5 22t51 37.5q63 68 117 156 q96 160 86 262q-14 41 -66.5 21.5t-87.5 -56.5q-70 -72 -116 -156q-104 -174 -84 -258zM383 684q20 49 61 160q8 27 29 77t31 56q4 2 17.5 -1t23.5 -10.5t10 -11.5q0 -23 -65.5 -134t-86.5 -130zM571 684q20 49 62 160q8 27 28.5 77t30.5 56q4 2 17.5 -1t23.5 -10.5 t10 -11.5q0 -23 -65.5 -134t-85.5 -130z" />
<glyph unicode="&#x152;" horiz-adv-x="1863" d="M14 299q0 88 33 194.5t103.5 220t167 207t237.5 154t301 60.5q410 0 463 -240q35 61 108 184q-2 0 -47 -1t-71 -5q-33 -4 -44 16q-10 18 22 24q10 2 24 1q86 -2 299 4t299 -2q51 -2 73.5 -21.5t17.5 -49t-18.5 -61.5t-32.5 -64q-8 -15 -12 -21q-15 -27 -35 -25 q-9 1 -6 13q39 162 -53 190q-45 14 -219 6q-82 -6 -111 -43q-63 -90 -249 -411q-8 -23 16 -23q31 0 142.5 -2t158.5 0q121 10 154 27q19 12 17 -4q-3 -32 -46 -64q-27 -20 -53 -20q-66 0 -192 5t-222 1q-20 -2 -29 -17q-10 -20 -33.5 -64t-39.5 -75q-100 -195 -101 -264 q0 -109 205 -113q428 0 629 256q9 13 14 -6q3 -12 -2 -18q-8 -10 -47 -60.5t-53.5 -66t-44 -47t-52 -47t-45.5 -21.5q-74 -23 -253 -29t-365 13q-80 8 -117 26.5t-35 59.5q-188 -100 -395 -101q-461 0 -461 324zM123 281q0 -274 336 -275q252 0 461 193q190 338 276 485 q14 65 14 145q0 274 -350 275q-174 0 -349 -139.5t-281.5 -332t-106.5 -351.5z" />
<glyph unicode="&#x153;" horiz-adv-x="851" d="M18 68q0 117 113 272q72 102 174 162q109 68 184 67q82 0 82 -80q0 -12 -4 -40q127 119 240 118q109 0 92 -112q-10 -72 -74.5 -114t-160.5 -73q-82 -25 -150 -24q-16 -43 -23.5 -78t-7.5 -69t17.5 -49t52.5 -20t94 17q80 27 166 102.5t141 147.5q14 -14 -8 -47 q-76 -104 -188.5 -184t-229.5 -80q-88 0 -121.5 35.5t-27.5 97.5q-125 -121 -277 -121q-84 0 -84 72zM119 59q8 -33 38.5 -28.5t61.5 22t51 37.5q63 68 117 156q96 160 86 262q-14 41 -66.5 21.5t-87.5 -56.5q-70 -72 -116 -156q-104 -174 -84 -258zM530 285q70 -4 127 14 q117 35 152 131q25 70 -13 96q-9 6 -22 6q-133 -2 -244 -247z" />
<glyph unicode="&#x154;" horiz-adv-x="1232" d="M3 -29q-2 5 3 9q84 14 131 98q92 156 166 291q63 121 195 362q29 49 57.5 106.5t51 105.5t30.5 63q27 49 121 81q-147 8 -320.5 -23.5t-210.5 -100.5q-23 -39 -19.5 -81t32.5 -61q11 -4 -5 -13q-7 -4 -12 -1q-18 10 -44.5 50t-35.5 67q-18 68 10.5 109.5t97 57t115 19.5 t114.5 4h7q41 0 147.5 1t156.5 1q63 -2 134.5 0t145.5 -21.5t107 -72.5q41 -70 31.5 -164t-56.5 -156q-43 -55 -102 -98q-74 -53 -193 -81.5t-231 -35.5q84 -186 213 -346q197 -238 475 129q15 22 16 0q1 -17 -12 -34q-80 -111 -146.5 -175.5t-136 -95.5t-139.5 0t-139 121 q-59 80 -106.5 164t-82 159.5t-37.5 79.5q39 53 62 54h27q91 0 134.5 2t107 14t97 38t70.5 76t62 124q37 98 2 185t-121 99q-49 6 -107.5 -4t-85.5 -43q-37 -47 -76.5 -115.5t-66.5 -118.5t-69 -135t-58 -118q-4 -8 -24.5 -46t-41 -75t-47 -88t-47 -96t-39 -87t-25.5 -74 t-1 -44q9 -19 -25 -6q-4 0 -12 3t-13.5 4t-14.5 2t-16 1t-16.5 -3t-19.5 -7q-8 -4 -51 -31t-76 -37q-30 -7 -38 8zM848 1262q-2 1 2 14q74 55 158 129q92 80 110 80q6 0 5 -29t-7 -35q-10 -18 -127 -86.5t-141 -72.5z" />
<glyph unicode="&#x155;" horiz-adv-x="557" d="M65.5 229.5q-1.5 19.5 10.5 32.5q145 180 223 293q102 14 127 35q16 16 18 -1q1 -8 -6 -16q-18 -20 -143 -249q55 84 140 165.5t151 81.5q55 0 73 -51q12 -14 6 -44t-11 -42t-17 -35.5t-14 -25.5q-6 -11 -20 -13l-5 5q8 51 -3 93t-54 42q-55 0 -174 -135 q-96 -113 -152 -254l-43 -115q-12 -1 -77 -23q-14 -5 -17 0q-2 4 4 15q10 20 39 90q23 53 59.5 146t63 159t32.5 80q-109 -117 -196 -234q-13 -19 -14.5 0.5zM473 686q-2 1 2 14q74 55 158 129q92 80 110 80q6 0 5 -28.5t-7 -34.5q-10 -18 -126.5 -87t-141.5 -73z" />
<glyph unicode="&#x156;" horiz-adv-x="1232" d="M3 -29q-2 5 3 9q84 14 131 98q92 156 166 291q63 121 195 362q29 49 57.5 106.5t51 105.5t30.5 63q27 49 121 81q-147 8 -320.5 -23.5t-210.5 -100.5q-23 -39 -19.5 -81t32.5 -61q11 -4 -5 -13q-7 -4 -12 -1q-18 10 -44.5 50t-35.5 67q-18 68 10.5 109.5t97 57t115 19.5 t114.5 4h7q41 0 147.5 1t156.5 1q63 -2 134.5 0t145.5 -21.5t107 -72.5q41 -70 31.5 -164t-56.5 -156q-43 -55 -102 -98q-74 -53 -193 -81.5t-231 -35.5q84 -186 213 -346q197 -238 475 129q15 22 16 0q1 -17 -12 -34q-80 -111 -146.5 -175.5t-136 -95.5t-139.5 0t-139 121 q-59 80 -106.5 164t-82 159.5t-37.5 79.5q39 53 62 54h27q91 0 134.5 2t107 14t97 38t70.5 76t62 124q37 98 2 185t-121 99q-49 6 -107.5 -4t-85.5 -43q-37 -47 -76.5 -115.5t-66.5 -118.5t-69 -135t-58 -118q-4 -8 -24.5 -46t-41 -75t-47 -88t-47 -96t-39 -87t-25.5 -74 t-1 -44q9 -19 -25 -6q-4 0 -12 3t-13.5 4t-14.5 2t-16 1t-16.5 -3t-19.5 -7q-8 -4 -51 -31t-76 -37q-30 -7 -38 8zM383 -311l2 14q2 8 14 18q66 59 80 127q6 20 -7 39t-36 23l6 20q25 0 47 23q4 2 9.5 7t10.5 9t7 4q47 -7 33 -73q-23 -115 -141 -197z" />
<glyph unicode="&#x157;" horiz-adv-x="557" d="M-2 -379l2 14q2 8 14 19q66 59 80 127q6 20 -7 38.5t-36 22.5l6 21q25 0 47 22q4 2 9.5 7.5t10.5 9.5t7 4q47 -8 33 -74q-23 -115 -141 -197zM65.5 229.5q-1.5 19.5 10.5 32.5q145 180 223 293q102 14 127 35q16 16 18 -1q1 -8 -6 -16q-18 -20 -143 -249q55 84 140 165.5 t151 81.5q55 0 73 -51q12 -14 6 -44t-11 -42t-17 -35.5t-14 -25.5q-6 -11 -20 -13l-5 5q8 51 -3 93t-54 42q-55 0 -174 -135q-96 -113 -152 -254l-43 -115q-12 -1 -77 -23q-14 -5 -17 0q-2 4 4 15q10 20 39 90q23 53 59.5 146t63 159t32.5 80q-109 -117 -196 -234 q-13 -19 -14.5 0.5z" />
<glyph unicode="&#x158;" horiz-adv-x="1232" d="M3 -29q-2 5 3 9q84 14 131 98q92 156 166 291q63 121 195 362q29 49 57.5 106.5t51 105.5t30.5 63q27 49 121 81q-147 8 -320.5 -23.5t-210.5 -100.5q-23 -39 -19.5 -81t32.5 -61q11 -4 -5 -13q-7 -4 -12 -1q-18 10 -44.5 50t-35.5 67q-18 68 10.5 109.5t97 57t115 19.5 t114.5 4h7q41 0 147.5 1t156.5 1q63 -2 134.5 0t145.5 -21.5t107 -72.5q41 -70 31.5 -164t-56.5 -156q-43 -55 -102 -98q-74 -53 -193 -81.5t-231 -35.5q84 -186 213 -346q197 -238 475 129q15 22 16 0q1 -17 -12 -34q-80 -111 -146.5 -175.5t-136 -95.5t-139.5 0t-139 121 q-59 80 -106.5 164t-82 159.5t-37.5 79.5q39 53 62 54h27q91 0 134.5 2t107 14t97 38t70.5 76t62 124q37 98 2 185t-121 99q-49 6 -107.5 -4t-85.5 -43q-37 -47 -76.5 -115.5t-66.5 -118.5t-69 -135t-58 -118q-4 -8 -24.5 -46t-41 -75t-47 -88t-47 -96t-39 -87t-25.5 -74 t-1 -44q9 -19 -25 -6q-4 0 -12 3t-13.5 4t-14.5 2t-16 1t-16.5 -3t-19.5 -7q-8 -4 -51 -31t-76 -37q-30 -7 -38 8zM780 1346v6q12 4 43 18q20 10 86 -45q29 -25 80 -86q0 -6 12 0q23 20 88.5 64.5t94.5 54.5q10 4 28 0q-150 -100 -231 -172h-25q-49 82 -139 143 q-27 16 -37 17z" />
<glyph unicode="&#x159;" horiz-adv-x="557" d="M65.5 229.5q-1.5 19.5 10.5 32.5q145 180 223 293q102 14 127 35q16 16 18 -1q1 -8 -6 -16q-18 -20 -143 -249q55 84 140 165.5t151 81.5q55 0 73 -51q12 -14 6 -44t-11 -42t-17 -35.5t-14 -25.5q-6 -11 -20 -13l-5 5q8 51 -3 93t-54 42q-55 0 -174 -135 q-96 -113 -152 -254l-43 -115q-12 -1 -77 -23q-14 -5 -17 0q-2 4 4 15q10 20 39 90q23 53 59.5 146t63 159t32.5 80q-109 -117 -196 -234q-13 -19 -14.5 0.5zM328 786v7q12 2 43 18q20 10 86 -45q29 -25 80 -86q0 -6 12 0q23 20 88 64t94 55q11 4 29 0q-150 -100 -232 -172 h-24q-49 82 -139 143q-27 16 -37 16z" />
<glyph unicode="&#x15a;" horiz-adv-x="923" d="M82 154q-14 70 14.5 145.5t79.5 114.5q2 2 8 -3t7.5 -10.5t-3.5 -9.5q-45 -53 -37.5 -121.5t46.5 -126.5q47 -66 131 -108.5t170 -46.5q162 -8 234.5 106.5t15.5 267.5q-25 70 -102 198t-85 142q-86 166 10 304q45 63 121 102t158 43q137 6 223 -88q12 -20 10 -55 t-14 -56q-53 -78 -68 -129q-29 -18 -38 -6q37 74 36 137v14v14v14q0 10 -2 16t-5 14t-8 14.5t-13 12.5q-59 55 -158 55q-135 0 -196.5 -94t-18.5 -193q29 -70 138.5 -205t142.5 -217q37 -100 9 -186t-95.5 -148.5t-158.5 -98.5t-181 -36q-127 0 -235.5 55.5t-135.5 168.5z M909 1262q-2 1 2 14q74 55 158 129q92 80 111 80q6 0 5 -29t-7 -35q-10 -18 -127 -86.5t-142 -72.5z" />
<glyph unicode="&#x15b;" horiz-adv-x="475" d="M0 76q-6 29 8.5 70.5t36.5 60.5q11 7 15 -4q1 -3 -1 -4q-10 -18 -12 -35q-6 -53 23 -94q20 -29 63 -56q33 -20 96.5 -14t87.5 35q72 90 -41 213q-59 63 -69 114q-4 16 -4 25q-25 -35 -103 -131q-17 -22 -18 -6q-2 20 16 41q20 23 70 90q16 25 34.5 55.5t31 48t24.5 31.5 q53 59 127 59q115 1 117 -79q0 -41 -29 -99q-9 -21 -25 -20q-7 0 -4 10q10 49 -8 94q-18 49 -63 54.5t-79 -28.5t-24 -83q4 -18 24.5 -45t49.5 -56.5t39 -43.5q76 -109 6 -210.5t-196 -101.5q-66 0 -123.5 26.5t-69.5 82.5zM401 686q-2 1 2 14q74 55 158 129q92 80 111 80 q6 0 5 -28.5t-7 -34.5q-10 -18 -127 -87t-142 -73z" />
<glyph unicode="&#x15c;" horiz-adv-x="923" d="M82 154q-14 70 14.5 145.5t79.5 114.5q2 2 8 -3t7.5 -10.5t-3.5 -9.5q-45 -53 -37.5 -121.5t46.5 -126.5q47 -66 131 -108.5t170 -46.5q162 -8 234.5 106.5t15.5 267.5q-25 70 -102 198t-85 142q-86 166 10 304q45 63 121 102t158 43q137 6 223 -88q12 -20 10 -55 t-14 -56q-53 -78 -68 -129q-29 -18 -38 -6q37 74 36 137v14v14v14q0 10 -2 16t-5 14t-8 14.5t-13 12.5q-59 55 -158 55q-135 0 -196.5 -94t-18.5 -193q29 -70 138.5 -205t142.5 -217q37 -100 9 -186t-95.5 -148.5t-158.5 -98.5t-181 -36q-127 0 -235.5 55.5t-135.5 168.5z M709 1231q150 100 231 172h25q49 -82 139 -143q27 -16 37 -17v-6q-12 -4 -43 -18q-20 -10 -86 45q-29 25 -80 86q0 6 -12 0q-23 -20 -88.5 -64.5t-94.5 -54.5q-10 -4 -28 0z" />
<glyph unicode="&#x15d;" horiz-adv-x="475" d="M0 76q-6 29 8.5 70.5t36.5 60.5q11 7 15 -4q1 -3 -1 -4q-10 -18 -12 -35q-6 -53 23 -94q20 -29 63 -56q33 -20 96.5 -14t87.5 35q72 90 -41 213q-59 63 -69 114q-4 16 -4 25q-25 -35 -103 -131q-17 -22 -18 -6q-2 20 16 41q20 23 70 90q16 25 34.5 55.5t31 48t24.5 31.5 q53 59 127 59q115 1 117 -79q0 -41 -29 -99q-9 -21 -25 -20q-7 0 -4 10q10 49 -8 94q-18 49 -63 54.5t-79 -28.5t-24 -83q4 -18 24.5 -45t49.5 -56.5t39 -43.5q76 -109 6 -210.5t-196 -101.5q-66 0 -123.5 26.5t-69.5 82.5zM231 700q150 100 232 172h24q49 -82 140 -143 q27 -16 37 -16v-6q-12 -2 -43 -19q-20 -10 -86 45q-29 25 -80 86q0 6 -13 0q-23 -20 -88 -64t-94 -55q-11 -4 -29 0z" />
<glyph unicode="&#x15e;" horiz-adv-x="923" d="M82 154q-14 70 14.5 145.5t79.5 114.5q2 2 8 -3t7.5 -10.5t-3.5 -9.5q-45 -53 -37.5 -121.5t46.5 -126.5q47 -66 131 -108.5t170 -46.5q162 -8 234.5 106.5t15.5 267.5q-25 70 -102 198t-85 142q-86 166 10 304q45 63 121 102t158 43q137 6 223 -88q12 -20 10 -55 t-14 -56q-53 -78 -68 -129q-29 -18 -38 -6q37 74 36 137v14v14v14q0 10 -2 16t-5 14t-8 14.5t-13 12.5q-59 55 -158 55q-135 0 -196.5 -94t-18.5 -193q29 -70 138.5 -205t142.5 -217q37 -100 9 -186t-95.5 -148.5t-158.5 -98.5t-181 -36q-25 0 -37 2q-59 -39 -60 -90 q0 -29 39 -82t33 -96q-14 -76 -104.5 -116t-182.5 -40q-16 0 -12 17q0 12 18 12q2 0 29 1t50.5 5t51 13.5t48 32t26.5 57.5q4 25 -31.5 82t-35.5 88q0 82 77 123q-240 41 -280 215z" />
<glyph unicode="&#x15f;" horiz-adv-x="475" d="M-68 -332q0 8 15 8h17q16 0 28 1t30.5 6.5t33 13.5t25.5 23.5t15 35.5q4 18 -22.5 60.5t-26.5 62.5q0 33 19.5 60.5t52.5 35.5q-102 27 -119 101q-6 29 8.5 70.5t36.5 60.5q11 7 15 -4q1 -3 -1 -4q-10 -18 -12 -35q-6 -53 23 -94q20 -29 63 -56q33 -20 96.5 -14t87.5 35 q72 90 -41 213q-59 63 -69 114q-4 16 -4 25q-25 -35 -103 -131q-17 -22 -18 -6q-2 20 16 41q20 23 70 90q16 25 34.5 55.5t31 48t24.5 31.5q53 59 127 59q115 1 117 -79q0 -41 -29 -99q-9 -21 -25 -20q-7 0 -4 10q10 49 -8 94q-18 49 -63 54.5t-79 -28.5t-24 -83 q4 -18 24.5 -45t49.5 -56.5t39 -43.5q76 -109 6 -210.5t-196 -101.5q-14 0 -43 4q-51 -29 -52 -71q0 -20 29 -60.5t25 -70.5q-10 -53 -77 -83t-132 -30q-14 0 -11 12z" />
<glyph unicode="&#x160;" horiz-adv-x="923" d="M82 154q-14 70 14.5 145.5t79.5 114.5q2 2 8 -3t7.5 -10.5t-3.5 -9.5q-45 -53 -37.5 -121.5t46.5 -126.5q47 -66 131 -108.5t170 -46.5q162 -8 234.5 106.5t15.5 267.5q-25 70 -102 198t-85 142q-86 166 10 304q45 63 121 102t158 43q137 6 223 -88q12 -20 10 -55 t-14 -56q-53 -78 -68 -129q-29 -18 -38 -6q37 74 36 137v14v14v14q0 10 -2 16t-5 14t-8 14.5t-13 12.5q-59 55 -158 55q-135 0 -196.5 -94t-18.5 -193q29 -70 138.5 -205t142.5 -217q37 -100 9 -186t-95.5 -148.5t-158.5 -98.5t-181 -36q-127 0 -235.5 55.5t-135.5 168.5z M750 1384v7q12 2 43 18q20 10 86 -45q29 -25 79 -86q0 -6 13 0q23 20 88 64t94 55q11 4 29 0q-150 -100 -232 -172h-24q-49 82 -140 143q-27 16 -36 16z" />
<glyph unicode="&#x161;" horiz-adv-x="475" d="M0 76q-6 29 8.5 70.5t36.5 60.5q11 7 15 -4q1 -3 -1 -4q-10 -18 -12 -35q-6 -53 23 -94q20 -29 63 -56q33 -20 96.5 -14t87.5 35q72 90 -41 213q-59 63 -69 114q-4 16 -4 25q-25 -35 -103 -131q-17 -22 -18 -6q-2 20 16 41q20 23 70 90q16 25 34.5 55.5t31 48t24.5 31.5 q53 59 127 59q115 1 117 -79q0 -41 -29 -99q-9 -21 -25 -20q-7 0 -4 10q10 49 -8 94q-18 49 -63 54.5t-79 -28.5t-24 -83q4 -18 24.5 -45t49.5 -56.5t39 -43.5q76 -109 6 -210.5t-196 -101.5q-66 0 -123.5 26.5t-69.5 82.5zM250 817v6q12 4 43 19q20 10 86 -45 q29 -25 80 -86q0 -6 12 0q23 20 88.5 64t93.5 54q11 4 29 0q-150 -100 -231 -172h-25q-49 82 -139 144q-27 16 -37 16z" />
<glyph unicode="&#x162;" horiz-adv-x="884" d="M37 905q-29 78 9 129t112.5 68.5t158.5 26t148 -2.5q29 -2 128 -8t155 -10l325 -27q406 -37 459 31q2 4 7 4t8 -3t1 -7q-6 -25 -16 -37q-10 -20 -17.5 -31.5t-23.5 -27t-39 -19.5q-55 -12 -297 19q-43 -8 -81 -35t-69.5 -77t-48 -78.5t-43.5 -88.5q-31 -66 -75.5 -173 t-71.5 -165q-117 -254 -205 -350q-117 -123 -258 -123q-68 0 -124 38t-83 108q-18 45 -18 114q0 68 20 68q4 0 4 -4q0 -8 -1 -25.5t-1 -25.5q0 -94 46.5 -144.5t121.5 -50.5q129 0 264 145q53 59 110.5 164t93.5 189t88.5 216t72.5 179q37 84 184 127l-53 6l-289 29 q-84 4 -200.5 9t-243.5 -21.5t-168 -88.5q-27 -43 -11.5 -92t60.5 -72q12 -8 -5 -16q-11 -5 -19 0q-27 14 -66 59.5t-49 73.5zM121 -410l2 15q2 8 14 18q66 59 80 127q6 20 -7 38.5t-36 23.5l6 20q25 0 47 23q4 2 9.5 7t10.5 9t7 4q47 -8 33 -74q-23 -115 -142 -196 q-25 -14 -24 -15z" />
<glyph unicode="&#x163;" horiz-adv-x="405" d="M-6 -367l2 15q2 8 14 18q66 59 80 127q6 20 -7 38.5t-36 23.5l6 20q25 0 47 23q4 2 9.5 7t10.5 9t7 4q47 -8 33 -74q-23 -115 -142 -196q-25 -14 -24 -15zM65.5 229.5q-1.5 19.5 10.5 32.5q139 174 192 244q-8 0 -23.5 -1t-29.5 -3t-26.5 -3t-21.5 -2l-9 -1q-20 0 22 38 q29 27 43 27h16q15 0 34.5 -1t27.5 -1q80 109 160 285q18 2 57 23.5t62 43.5q18 18 21 8q2 -5 -5 -14q-27 -29 -91.5 -132t-117.5 -214h166q21 0 23 -5q3 -7 -31 -17q-25 -8 -70 -11.5t-75.5 -10.5t-43.5 -26q-29 -39 -86 -178t-63 -213q-2 -20 7 -32.5t24 -12.5 q63 0 233 197l39 49q14 -20 -18 -63q-188 -242 -340 -242q-49 0 -50 39q0 49 80 209l111 247q-209 -254 -213 -260q-13 -19 -14.5 0.5z" />
<glyph unicode="&#x164;" horiz-adv-x="884" d="M37 905q-29 78 9 129t112.5 68.5t158.5 26t148 -2.5q29 -2 128 -8t155 -10l325 -27q406 -37 459 31q2 4 7 4t8 -3t1 -7q-6 -25 -16 -37q-10 -20 -17.5 -31.5t-23.5 -27t-39 -19.5q-55 -12 -297 19q-43 -8 -81 -35t-69.5 -77t-48 -78.5t-43.5 -88.5q-31 -66 -75.5 -173 t-71.5 -165q-117 -254 -205 -350q-117 -123 -258 -123q-68 0 -124 38t-83 108q-18 45 -18 114q0 68 20 68q4 0 4 -4q0 -8 -1 -25.5t-1 -25.5q0 -94 46.5 -144.5t121.5 -50.5q129 0 264 145q53 59 110.5 164t93.5 189t88.5 216t72.5 179q37 84 184 127l-53 6l-289 29 q-84 4 -200.5 9t-243.5 -21.5t-168 -88.5q-27 -43 -11.5 -92t60.5 -72q12 -8 -5 -16q-11 -5 -19 0q-27 14 -66 59.5t-49 73.5zM897 1354v6q12 4 43 18q20 10 86 -45q29 -25 80 -86q0 -6 12 0q23 20 88.5 64.5t93.5 54.5q11 4 29 0q-150 -100 -231 -172h-25q-49 82 -139 143 q-27 16 -37 17z" />
<glyph unicode="&#x165;" horiz-adv-x="749" d="M65.5 229.5q-1.5 19.5 10.5 32.5q139 174 192 244q-8 0 -23.5 -1t-29.5 -3t-26.5 -3t-21.5 -2l-9 -1q-20 0 22 38q29 27 43 27h16q15 0 34.5 -1t27.5 -1q80 109 160 285q18 2 57 23.5t62 43.5q18 18 21 8q2 -5 -5 -14q-27 -29 -91.5 -132t-117.5 -214h166q21 0 23 -5 q3 -7 -31 -17q-25 -8 -70 -11.5t-75.5 -10.5t-43.5 -26q-29 -39 -86 -178t-63 -213q-2 -20 7 -32.5t24 -12.5q63 0 233 197l39 49q14 -20 -18 -63q-188 -242 -340 -242q-49 0 -50 39q0 49 80 209l111 247q-209 -254 -213 -260q-13 -19 -14.5 0.5zM621 631l4 16q4 12 16 23 q76 66 94 149q4 27 -10 47.5t-41 24.5l8 22q20 6 56 29q29 23 30 23q57 -8 39 -86q-31 -133 -166 -232z" />
<glyph unicode="&#x166;" horiz-adv-x="884" d="M37 905q-29 78 9 129t112.5 68.5t158.5 26t148 -2.5q29 -2 128 -8t155 -10l325 -27q406 -37 459 31q2 4 7 4t8 -3t1 -7q-6 -25 -16 -37q-10 -20 -17.5 -31.5t-23.5 -27t-39 -19.5q-55 -12 -297 19q-55 -10 -105.5 -59.5t-74 -93.5t-57.5 -116q164 -4 210 -22l5 -2 q4 0 4 -2q-4 -14 -21 -15q-76 0 -223 -12q-25 -53 -63.5 -147.5t-63.5 -147.5q-117 -254 -205 -350q-117 -123 -258 -123q-68 0 -124 38t-83 108q-18 45 -18 114q0 68 20 68q4 0 4 -4q0 -8 -1 -25.5t-1 -25.5q0 -94 46.5 -144.5t121.5 -50.5q129 0 264 145 q51 55 106.5 154.5t90.5 179.5t84 205q-83 -6 -166 -6q-14 0 -29.5 19.5t-11.5 29.5l2 6q59 12 228 12l61 148q37 84 184 127l-53 6l-289 29q-84 4 -200.5 9t-243.5 -21.5t-168 -88.5q-27 -43 -11.5 -92t60.5 -72q12 -8 -5 -16q-11 -5 -19 0q-27 14 -66 59.5t-49 73.5z" />
<glyph unicode="&#x167;" horiz-adv-x="405" d="M65.5 229.5q-1.5 19.5 10.5 32.5l53 68q-8 0 -19.5 14t-9.5 23l2 4q35 6 66 8q74 90 100 127q-8 0 -23.5 -1t-29.5 -3t-26.5 -3t-21.5 -2l-9 -1q-20 0 22 38q29 27 43 27h16q15 0 34.5 -1t27.5 -1q80 109 160 285q18 2 57 23.5t62 43.5q18 18 21 8q2 -5 -5 -14 q-27 -29 -91.5 -132t-117.5 -214h166q21 0 23 -5q3 -7 -31 -17q-25 -8 -70 -11.5t-75.5 -10.5t-43.5 -26q-14 -18 -57 -108q121 -4 154 -19l3 -1q3 -1 3 -3q-4 -10 -15 -10q-27 0 -163 -10q-70 -166 -74 -240q-2 -20 7 -32.5t24 -12.5q63 0 233 197l39 49q14 -20 -18 -63 q-188 -242 -340 -242q-49 0 -50 39q0 49 80 209l43 92q-45 -4 -65 -4q-74 -90 -80 -101q-13 -19 -14.5 0.5zM201 379q16 2 45 2l47 108z" />
<glyph unicode="&#x168;" horiz-adv-x="1251" d="M16 965q-10 72 35 110q27 23 83 33t103.5 9t115 -4t85.5 -3q289 2 471 2l-26 -31q-100 0 -146 -57q-115 -150 -261 -461t-165 -465q-6 -57 47.5 -68.5t106.5 21.5q111 55 230.5 180t213.5 256q166 238 291 512q4 6 15.5 36t21.5 42.5t25 9.5q35 -8 71 -2q41 6 88 50 q11 9 24 -2q5 -4 1 -7q-72 -57 -143 -168q-305 -463 -377 -686q-92 -291 104 -256q68 10 184 127q63 57 146 162q4 -8 4 -16q-2 -25 -27 -53q-41 -53 -106 -123q-59 -59 -143 -114.5t-150 -51.5q-74 4 -103.5 48t-19.5 116.5t29.5 136t51.5 141.5q1 7 3 8q-57 -68 -184 -190 q-141 -137 -203 -182q-115 -80 -219 -78q-63 0 -89 27.5t-23 61.5t24 85q45 113 119 254q6 12 40.5 78.5t51 100.5t49.5 101.5t50 112.5t38.5 103.5t31 105.5t9.5 86h-180q-45 0 -88 -4t-104.5 -17.5t-97.5 -49.5t-32 -87q4 -49 27 -78l-23 -16q-2 4 -28.5 47t-39 67.5 t-12.5 39.5zM930 1257q10 33 40.5 61t63.5 28t84 -20.5t94 -25.5q47 -5 84 46h21q-12 -43 -40 -73t-54 -30q-43 0 -107.5 25.5t-99.5 25.5q-45 0 -62 -37h-24z" />
<glyph unicode="&#x169;" horiz-adv-x="804" d="M65.5 229.5q-1.5 19.5 10.5 32.5q80 109 147 184q2 2 21.5 24t24.5 28t22.5 21.5t28 21.5t28 13t33.5 9q61 10 69.5 -19.5t-24.5 -76.5q-43 -66 -113.5 -204t-70.5 -181q0 -29 28 -29q39 0 123 80q129 123 266 385q18 33 27 33h28q25 0 53 4t48 14q9 4 10 -5 q1 -17 -26 -25q-61 -18 -147.5 -205t-69.5 -252q8 -29 28 -29q37 0 121 65.5t137 131.5q10 12 25.5 31.5t17.5 21.5q7 -12 7 -16q-4 -23 -29 -51q-180 -242 -338 -242q-72 0 -72 55q0 37 26.5 114t49.5 120q-76 -109 -141 -172q-121 -117 -230 -117q-49 0 -49 39 q0 49 80 209q18 37 49 100.5t37 73.5q33 62 -1 45q-18 -9 -50 -37q-84 -78 -170 -195q-13 -19 -14.5 0.5zM424 690q10 33 41 60.5t63.5 27.5t84 -20.5t94.5 -24.5q47 -6 84 45h20q-12 -43 -40 -72.5t-54 -29.5q-43 0 -107.5 25.5t-99.5 25.5q-45 0 -61 -37h-25z" />
<glyph unicode="&#x16a;" horiz-adv-x="1251" d="M16 965q-10 72 35 110q27 23 83 33t103.5 9t115 -4t85.5 -3q289 2 471 2l-26 -31q-100 0 -146 -57q-115 -150 -261 -461t-165 -465q-6 -57 47.5 -68.5t106.5 21.5q111 55 230.5 180t213.5 256q166 238 291 512q4 6 15.5 36t21.5 42.5t25 9.5q35 -8 71 -2q41 6 88 50 q11 9 24 -2q5 -4 1 -7q-72 -57 -143 -168q-305 -463 -377 -686q-92 -291 104 -256q68 10 184 127q63 57 146 162q4 -8 4 -16q-2 -25 -27 -53q-41 -53 -106 -123q-59 -59 -143 -114.5t-150 -51.5q-74 4 -103.5 48t-19.5 116.5t29.5 136t51.5 141.5q1 7 3 8q-57 -68 -184 -190 q-141 -137 -203 -182q-115 -80 -219 -78q-63 0 -89 27.5t-23 61.5t24 85q45 113 119 254q6 12 40.5 78.5t51 100.5t49.5 101.5t50 112.5t38.5 103.5t31 105.5t9.5 86h-180q-45 0 -88 -4t-104.5 -17.5t-97.5 -49.5t-32 -87q4 -49 27 -78l-23 -16q-2 4 -28.5 47t-39 67.5 t-12.5 39.5zM926 1298l2 5q39 10 170 10q137 0 180 -19l3 -2q3 0 3 -2q-4 -10 -14 -10q-53 0 -157.5 -9t-158.5 -9q-8 0 -19 14t-9 22z" />
<glyph unicode="&#x16b;" horiz-adv-x="804" d="M65.5 229.5q-1.5 19.5 10.5 32.5q80 109 147 184q2 2 21.5 24t24.5 28t22.5 21.5t28 21.5t28 13t33.5 9q61 10 69.5 -19.5t-24.5 -76.5q-43 -66 -113.5 -204t-70.5 -181q0 -29 28 -29q39 0 123 80q129 123 266 385q18 33 27 33h28q25 0 53 4t48 14q9 4 10 -5 q1 -17 -26 -25q-61 -18 -147.5 -205t-69.5 -252q8 -29 28 -29q37 0 121 65.5t137 131.5q10 12 25.5 31.5t17.5 21.5q7 -12 7 -16q-4 -23 -29 -51q-180 -242 -338 -242q-72 0 -72 55q0 37 26.5 114t49.5 120q-76 -109 -141 -172q-121 -117 -230 -117q-49 0 -49 39 q0 49 80 209q18 37 49 100.5t37 73.5q33 62 -1 45q-18 -9 -50 -37q-84 -78 -170 -195q-13 -19 -14.5 0.5zM442 745l2 5q39 10 170 10q137 0 181 -19l3 -1q3 -1 3 -3q-4 -10 -15 -10q-53 0 -157.5 -9t-157.5 -9q-8 0 -19.5 14t-9.5 22z" />
<glyph unicode="&#x16c;" horiz-adv-x="1251" d="M16 965q-10 72 35 110q27 23 83 33t103.5 9t115 -4t85.5 -3q289 2 471 2l-26 -31q-100 0 -146 -57q-115 -150 -261 -461t-165 -465q-6 -57 47.5 -68.5t106.5 21.5q111 55 230.5 180t213.5 256q166 238 291 512q4 6 15.5 36t21.5 42.5t25 9.5q35 -8 71 -2q41 6 88 50 q11 9 24 -2q5 -4 1 -7q-72 -57 -143 -168q-305 -463 -377 -686q-92 -291 104 -256q68 10 184 127q63 57 146 162q4 -8 4 -16q-2 -25 -27 -53q-41 -53 -106 -123q-59 -59 -143 -114.5t-150 -51.5q-74 4 -103.5 48t-19.5 116.5t29.5 136t51.5 141.5q1 7 3 8q-57 -68 -184 -190 q-141 -137 -203 -182q-115 -80 -219 -78q-63 0 -89 27.5t-23 61.5t24 85q45 113 119 254q6 12 40.5 78.5t51 100.5t49.5 101.5t50 112.5t38.5 103.5t31 105.5t9.5 86h-180q-45 0 -88 -4t-104.5 -17.5t-97.5 -49.5t-32 -87q4 -49 27 -78l-23 -16q-2 4 -28.5 47t-39 67.5 t-12.5 39.5zM971 1266q0 10 8 25.5t16 15.5h31q-23 -37 5 -56.5t71 -19.5q66 0 178 67h33q-31 -37 -96.5 -67.5t-126.5 -30.5q-119 0 -119 66z" />
<glyph unicode="&#x16d;" horiz-adv-x="804" d="M65.5 229.5q-1.5 19.5 10.5 32.5q80 109 147 184q2 2 21.5 24t24.5 28t22.5 21.5t28 21.5t28 13t33.5 9q61 10 69.5 -19.5t-24.5 -76.5q-43 -66 -113.5 -204t-70.5 -181q0 -29 28 -29q39 0 123 80q129 123 266 385q18 33 27 33h28q25 0 53 4t48 14q9 4 10 -5 q1 -17 -26 -25q-61 -18 -147.5 -205t-69.5 -252q8 -29 28 -29q37 0 121 65.5t137 131.5q10 12 25.5 31.5t17.5 21.5q7 -12 7 -16q-4 -23 -29 -51q-180 -242 -338 -242q-72 0 -72 55q0 37 26.5 114t49.5 120q-76 -109 -141 -172q-121 -117 -230 -117q-49 0 -49 39 q0 49 80 209q18 37 49 100.5t37 73.5q33 62 -1 45q-18 -9 -50 -37q-84 -78 -170 -195q-13 -19 -14.5 0.5zM498 721q0 10 8 25.5t16 15.5h31q-23 -37 5 -56.5t71 -19.5q66 0 178 68h33q-31 -37 -96.5 -68t-127.5 -31q-119 0 -118 66z" />
<glyph unicode="&#x16e;" horiz-adv-x="1251" d="M16 965q-10 72 35 110q27 23 83 33t103.5 9t115 -4t85.5 -3q289 2 471 2l-26 -31q-100 0 -146 -57q-115 -150 -261 -461t-165 -465q-6 -57 47.5 -68.5t106.5 21.5q111 55 230.5 180t213.5 256q166 238 291 512q4 6 15.5 36t21.5 42.5t25 9.5q35 -8 71 -2q41 6 88 50 q11 9 24 -2q5 -4 1 -7q-72 -57 -143 -168q-305 -463 -377 -686q-92 -291 104 -256q68 10 184 127q63 57 146 162q4 -8 4 -16q-2 -25 -27 -53q-41 -53 -106 -123q-59 -59 -143 -114.5t-150 -51.5q-74 4 -103.5 48t-19.5 116.5t29.5 136t51.5 141.5q1 7 3 8q-57 -68 -184 -190 q-141 -137 -203 -182q-115 -80 -219 -78q-63 0 -89 27.5t-23 61.5t24 85q45 113 119 254q6 12 40.5 78.5t51 100.5t49.5 101.5t50 112.5t38.5 103.5t31 105.5t9.5 86h-180q-45 0 -88 -4t-104.5 -17.5t-97.5 -49.5t-32 -87q4 -49 27 -78l-23 -16q-2 4 -28.5 47t-39 67.5 t-12.5 39.5zM999 1319q6 31 33 71t55 46q35 53 97 53q35 0 51 -25.5t10 -56.5q-10 -57 -66.5 -103.5t-117.5 -46.5q-31 0 -48.5 16.5t-13.5 45.5zM1063 1319q-4 -31 22 -31q41 0 77 38t42 77q10 55 -28 55q-20 0 -54 -20l17 -8q-8 -12 -39 -46t-37 -65z" />
<glyph unicode="&#x16f;" horiz-adv-x="804" d="M65.5 229.5q-1.5 19.5 10.5 32.5q80 109 147 184q2 2 21.5 24t24.5 28t22.5 21.5t28 21.5t28 13t33.5 9q61 10 69.5 -19.5t-24.5 -76.5q-43 -66 -113.5 -204t-70.5 -181q0 -29 28 -29q39 0 123 80q129 123 266 385q18 33 27 33h28q25 0 53 4t48 14q9 4 10 -5 q1 -17 -26 -25q-61 -18 -147.5 -205t-69.5 -252q8 -29 28 -29q37 0 121 65.5t137 131.5q10 12 25.5 31.5t17.5 21.5q7 -12 7 -16q-4 -23 -29 -51q-180 -242 -338 -242q-72 0 -72 55q0 37 26.5 114t49.5 120q-76 -109 -141 -172q-121 -117 -230 -117q-49 0 -49 39 q0 49 80 209q18 37 49 100.5t37 73.5q33 62 -1 45q-18 -9 -50 -37q-84 -78 -170 -195q-13 -19 -14.5 0.5zM543 743q6 31 32.5 71t55.5 46q35 53 96 53q35 0 51 -25.5t10 -56.5q-10 -57 -66 -103t-118 -46q-31 0 -48 16.5t-13 44.5zM606 743q-4 -31 23 -30q41 0 77 37.5 t42 76.5q10 55 -29 56q-20 0 -53 -21l16 -8q-8 -12 -39 -46t-37 -65z" />
<glyph unicode="&#x170;" horiz-adv-x="1251" d="M16 965q-10 72 35 110q27 23 83 33t103.5 9t115 -4t85.5 -3q289 2 471 2l-26 -31q-100 0 -146 -57q-115 -150 -261 -461t-165 -465q-6 -57 47.5 -68.5t106.5 21.5q111 55 230.5 180t213.5 256q166 238 291 512q4 6 15.5 36t21.5 42.5t25 9.5q35 -8 71 -2q41 6 88 50 q11 9 24 -2q5 -4 1 -7q-72 -57 -143 -168q-305 -463 -377 -686q-92 -291 104 -256q68 10 184 127q63 57 146 162q4 -8 4 -16q-2 -25 -27 -53q-41 -53 -106 -123q-59 -59 -143 -114.5t-150 -51.5q-74 4 -103.5 48t-19.5 116.5t29.5 136t51.5 141.5q1 7 3 8q-57 -68 -184 -190 q-141 -137 -203 -182q-115 -80 -219 -78q-63 0 -89 27.5t-23 61.5t24 85q45 113 119 254q6 12 40.5 78.5t51 100.5t49.5 101.5t50 112.5t38.5 103.5t31 105.5t9.5 86h-180q-45 0 -88 -4t-104.5 -17.5t-97.5 -49.5t-32 -87q4 -49 27 -78l-23 -16q-2 4 -28.5 47t-39 67.5 t-12.5 39.5zM965 1260q20 49 61 159q8 27 28.5 77t30.5 56q4 2 17.5 -1t24 -10t10.5 -11q0 -23 -65.5 -134.5t-86.5 -129.5zM1153 1260q20 49 61 159q8 27 29 77t31 56q4 2 17.5 -1t23.5 -10t10 -11q0 -23 -65.5 -134.5t-85.5 -129.5z" />
<glyph unicode="&#x171;" horiz-adv-x="804" d="M65.5 229.5q-1.5 19.5 10.5 32.5q80 109 147 184q2 2 21.5 24t24.5 28t22.5 21.5t28 21.5t28 13t33.5 9q61 10 69.5 -19.5t-24.5 -76.5q-43 -66 -113.5 -204t-70.5 -181q0 -29 28 -29q39 0 123 80q129 123 266 385q18 33 27 33h28q25 0 53 4t48 14q9 4 10 -5 q1 -17 -26 -25q-61 -18 -147.5 -205t-69.5 -252q8 -29 28 -29q37 0 121 65.5t137 131.5q10 12 25.5 31.5t17.5 21.5q7 -12 7 -16q-4 -23 -29 -51q-180 -242 -338 -242q-72 0 -72 55q0 37 26.5 114t49.5 120q-76 -109 -141 -172q-121 -117 -230 -117q-49 0 -49 39 q0 49 80 209q18 37 49 100.5t37 73.5q33 62 -1 45q-18 -9 -50 -37q-84 -78 -170 -195q-13 -19 -14.5 0.5zM485 684q20 49 62 160q8 27 28.5 77t30.5 56q4 2 17.5 -1t23.5 -10.5t10 -11.5q0 -23 -65.5 -134t-85.5 -130zM674 684q20 49 61 160q8 27 28.5 77t31.5 56q4 2 17 -1 t23.5 -10.5t10.5 -11.5q0 -23 -65.5 -134t-86.5 -130z" />
<glyph unicode="&#x172;" horiz-adv-x="1251" d="M16 965q-10 72 35 110q27 23 83 33t103.5 9t115 -4t85.5 -3q289 2 471 2l-26 -31q-100 0 -146 -57q-115 -150 -261 -461t-165 -465q-6 -57 47.5 -68.5t106.5 21.5q111 55 230.5 180t213.5 256q166 238 291 512q4 6 15.5 36t21.5 42.5t25 9.5q35 -8 71 -2q41 6 88 50 q11 9 24 -2q4 -4 1 -7q-72 -57 -143 -168q-305 -463 -377 -686q-92 -291 104 -256q68 10 184 127q63 57 146 162q4 -8 4 -16q-2 -25 -27 -53q-41 -53 -106 -123q-57 -57 -138 -111.5t-147 -54.5q-35 -27 -64.5 -97.5t-29.5 -130.5q0 -68 63 -43q20 8 45 28t58 50.5t43 38.5 l-1 -15q-4 -20 -9 -26q-66 -92 -193 -145q-102 -41 -102 51q0 63 53 160.5t100 132.5q-41 8 -65.5 31.5t-27.5 65.5t-1 77t20.5 94.5t30 89t33.5 88.5q-57 -68 -184 -190q-141 -137 -203 -182q-115 -80 -219 -78q-63 0 -89 27.5t-23 61.5t24 85q45 113 119 254 q6 12 40.5 78.5t51 100.5t49.5 101.5t50 112.5t38.5 103.5t31 105.5t9.5 86h-180q-45 0 -88 -4t-104.5 -17.5t-97.5 -49.5t-32 -87q4 -49 27 -78l-23 -16q-2 4 -28.5 47t-39 67.5t-12.5 39.5z" />
<glyph unicode="&#x173;" horiz-adv-x="804" d="M65.5 229.5q-1.5 19.5 10.5 32.5q80 109 147 184q2 2 21.5 24t24.5 28t22.5 21.5t28 21.5t28 13t33.5 9q61 10 69.5 -19.5t-24.5 -76.5q-43 -66 -113.5 -204t-70.5 -181q0 -29 28 -29q39 0 123 80q129 123 266 385q18 33 27 33h28q25 0 53 4t48 14q9 4 10 -5 q1 -17 -26 -25q-61 -18 -147.5 -205t-69.5 -252q8 -29 28 -29q37 0 121 65.5t137 131.5q10 12 25.5 31.5t17.5 21.5q6 -12 7 -16q-4 -23 -29 -51q-176 -238 -334 -242q-35 -25 -65.5 -97.5t-30.5 -132.5q0 -68 63 -43q20 8 45 28t57.5 50.5t43.5 38.5l-1 -15q-5 -20 -10 -26 q-66 -92 -192 -145q-102 -41 -103 51q0 66 54.5 165t101.5 130q-39 12 -39 51q0 37 26.5 114t49.5 120q-76 -109 -141 -172q-121 -117 -230 -117q-49 0 -49 39q0 49 80 209q18 37 49 100.5t37 73.5q33 62 -1 45q-18 -9 -50 -37q-84 -78 -170 -195q-13 -19 -14.5 0.5z" />
<glyph unicode="&#x178;" horiz-adv-x="925" d="M16 182q0 30 10.5 29t10.5 -18q0 -92 47 -143.5t123 -51.5q209 0 430 317q-25 -14 -41 -14q-10 0 -16.5 3t-4.5 13q0 2 2.5 6.5t4.5 9.5t2 7l22 70q27 100 41.5 211.5t2 243.5t-69.5 198h-50q-45 0 -88 -4t-104.5 -17.5t-96 -49.5t-30.5 -87q4 -35 25 -78l-21 -16 q-80 139 -82 154q-6 74 35 110q27 23 83 33t104 9t116 -4t84 -3q145 2 328 2l-43 -53q-72 0 -224 4q84 -55 111 -184t14.5 -244t-43.5 -221q14 20 154.5 231t226.5 309q53 61 87 96t101.5 79.5t123.5 41.5q54 -4 79 -55q8 -16 10.5 -34.5t-2.5 -37t-8.5 -28.5t-11.5 -28 l-8 -17q-4 -11 -13 -7q-4 2 -3 7q12 51 -7.5 93t-64.5 44q-98 2 -258 -182q-100 -117 -189.5 -246t-132.5 -200.5t-151 -260.5q-78 -137 -171 -218t-220 -81q-66 0 -122.5 37t-84.5 109q-16 39 -17 116zM793 1376q0 2 3 5t10 8.5t15 11.5t16.5 11t15.5 9t12 6.5t7 2.5 q47 -29 68 -25q16 4 17 -5q1 -8 -13 -22q-59 -49 -78 -47q-41 2 -73 45zM1030 1376q0 2 3 5t10.5 8.5t15.5 11.5t16 11t15.5 9t12.5 6.5t7 2.5q47 -29 68 -25q16 4 16 -5q1 -8 -12 -22q-59 -49 -78 -47q-41 2 -74 45z" />
<glyph unicode="&#x179;" horiz-adv-x="927" d="M-52 -21q3 8 9 17q186 299 1135 1063q-258 4 -387 4q-45 0 -88.5 -4t-104.5 -17.5t-96 -49.5t-31 -87q4 -35 25 -78l-21 -16q-2 4 -28.5 47t-39 67.5t-12.5 39.5q-10 72 35 110q27 23 84 34t107.5 11t118 -2t85.5 -2h478q2 -2 2 -9t-4.5 -18.5t-8.5 -13.5 q-528 -381 -989 -878q88 45 167 55t138.5 -4.5t128 -67.5t118.5 -106.5t128 -149.5q135 -162 260 -266t205 -102q102 2 122.5 79.5t-36.5 161.5q-23 35 -55 70q-2 4 10 13t16 7q51 -32 80 -69q80 -111 10.5 -223.5t-198.5 -114.5q-53 0 -110.5 24.5t-102.5 56t-104.5 89 t-91.5 93.5t-86 100.5t-71 82.5q-12 14 -44.5 53t-46 53.5t-42 45.5t-44 44t-43 32.5t-48 27.5t-48.5 14.5t-56 6.5q-98 0 -184.5 -57.5t-112.5 -147.5q-16 -68 -33 -88q-28 -38 -71 -14q-47 26 -24 83zM872 1262q-2 1 2 14q74 55 158 129q92 80 111 80q6 0 5 -29t-7 -35 q-10 -18 -127 -86.5t-142 -72.5z" />
<glyph unicode="&#x17a;" horiz-adv-x="479" d="M-25 -4q20 33 98.5 116t119.5 117q43 37 146 129.5t169 145.5q-283 0 -313 -43q-17 -23 -33 -19q-12 3 6 23q10 10 49 78q10 -6 168 -2t170 4q16 0 28.5 -23.5t14.5 -42.5q-266 -190 -324 -237q-8 -6 -174 -150q43 23 83 26t66.5 -1t65.5 -33t56.5 -45t66.5 -64 q152 -152 228 -151q37 4 53 18q23 16 15.5 40t-22 42.5t-28.5 28.5q-9 9 8 15q8 3 15 -1q41 -20 54 -68.5t-16 -93.5q-25 -37 -69.5 -55t-89.5 -4q-35 10 -81 55t-147 160q-6 6 -22.5 25.5t-21.5 25.5t-19 22.5t-22.5 21.5t-21.5 15.5t-23.5 14.5t-24 7t-27.5 3 q-47 0 -89 -28.5t-54 -71.5q-8 -29 -17 -43q-16 -22 -39 -3q-20 17 -2 46zM422 686q-2 1 2 14q74 55 158 129q92 80 110 80q6 0 5 -28.5t-7 -34.5q-10 -18 -127 -87t-141 -73z" />
<glyph unicode="&#x17b;" horiz-adv-x="927" d="M-52 -21q3 8 9 17q186 299 1135 1063q-258 4 -387 4q-45 0 -88.5 -4t-104.5 -17.5t-96 -49.5t-31 -87q4 -35 25 -78l-21 -16q-2 4 -28.5 47t-39 67.5t-12.5 39.5q-10 72 35 110q27 23 84 34t107.5 11t118 -2t85.5 -2h478q2 -2 2 -9t-4.5 -18.5t-8.5 -13.5 q-528 -381 -989 -878q88 45 167 55t138.5 -4.5t128 -67.5t118.5 -106.5t128 -149.5q135 -162 260 -266t205 -102q102 2 122.5 79.5t-36.5 161.5q-23 35 -55 70q-2 4 10 13t16 7q51 -32 80 -69q80 -111 10.5 -223.5t-198.5 -114.5q-53 0 -110.5 24.5t-102.5 56t-104.5 89 t-91.5 93.5t-86 100.5t-71 82.5q-12 14 -44.5 53t-46 53.5t-42 45.5t-44 44t-43 32.5t-48 27.5t-48.5 14.5t-56 6.5q-98 0 -184.5 -57.5t-112.5 -147.5q-16 -68 -33 -88q-28 -38 -71 -14q-47 26 -24 83zM733 1333q0 2 3 5t10.5 8.5t15.5 11.5t16 11t15.5 9t12.5 6t7 2 q47 -29 68 -24q16 4 16 -5q1 -8 -12 -22q-59 -49 -78 -47q-41 2 -74 45z" />
<glyph unicode="&#x17c;" horiz-adv-x="479" d="M-25 -4q20 33 98.5 116t119.5 117q43 37 146 129.5t169 145.5q-283 0 -313 -43q-17 -23 -33 -19q-12 3 6 23q10 10 49 78q10 -6 168 -2t170 4q16 0 28.5 -23.5t14.5 -42.5q-266 -190 -324 -237q-8 -6 -174 -150q43 23 83 26t66.5 -1t65.5 -33t56.5 -45t66.5 -64 q152 -152 228 -151q37 4 53 18q23 16 15.5 40t-22 42.5t-28.5 28.5q-9 9 8 15q8 3 15 -1q41 -20 54 -68.5t-16 -93.5q-25 -37 -69.5 -55t-89.5 -4q-35 10 -81 55t-147 160q-6 6 -22.5 25.5t-21.5 25.5t-19 22.5t-22.5 21.5t-21.5 15.5t-23.5 14.5t-24 7t-27.5 3 q-47 0 -89 -28.5t-54 -71.5q-8 -29 -17 -43q-16 -22 -39 -3q-20 17 -2 46zM371 700q-2 2 5 8.5t19.5 14.5t23.5 15t20.5 12.5t11.5 3.5q47 -29 67 -25q16 4 17 -5q1 -8 -13 -22q-59 -49 -78 -47q-41 2 -73 45z" />
<glyph unicode="&#x17d;" horiz-adv-x="927" d="M-52 -21q3 8 9 17q186 299 1135 1063q-258 4 -387 4q-45 0 -88.5 -4t-104.5 -17.5t-96 -49.5t-31 -87q4 -35 25 -78l-21 -16q-2 4 -28.5 47t-39 67.5t-12.5 39.5q-10 72 35 110q27 23 84 34t107.5 11t118 -2t85.5 -2h478q2 -2 2 -9t-4.5 -18.5t-8.5 -13.5 q-528 -381 -989 -878q88 45 167 55t138.5 -4.5t128 -67.5t118.5 -106.5t128 -149.5q135 -162 260 -266t205 -102q102 2 122.5 79.5t-36.5 161.5q-23 35 -55 70q-2 4 10 13t16 7q51 -32 80 -69q80 -111 10.5 -223.5t-198.5 -114.5q-53 0 -110.5 24.5t-102.5 56t-104.5 89 t-91.5 93.5t-86 100.5t-71 82.5q-12 14 -44.5 53t-46 53.5t-42 45.5t-44 44t-43 32.5t-48 27.5t-48.5 14.5t-56 6.5q-98 0 -184.5 -57.5t-112.5 -147.5q-16 -68 -33 -88q-28 -38 -71 -14q-47 26 -24 83zM727 1391v6q12 4 43 18q20 10 86 -45q29 -25 80 -86q0 -6 12 0 q23 20 88.5 64.5t93.5 54.5q11 4 29 0q-150 -100 -231 -172h-25q-49 82 -139 143q-27 16 -37 17z" />
<glyph unicode="&#x17e;" horiz-adv-x="479" d="M-25 -4q20 33 98.5 116t119.5 117q43 37 146 129.5t169 145.5q-283 0 -313 -43q-17 -23 -33 -19q-12 3 6 23q10 10 49 78q10 -6 168 -2t170 4q16 0 28.5 -23.5t14.5 -42.5q-266 -190 -324 -237q-8 -6 -174 -150q43 23 83 26t66.5 -1t65.5 -33t56.5 -45t66.5 -64 q152 -152 228 -151q37 4 53 18q23 16 15.5 40t-22 42.5t-28.5 28.5q-9 9 8 15q8 3 15 -1q41 -20 54 -68.5t-16 -93.5q-25 -37 -69.5 -55t-89.5 -4q-35 10 -81 55t-147 160q-6 6 -22.5 25.5t-21.5 25.5t-19 22.5t-22.5 21.5t-21.5 15.5t-23.5 14.5t-24 7t-27.5 3 q-47 0 -89 -28.5t-54 -71.5q-8 -29 -17 -43q-16 -22 -39 -3q-20 17 -2 46zM250 760v6q12 4 43 18q20 10 86 -45q29 -25 80 -86q0 -6 12 0q23 20 88.5 64.5t93.5 54.5q11 4 29 0q-150 -100 -231 -172h-25q-49 82 -139 143q-27 16 -37 17z" />
<glyph unicode="&#x17f;" horiz-adv-x="372" d="M-615 -342q-1 10 1 23.5t4 22.5t8 27.5t8 25.5t11.5 30t11.5 29q4 10 11 12t11 -4t0 -17q-27 -61 -4 -113t73 -76t115.5 -28t124.5 29q145 76 267 301q43 80 81.5 178.5t83 219t70.5 188.5h-47q-2 0 -45 -6l-4 2q4 20 39 38.5t57 18.5h25q76 184 209 408q174 285 415 284 q27 0 49.5 -16t20.5 -45l-6 -74q0 -6 -10 -6q-4 0 -4 2q-8 49 -61.5 68.5t-117.5 -2.5q-119 -39 -221 -217q-84 -152 -201.5 -451t-173.5 -416q-35 -78 -73.5 -147.5t-97 -147.5t-119 -133t-140.5 -92t-162 -37q-170 0 -206 103q-2 8 -3 18z" />
<glyph unicode="&#x192;" horiz-adv-x="385" d="M-831 -553q-16 47 43 193q6 12 8 18q4 12 13 14t12 -5t-1 -19q-31 -74 -4 -136.5t89.5 -90t142 -32.5t153.5 33q219 109 346 369q47 96 99.5 224t110 279.5t81.5 211.5h-47q-2 0 -45 -6l-4 2q4 20 39 38.5t57 18.5h25q76 184 209 408q174 285 415 284q27 0 49.5 -16 t20.5 -45l-6 -74q0 -6 -10 -6q-4 0 -4 2q-8 49 -61.5 68.5t-117.5 -2.5q-119 -39 -221 -217q-25 -43 -180 -402h147q41 0 60 4q0 -14 -31 -26q-63 -35 -199 -31q-145 -365 -208 -514q-51 -121 -119 -229.5t-158 -213t-208 -166t-243 -61.5q-211 0 -253 125z" />
<glyph unicode="&#x218;" horiz-adv-x="923" d="M82 154q-14 70 14.5 145.5t79.5 114.5q2 2 8 -3t7.5 -10.5t-3.5 -9.5q-45 -53 -37.5 -121.5t46.5 -126.5q47 -66 131 -108.5t170 -46.5q162 -8 234.5 106.5t15.5 267.5q-25 70 -102 198t-85 142q-86 166 10 304q45 63 121 102t158 43q137 6 223 -88q12 -20 10 -55 t-14 -56q-53 -78 -68 -129q-29 -18 -38 -6q37 74 36 137v14v14v14q0 10 -2 16t-5 14t-8 14.5t-13 12.5q-59 55 -158 55q-135 0 -196.5 -94t-18.5 -193q29 -70 138.5 -205t142.5 -217q37 -100 9 -186t-95.5 -148.5t-158.5 -98.5t-181 -36q-127 0 -235.5 55.5t-135.5 168.5z M311 -432l2 14q2 8 15 19q66 59 80 127q6 20 -7.5 38.5t-35.5 22.5l6 21q25 0 47 22q4 2 9 7t10 9.5t7 4.5q47 -8 33 -74q-23 -115 -141 -197z" />
</font>
</defs>
</svg>
